<?xml version="1.0" encoding="UTF-8" standalone="no"?>
<svg
   width="62"
   height="44"
   viewBox="0 0 62 44"
   fill="none"
   version="1.1"
   id="svg8"
   sodipodi:docname="set_indicator.svg"
   inkscape:version="1.3-beta (cedbd6c6ff, 2023-05-28)"
   xmlns:inkscape="http://www.inkscape.org/namespaces/inkscape"
   xmlns:sodipodi="http://sodipodi.sourceforge.net/DTD/sodipodi-0.dtd"
   xmlns="http://www.w3.org/2000/svg"
   xmlns:svg="http://www.w3.org/2000/svg">
  <defs
     id="defs8" />
  <sodipodi:namedview
     id="namedview8"
     pagecolor="#505050"
     bordercolor="#ffffff"
     borderopacity="1"
     inkscape:showpageshadow="0"
     inkscape:pageopacity="0"
     inkscape:pagecheckerboard="1"
     inkscape:deskcolor="#505050"
     inkscape:zoom="20.887097"
     inkscape:cx="31"
     inkscape:cy="21.999228"
     inkscape:window-width="2560"
     inkscape:window-height="1351"
     inkscape:window-x="-9"
     inkscape:window-y="-9"
     inkscape:window-maximized="1"
     inkscape:current-layer="svg8" />
  <path
     d="m 24.0554,33.632 h 1.056 V 44 h -1.168 l -5.472,-8.752 0.064,1.504 V 44 h -1.056 V 33.632 h 1.152 l 5.472,8.72 -0.048,-1.536 z m 3.6368,2.496 h 1.04 v 5.616 c 0.0107,0.5333 0.1547,0.9067 0.432,1.12 0.288,0.2133 0.6987,0.32 1.232,0.32 0.544,0 1.0187,-0.1013 1.424,-0.304 0.416,-0.2027 0.6613,-0.3947 0.736,-0.576 v -6.176 h 1.024 v 5.808 L 33.8682,44 h -0.672 l -0.048,-0.048 -0.336,-0.896 c -0.416,0.2773 -0.7147,0.4747 -0.896,0.592 -0.1813,0.1067 -0.448,0.2187 -0.8,0.336 -0.3413,0.1067 -0.704,0.16 -1.088,0.16 -1.5253,0 -2.304,-0.8053 -2.336,-2.416 z m 8.5986,0.832 c 0,-0.0533 -0.0267,-0.08 -0.08,-0.08 h -0.64 v -0.464 l 0.736,-0.304 0.176,-1.408 h 0.816 v 1.28 c 0.032,0.0747 0.2507,0.112 0.656,0.112 h 0.944 l -0.128,0.752 -1.344,0.016 c -0.096,0 -0.144,0.0213 -0.144,0.064 v 5.056 l 0.416,2.08 h -0.704 l -0.064,-0.048 -0.64,-2.032 z m 3.9423,5.952 c 0.6613,0.256 1.28,0.384 1.856,0.384 0.576,0 1.0666,-0.1173 1.472,-0.352 0.416,-0.2453 0.624,-0.5653 0.624,-0.96 0,-0.3947 -0.1387,-0.7093 -0.416,-0.944 -0.2774,-0.2453 -0.6134,-0.4427 -1.008,-0.592 -0.3947,-0.1493 -0.7894,-0.304 -1.184,-0.464 -0.384,-0.1707 -0.7147,-0.4053 -0.992,-0.704 -0.2774,-0.3093 -0.416,-0.688 -0.416,-1.136 0,-0.704 0.2453,-1.2427 0.736,-1.616 0.4906,-0.384 1.104,-0.576 1.84,-0.576 0.7466,0 1.4613,0.1227 2.144,0.368 l -0.208,0.736 c -0.5334,-0.1813 -1.136,-0.272 -1.808,-0.272 -1.1094,0 -1.664,0.432 -1.664,1.296 0,0.5547 0.48,1.0133 1.44,1.376 0.4053,0.1493 0.8053,0.3147 1.2,0.496 0.4053,0.1707 0.7466,0.4213 1.024,0.752 0.288,0.3307 0.432,0.7307 0.432,1.2 0,0.7147 -0.3094,1.264 -0.928,1.648 -0.6187,0.384 -1.3334,0.576 -2.144,0.576 -0.8107,0 -1.5574,-0.144 -2.24,-0.432 z"
     fill="#acacac"
     id="path1" />
  <path
     d="M 28.4524,24.33 C 21.3351,22.7662 31.3645,13.18577 27.4662,11.81192 24.1849,10.65561 23.54,14.6651 22.5104,14.6651 c -1.4347,0 -4.1157,-9.707044 4.9558,-9.66496 9.0714,0.04207 4.3677,5.93982 3.4937,9.47606 -0.6915,2.7982 -1.138,5.6301 -1.3395,8.4957 1.605,-5.6448 3.929,-8.4671 6.9718,-8.4671"
     stroke="#acacac"
     stroke-opacity="0.78"
     stroke-linecap="round"
     stroke-linejoin="round"
     id="path2" />
  <path
     d="m 36.5922,14.5049 c 0.0595,-1.43831 0.5132,-2.78275 0.6407,-4.16506"
     stroke="#acacac"
     stroke-opacity="0.78"
     stroke-linecap="round"
     stroke-linejoin="round"
     id="path3" />
  <path
     d="m 37.233,10.33984 c 0.0691,0.25307 0.6507,1.0473 0.982,1.19963 1.5022,0.69087 5.133,0.99054 3.8893,3.21193 -0.5427,0.9692 -2.1815,1.1418 -3.1798,1.1418"
     stroke="#acacac"
     stroke-opacity="0.78"
     stroke-linecap="round"
     stroke-linejoin="round"
     id="path4" />
  <path
     d="m 37.0779,18.9902 c 2.2935,0.4306 1.6076,5.025 -0.1785,6.0172 -0.665,0.3694 -1.871,0.533 -3.6179,0.4909 h 5.8738"
     stroke="#acacac"
     stroke-opacity="0.78"
     stroke-linecap="round"
     stroke-linejoin="round"
     id="path5" />
  <path
     d="m 37.1262,18.9902 c 1.662,0 2.8724,-0.2492 3.6311,-0.7475"
     stroke="#acacac"
     stroke-opacity="0.78"
     stroke-linecap="round"
     stroke-linejoin="round"
     id="path6" />
  <path
     d="m 40.7573,18.4519 c 0.9489,5.0713 3.7626,-2.1704 1.178,-1.1834 -0.5541,0.2117 -0.9228,0.3974 -1.1266,0.9682"
     stroke="#acacac"
     stroke-opacity="0.78"
     stroke-linecap="round"
     stroke-linejoin="round"
     id="path7" />
  <path
     d="M 39.3964,13.75862 C 39.3936,13.72206 39.391,13.68551 39.3884,13.64905"
     stroke="#acacac"
     stroke-opacity="0.78"
     stroke-linecap="round"
     stroke-linejoin="round"
     id="path8" />
</svg>
