<?xml version="1.0" encoding="UTF-8" standalone="no"?>
<svg
   width="62"
   height="59"
   viewBox="0 0 62 59"
   fill="none"
   version="1.1"
   id="svg10"
   sodipodi:docname="set_indicator.svg"
   inkscape:version="1.3-beta (cedbd6c6ff, 2023-05-28)"
   xmlns:inkscape="http://www.inkscape.org/namespaces/inkscape"
   xmlns:sodipodi="http://sodipodi.sourceforge.net/DTD/sodipodi-0.dtd"
   xmlns="http://www.w3.org/2000/svg"
   xmlns:svg="http://www.w3.org/2000/svg">
  <defs
     id="defs10" />
  <sodipodi:namedview
     id="namedview10"
     pagecolor="#505050"
     bordercolor="#ffffff"
     borderopacity="1"
     inkscape:showpageshadow="0"
     inkscape:pageopacity="0"
     inkscape:pagecheckerboard="1"
     inkscape:deskcolor="#505050"
     inkscape:zoom="12.068755"
     inkscape:cx="31.279118"
     inkscape:cy="23.738986"
     inkscape:window-width="2560"
     inkscape:window-height="1351"
     inkscape:window-x="-9"
     inkscape:window-y="-9"
     inkscape:window-maximized="1"
     inkscape:current-layer="svg10" />
  <path
     d="m 8.25094,57.8 c 0.82133,0.3093 1.70666,0.464 2.65596,0.464 0.9494,0 1.6214,-0.1387 2.016,-0.416 0.3947,-0.288 0.592,-0.816 0.592,-1.584 0,-0.4053 -0.128,-0.7413 -0.384,-1.008 -0.2453,-0.2347 -0.4693,-0.4053 -0.672,-0.512 l -0.576,-0.288 c -0.1813,-0.0853 -0.4053,-0.1867 -0.672,-0.304 -0.256,-0.1173 -0.48,-0.2187 -0.672,-0.304 -0.192,-0.096 -0.4533,-0.2293 -0.78396,-0.4 C 9.42427,53.2667 9.1896,53.1173 9.05094,53 8.91227,52.872 8.7576,52.7173 8.58694,52.536 c -0.29867,-0.3307 -0.448,-0.7573 -0.448,-1.28 0,-0.8853 0.304,-1.5733 0.912,-2.064 0.608,-0.5013 1.39196,-0.752 2.35196,-0.752 0.96,0 1.8507,0.1333 2.672,0.4 l -0.208,0.8 c -0.6613,-0.2133 -1.424,-0.32 -2.288,-0.32 -0.8533,0 -1.456,0.1387 -1.80796,0.416 -0.352,0.2667 -0.528,0.7307 -0.528,1.392 0,0.4907 0.25066,0.896 0.752,1.216 0.40536,0.256 1.02936,0.5707 1.87196,0.944 0.8427,0.3627 1.4134,0.6453 1.712,0.848 0.7574,0.512 1.1414,1.2053 1.152,2.08 0,1.952 -1.264,2.928 -3.792,2.928 -1.05596,0 -2.04263,-0.1547 -2.95996,-0.464 z m 8.46176,-5.84 c 0,-0.0533 -0.0267,-0.08 -0.08,-0.08 h -0.64 v -0.464 l 0.736,-0.304 0.176,-1.408 h 0.816 v 1.28 c 0.032,0.0747 0.2507,0.112 0.656,0.112 h 0.944 l -0.128,0.752 -1.344,0.016 c -0.096,0 -0.144,0.0213 -0.144,0.064 v 5.056 l 0.416,2.08 h -0.704 l -0.064,-0.048 -0.64,-2.032 z m 9.5262,2.256 -0.016,1.904 c 0,0.2987 0.0054,0.576 0.016,0.832 l 0.352,1.952 0.016,0.08 h -0.704 l -0.064,-0.048 -0.384,-0.928 c -0.992,0.6827 -1.968,1.04 -2.928,1.072 -0.672,0 -1.1893,-0.176 -1.552,-0.528 -0.352,-0.3627 -0.528,-0.8693 -0.528,-1.52 0,-0.896 0.2507,-1.504 0.752,-1.824 0.5014,-0.32 1.1894,-0.48 2.064,-0.48 0.1067,0 0.752,0.032 1.936,0.096 v -1.04 c 0,-0.704 -0.1333,-1.1893 -0.4,-1.456 -0.256,-0.2773 -0.6186,-0.416 -1.088,-0.416 -0.4693,0 -1.376,0.144 -2.72,0.432 l -0.144,-0.768 c 1.3227,-0.3947 2.272,-0.592 2.848,-0.592 0.8747,0 1.568,0.272 2.08,0.816 0.3094,0.3307 0.464,1.136 0.464,2.416 z m -1.04,1.408 -1.68,-0.064 c -0.8533,0 -1.408,0.0853 -1.664,0.256 -0.256,0.1707 -0.384,0.512 -0.384,1.024 0,0.5013 0.0854,0.848 0.256,1.04 0.1707,0.1813 0.464,0.272 0.88,0.272 0.4267,0 0.9227,-0.0853 1.488,-0.256 0.576,-0.1707 0.944,-0.368 1.104,-0.592 z m 3.6388,-3.664 c 0,-0.0533 -0.0267,-0.08 -0.08,-0.08 h -0.64 v -0.464 l 0.736,-0.304 0.176,-1.408 h 0.816 v 1.28 c 0.032,0.0747 0.2507,0.112 0.656,0.112 h 0.944 l -0.128,0.752 -1.344,0.016 c -0.096,0 -0.144,0.0213 -0.144,0.064 v 5.056 l 0.416,2.08 h -0.704 l -0.064,-0.048 -0.64,-2.032 z m 4.1982,-0.832 h 1.04 v 5.616 c 0.0107,0.5333 0.1547,0.9067 0.432,1.12 0.288,0.2133 0.6987,0.32 1.232,0.32 0.544,0 1.0187,-0.1013 1.424,-0.304 0.416,-0.2027 0.6614,-0.3947 0.736,-0.576 v -6.176 h 1.024 v 5.808 L 39.2119,59 h -0.672 l -0.048,-0.048 -0.336,-0.896 c -0.416,0.2773 -0.7146,0.4747 -0.896,0.592 -0.1813,0.1067 -0.448,0.2187 -0.8,0.336 -0.3413,0.1067 -0.704,0.16 -1.088,0.16 -1.5253,0 -2.304,-0.8053 -2.336,-2.416 z m 14.2307,2.736 c 0,0.384 -0.032,0.784 -0.096,1.2 h -5.024 c 0.0426,1.1733 0.24,1.984 0.592,2.432 0.352,0.4373 0.976,0.656 1.872,0.656 0.672,0 1.456,-0.144 2.352,-0.432 l 0.096,0.8 c -0.2454,0.096 -0.4374,0.1653 -0.576,0.208 -0.128,0.032 -0.2667,0.0747 -0.416,0.128 -0.1494,0.0427 -0.2614,0.0747 -0.336,0.096 -0.0747,0.0213 -0.1814,0.048 -0.32,0.08 -0.1387,0.032 -0.256,0.0533 -0.352,0.064 -0.288,0.032 -0.5334,0.048 -0.736,0.048 -1.0027,0 -1.792,-0.352 -2.368,-1.056 -0.576,-0.704 -0.864,-1.6853 -0.864,-2.944 0,-0.6933 0.0853,-1.3013 0.256,-1.824 0.1706,-0.5333 0.3733,-0.9387 0.608,-1.216 0.2346,-0.288 0.5173,-0.5173 0.848,-0.688 0.4906,-0.2667 1.024,-0.4107 1.6,-0.432 1.9093,0.0107 2.864,0.9707 2.864,2.88 z m -1.008,-0.256 c 0,-0.64 -0.16,-1.088 -0.48,-1.344 -0.32,-0.256 -0.7947,-0.384 -1.424,-0.384 -0.6294,0 -1.1467,0.1707 -1.552,0.512 -0.4054,0.3307 -0.6134,0.9493 -0.624,1.856 h 4.032 c 0.032,-0.2453 0.048,-0.4587 0.048,-0.64 z m 2.787,4.304 c 0.6613,0.256 1.28,0.384 1.856,0.384 0.576,0 1.0666,-0.1173 1.472,-0.352 0.416,-0.2453 0.624,-0.5653 0.624,-0.96 0,-0.3947 -0.1387,-0.7093 -0.416,-0.944 -0.2774,-0.2453 -0.6134,-0.4427 -1.008,-0.592 -0.3947,-0.1493 -0.7894,-0.304 -1.184,-0.464 -0.384,-0.1707 -0.7147,-0.4053 -0.992,-0.704 -0.2774,-0.3093 -0.416,-0.688 -0.416,-1.136 0,-0.704 0.2453,-1.2427 0.736,-1.616 0.4906,-0.384 1.104,-0.576 1.84,-0.576 0.7466,0 1.4613,0.1227 2.144,0.368 l -0.208,0.736 c -0.5334,-0.1813 -1.136,-0.272 -1.808,-0.272 -1.1094,0 -1.664,0.432 -1.664,1.296 0,0.5547 0.48,1.0133 1.44,1.376 0.4053,0.1493 0.8053,0.3147 1.2,0.496 0.4053,0.1707 0.7466,0.4213 1.024,0.752 0.288,0.3307 0.432,0.7307 0.432,1.2 0,0.7147 -0.3094,1.264 -0.928,1.648 -0.6187,0.384 -1.3334,0.576 -2.144,0.576 -0.8107,0 -1.5574,-0.144 -2.24,-0.432 z"
     fill="#acacac"
     id="path1" />
  <path
     d="m 30.4788,8.31247 c 0.1517,0 0.2738,-0.12267 0.2738,-0.27379 0,-0.15172 -0.1221,-0.2744 -0.2738,-0.2744 -0.1517,0 -0.2738,0.12268 -0.2738,0.2744 0,0.15119 0.1221,0.27379 0.2738,0.27379 z"
     fill="#acacac"
     id="path2" />
  <path
     d="m 30.1682,17.1605 1.593,0.3407 0.0723,-0.3443 -1.5017,-0.3212 v -1.734 h -0.3509 v 1.7519 l -1.5242,0.5445 0.1173,0.3307 z"
     fill="#acacac"
     id="path3" />
  <path
     d="m 29.5768,32.2239 -0.2477,-0.2483 c -0.0451,0.0456 -0.1174,0.0835 -0.2122,0.1078 -0.0936,0.0238 -0.2063,0.0345 -0.3188,0.0345 -0.1506,0 -0.3022,-0.0178 -0.4112,-0.0356 -0.057,-0.0094 -0.1032,-0.0183 -0.134,-0.0255 -0.0154,-0.0024 -0.0273,-0.006 -0.0355,-0.007 l -0.0095,-0.0024 -0.0024,-0.0013 -0.0841,0.3426 c 0.0071,0.0012 0.3224,0.0806 0.6768,0.0806 0.1327,0 0.2725,-0.0107 0.4077,-0.0457 0.1339,-0.0349 0.2654,-0.0936 0.3709,-0.1997 z"
     fill="#acacac"
     id="path4" />
  <path
     d="m 34.0748,31.364 c 0.285,-0.0598 0.6441,-0.1488 0.9536,-0.2732 l -0.1316,-0.3259 c -0.2762,0.1102 -0.6205,0.1968 -0.8932,0.2542 -0.1374,0.0296 -0.256,0.0503 -0.3401,0.0646 -0.0415,0.0071 -0.0747,0.0131 -0.0984,0.0166 -0.0119,0.0024 -0.0201,0.0036 -0.0261,0.0036 l -0.0083,0.0011 0.0497,0.3479 c 0.0026,0 0.2112,-0.0291 0.4944,-0.0889 z"
     fill="#acacac"
     id="path5" />
  <path
     d="m 32.5245,5.15686 v 7.8e-4 c 0,0 0,0 0.0016,0 z"
     fill="#acacac"
     id="path6" />
  <path
     d="m 39.3664,39.5601 v 9e-4 c 0.0011,0 0.0011,0 0.0011,0 z"
     fill="#acacac"
     id="path7" />
  <path
     d="m 39.368,39.5612 h -9e-4 l 9e-4,10e-4 z"
     fill="#acacac"
     id="path8" />
  <path
     d="m 40.88,39.899 c -0.0794,-0.0782 -0.1801,-0.1197 -0.2904,-0.1203 h -1.0075 c -0.0664,-0.0782 -0.1363,-0.1529 -0.2158,-0.2181 -0.039,-0.0332 -0.0936,-0.0853 -0.1541,-0.1499 -0.0604,-0.0653 -0.1279,-0.1429 -0.1978,-0.2282 v 6e-4 c -0.211,-0.2603 -0.448,-0.5915 -0.6448,-0.8967 v 6e-4 c -0.0972,-0.1511 -0.1861,-0.298 -0.2597,-0.4236 v -7e-4 c -0.0698,-0.1239 -0.1244,-0.2329 -0.1505,-0.2933 v -0.0012 c -0.0142,-0.0332 -0.0355,-0.0984 -0.0592,-0.1813 -0.0237,-0.083 -0.0486,-0.186 -0.0747,-0.3011 v -6e-4 c -0.1576,-0.7022 -0.3366,-1.8917 -0.4836,-2.9139 -0.1043,-0.7248 -0.3354,-1.5468 -0.6163,-2.303 v -5e-4 C 36.4554,31.1501 36.146,30.4976 35.8343,30.0389 35.8154,29.959 35.7893,29.8327 35.7585,29.6733 L 35.7573,29.672 c -0.1506,-0.7538 -0.4244,-2.2378 -0.6602,-3.5635 -0.1173,-0.6631 -0.2252,-1.2878 -0.3034,-1.7619 v -6e-4 c -0.0403,-0.234 -0.0711,-0.4332 -0.0936,-0.5795 v -6e-4 C 34.6894,23.6906 34.6799,23.6301 34.6763,23.5946 V 23.588 l -0.0011,-0.0065 c -0.0024,-0.0171 -0.0048,-0.0308 -0.0048,-0.0361 l -0.0012,-0.0071 c 0,-0.2678 -0.0213,-4.7724 -0.0319,-7.0563 0.0082,0.0124 0.0166,0.0243 0.026,0.0361 v 0.0012 c 0.2145,0.2963 0.4469,0.6146 0.6626,0.9026 l 0.0012,6e-4 c 0.2169,0.2868 0.4184,0.5428 0.5784,0.7247 v 6e-4 c 0.23,0.2602 0.5121,0.4599 0.8095,0.598 0.2987,0.1381 0.6163,0.2163 0.9268,0.2163 0.1742,0 0.3485,-0.0255 0.5144,-0.0835 0.166,-0.0575 0.326,-0.15 0.4587,-0.2839 0.3402,-0.3426 0.5203,-0.8303 0.5215,-1.337 0,-0.4362 -0.1398,-0.8972 -0.4563,-1.2837 l -0.0012,-5e-4 c -0.051,-0.0617 -0.1292,-0.1714 -0.2205,-0.3094 l -0.0011,-0.0018 0.0011,0.0023 c -0.3188,-0.4859 -0.7976,-1.3192 -1.2966,-2.12394 -0.2489,-0.40123 -0.505,-0.79769 -0.7562,-1.14619 l -0.0012,-0.0024 c -0.2501,-0.34963 -0.4919,-0.65124 -0.7336,-0.87468 l 0.0047,0.0041 -0.006,-0.0053 C 35.122,11.01608 34.4499,10.7808 33.8543,10.66405 33.2689,10.55029 32.7402,10.54968 32.4403,10.54968 h -0.0178 c -0.1137,0 -0.2596,-0.01484 -0.4089,-0.03851 -0.1493,-0.02375 -0.3035,-0.05511 -0.4385,-0.0877 h -0.0012 c -0.0356,-0.0083 -0.07,-0.01722 -0.1044,-0.02552 0.1268,-0.01545 0.249,-0.05634 0.3544,-0.12921 h 0.0012 v -5.4e-4 c 0.0012,0 0.0012,-6.1e-4 0.0024,-0.0012 h -0.0012 c 0.0699,-0.04735 0.1351,-0.11083 0.1825,-0.19077 0.0013,-6.2e-4 0.0013,-0.0012 0.0013,-0.0012 0,0 0,-5.4e-4 0.0011,-0.0012 H 32.0101 C 32.061,9.98965 32.0906,9.89249 32.0906,9.78758 V 9.03493 C 32.1095,9.02724 32.1297,9.0201 32.1487,9.01003 32.208,8.9792 32.2637,8.9377 32.3111,8.88497 32.362,8.82924 32.3941,8.7706 32.4143,8.71433 L 32.4154,8.7108 32.4167,8.7078 C 32.4368,8.64915 32.4439,8.59466 32.4439,8.54839 32.4427,8.52118 32.4415,8.49443 32.4356,8.45953 l -0.0023,-0.0083 -0.1434,-0.82851 0.0083,-0.0907 c 0.0402,-0.01837 0.084,-0.04089 0.1315,-0.07056 0,-6.1e-4 0,-6.1e-4 0,-6.1e-4 0.0012,-6.2e-4 0.0024,-6.2e-4 0.0024,-6.2e-4 0.1162,-0.07402 0.2323,-0.18608 0.3117,-0.34488 0.0771,-0.15296 0.1138,-0.33305 0.1138,-0.53397 V 6.57192 c 0,-0.15703 -0.0213,-0.33066 -0.0628,-0.52859 0,-0.00945 0,-0.01783 0,-0.0249 0,-0.31583 -0.102,-0.61106 -0.2703,-0.8611 C 32.2756,4.782776 31.8964,4.500764 31.4626,4.305762 31.0275,4.109684 30.531,4 30.0225,4 c -0.243,0 -0.4872,0.026133 -0.7278,0.080553 -0.0142,-6.149e-4 -0.0307,-6.149e-4 -0.0521,-6.149e-4 -0.6921,0.00184 -1.3085,0.2767852 -1.7589,0.6507252 l -0.007,0.00538 0.007,-0.00477 C 27.2573,4.920361 27.0713,5.13481 26.9349,5.36601 l -0.0012,0.00177 c -0.1339,0.23167 -0.224,0.48539 -0.224,0.75326 0,0.04328 0.0024,0.0877 0.0083,0.13159 -0.0948,0.12268 -0.1695,0.25603 -0.2204,0.39408 -0.0806,0.21399 -0.1138,0.43858 -0.1138,0.66018 v 6.1e-4 c 0.0024,0.57663 0.2099,1.15564 0.4741,1.65341 -0.0024,0.02906 -0.0035,0.05811 -0.0035,0.08716 0,0.25542 0.0925,0.47763 0.2062,0.65365 0.1731,0.26195 0.4006,0.44804 0.582,0.57724 0.0391,0.02844 0.0759,0.05335 0.1102,0.07587 v 0.93281 c -0.2228,0.12736 -0.6032,0.3455 -1.0193,0.58847 v -6.2e-4 c -0.3283,0.19085 -0.6767,0.39831 -0.9849,0.5867 -0.3082,0.18847 -0.5749,0.35857 -0.7539,0.48954 l 0.006,-0.0048 -0.0095,0.0064 c 6e-4,0 6e-4,0 0.0012,-6.1e-4 -0.3473,0.25195 -0.6674,0.54765 -0.9019,0.96602 -0.2347,0.41717 -0.377,0.93347 -0.4386,1.61437 -0.0581,0.6383 -0.2039,2.0161 -0.3438,3.2826 -0.0687,0.6329 -0.1374,1.2386 -0.1907,1.712 -0.0273,0.2359 -0.051,0.4386 -0.07,0.595 -0.0177,0.1559 -0.032,0.2668 -0.0379,0.31 l -0.0012,0.0012 v 6e-4 C 23.0012,21.4956 23,21.5514 23,21.61 c 0,0.2133 0.0237,0.5369 0.0569,0.9316 v 6e-4 c 0.0509,0.5908 0.1267,1.3251 0.1884,1.9527 v 5e-4 c 0.032,0.3124 0.0605,0.6003 0.0794,0.8268 l 0.0012,0.0012 c 0.0095,0.1126 0.0178,0.2109 0.0238,0.2886 v 7e-4 c 0.0058,0.0746 0.007,0.1339 0.007,0.1569 0,0.2514 0.0165,0.5583 0.1114,0.8902 0.096,0.3336 0.2762,0.6874 0.5796,1.0246 l -0.0035,-0.0035 0.0035,0.0048 c 0.2868,0.3165 0.7301,0.7289 1.107,1.0702 0.1896,0.1707 0.3615,0.3224 0.4872,0.4315 0.0485,0.0427 0.0877,0.077 0.1209,0.1055 v 0.0017 l 0.083,0.0705 c 0.0746,0.0623 0.1671,0.0973 0.2655,0.0973 0.0166,0 0.0331,-0.0012 0.0474,-0.0024 l 0.5689,-0.0676 c 0.0071,0.1328 0.0166,0.2821 0.0249,0.4255 0.0071,0.1215 0.0131,0.2395 0.0179,0.339 0.0035,0.099 0.0059,0.1814 0.0059,0.2234 0.0011,0.0687 0.0071,0.1422 0.0166,0.2454 0.0332,0.3556 0.1138,1.0246 0.1944,1.6552 0.0795,0.6299 0.1576,1.216 0.1837,1.4009 v 0.0037 l 0.0012,0.0029 c 0.006,0.0343 0.0131,0.08 0.0262,0.1386 v -6e-4 c 0.045,0.2098 0.1362,0.5867 0.2511,1.0531 0.1708,0.6976 0.3912,1.5888 0.569,2.3545 0.0888,0.3817 0.1671,0.7331 0.2217,1.0093 v 0.0012 c 0.0272,0.1358 0.0485,0.2548 0.0628,0.3473 0.007,0.0456 0.0118,0.0859 0.0153,0.1167 0.0012,0.016 0.0024,0.0296 0.0024,0.0397 -0.0035,0.0095 -0.0094,0.0225 -0.0166,0.0374 -0.039,0.0734 -0.1244,0.1955 -0.2264,0.3223 l 0.0012,-5e-4 c -0.157,0.1931 -0.3543,0.4124 -0.5233,0.6127 l 6e-4,-6e-4 -0.0023,0.0025 c 0.0012,0 6e-4,0 0.0012,-6e-4 -6e-4,6e-4 -0.0012,0.0011 -0.0012,0.0011 -0.0154,0.019 -0.0308,0.0374 -0.0463,0.0564 h -1.3369 c -0.1091,6e-4 -0.2109,0.042 -0.2904,0.1203 -0.0771,0.0788 -0.1185,0.1801 -0.1198,0.2898 v 2.7551 c 0.0013,0.1097 0.0427,0.2104 0.1198,0.2899 0.0795,0.0782 0.1813,0.1196 0.2904,0.1202 h 14.4192 c 0.1103,0 0.2146,-0.0438 0.2904,-0.1202 C 40.9562,43.1575 41,43.0538 41,42.9441 v -2.7553 c -3e-4,-0.1096 -0.0417,-0.211 -0.12,-0.2898 z M 33.7228,11.61646 c 0.0119,-0.03144 0.0237,-0.05511 0.0687,-0.0824 0.0451,-0.02659 0.1304,-0.05572 0.281,-0.05572 0.0996,0 0.2275,0.01307 0.387,0.0445 0.2584,0.0515 0.4693,0.17248 0.6495,0.33958 0.2702,0.24889 0.4658,0.60623 0.6009,0.95772 0.1339,0.35203 0.2097,0.69339 0.2525,0.90906 0.0189,0.09601 0.1114,0.15704 0.2062,0.13813 0.0972,-0.01899 0.1576,-0.11146 0.1387,-0.2063 -0.0296,-0.1452 -0.0723,-0.35142 -0.1411,-0.58255 0.3757,0.55587 0.7645,1.20362 1.113,1.78372 0.1944,0.3259 0.3781,0.63 0.5369,0.8854 0.1613,0.2554 0.2975,0.4623 0.4101,0.5992 0.2252,0.2732 0.3236,0.5967 0.3236,0.9109 0.0013,0.3656 -0.1374,0.7111 -0.3495,0.9233 -0.0653,0.0634 -0.1435,0.1114 -0.2372,0.1446 -0.0936,0.0326 -0.2027,0.0504 -0.3212,0.0504 -0.2109,0 -0.4516,-0.0552 -0.6804,-0.1619 -0.2299,-0.1055 -0.4468,-0.2613 -0.6163,-0.4552 -0.141,-0.1576 -0.3377,-0.4089 -0.5498,-0.6898 -0.3201,-0.4236 -0.678,-0.9221 -0.9555,-1.3132 -0.1386,-0.1955 -0.2583,-0.3651 -0.3413,-0.4853 -0.0841,-0.1197 -0.1339,-0.1914 -0.1339,-0.1914 l -0.0059,-0.0071 -0.0262,-0.0278 -0.0011,-0.0012 -0.0025,-0.0012 -0.01,-0.0071 c -0.0545,-0.0469 -0.2916,-0.246 -0.5179,-0.4889 -0.1209,-0.1298 -0.2406,-0.2714 -0.3236,-0.4042 -0.0427,-0.0658 -0.0747,-0.1279 -0.096,-0.18306 -0.0226,-0.05519 -0.0309,-0.10077 -0.0309,-0.1322 0,-0.02491 0.0048,-0.04028 0.0107,-0.05273 0.0249,-0.0492 0.0249,-0.10792 0,-0.15703 -0.0829,-0.16772 -0.1671,-0.37156 -0.2311,-0.57963 -0.0616,-0.20623 -0.1019,-0.41598 -0.1019,-0.5867 0,-0.16003 0.0343,-0.27855 0.0888,-0.34604 0.0285,-0.03558 0.0617,-0.06103 0.1091,-0.08178 0.0486,-0.02014 0.1125,-0.03436 0.2015,-0.03436 0.0118,0 0.0225,0 0.0355,0.0012 l 0.6555,0.87355 c 0.0581,0.07701 0.1683,0.09362 0.2459,0.03497 0.077,-0.05865 0.0936,-0.16887 0.0355,-0.24596 L 33.718,11.74221 c -0.0023,-0.01422 -0.0059,-0.03551 -0.0047,-0.05634 1e-4,-0.02498 0.0024,-0.04812 0.0095,-0.06941 z M 27.5452,9.37159 C 27.4789,9.26491 27.4398,9.15699 27.4398,9.048 c 0,-0.03736 0.0047,-0.07648 0.0154,-0.11737 C 27.4659,8.88735 27.46,8.84054 27.4362,8.80203 27.172,8.33855 26.9693,7.7756 26.9704,7.30681 c 0,-0.16525 0.0237,-0.31883 0.0747,-0.45334 0.0522,-0.13512 0.128,-0.25303 0.2406,-0.35557 0.0545,-0.05034 0.0722,-0.12859 0.0426,-0.19792 -0.0201,-0.05273 -0.0319,-0.11253 -0.0319,-0.17894 -0.0013,-0.13159 0.0462,-0.29215 0.1434,-0.45749 0.1446,-0.24711 0.3971,-0.50138 0.7111,-0.688078 0.3153,-0.187854 0.6922,-0.309298 1.0916,-0.309298 0.0285,0 0.057,0.00115 0.0853,0.00177 0.0167,0 0.0345,-6.15e-4 0.0499,-0.00423 0.2097,-0.052729 0.4278,-0.077632 0.6447,-0.077632 0.5629,-0.00115 1.1248,0.166486 1.5326,0.434967 0.205,0.1339 0.3697,0.29101 0.4811,0.46111 0.1126,0.16825 0.1731,0.34788 0.1731,0.53635 0,0.01545 0,0.03197 -0.0012,0.04681 -0.0012,0.0166 0,0.03205 0.0048,0.04857 0.0415,0.19078 0.0592,0.34197 0.0581,0.45811 0,0.12329 -0.0189,0.20507 -0.0415,0.26018 -0.0178,0.04266 -0.0379,0.06933 -0.0617,0.09239 -0.0343,0.03559 -0.0794,0.06103 -0.1363,0.08478 -0.0485,0.02129 -0.103,0.03966 -0.1635,0.06695 -0.083,0.01537 -0.1624,0.02075 -0.2347,0.02075 -0.2323,0 -0.4124,-0.06341 -0.5654,-0.15941 C 30.8402,6.7936 30.6803,6.56731 30.5806,6.37408 30.5309,6.27631 30.4965,6.18976 30.474,6.12811 30.4633,6.09614 30.455,6.07124 30.4503,6.05525 L 30.4444,6.03634 V 6.03273 l -0.3426,0.08478 c 0.0036,0.01122 0.0829,0.32828 0.3105,0.65718 0.0095,0.0166 0.0214,0.03197 0.0332,0.04796 -0.0663,0.01783 -0.1422,0.03075 -0.2228,0.03075 h -0.0035 c -0.1031,0 -0.2087,-0.02129 -0.3106,-0.07702 C 29.8055,6.71827 29.7012,6.62465 29.6052,6.45694 29.5637,6.38292 29.4736,6.3491 29.3942,6.37869 c -0.0806,0.02782 -0.1292,0.11022 -0.115,0.19439 0.0071,0.04327 0.0106,0.08355 0.0106,0.11852 0,0.0741 -0.0142,0.12867 -0.0344,0.17248 -0.0308,0.06403 -0.0782,0.10907 -0.1505,0.14527 -0.0734,0.03375 -0.1731,0.05511 -0.2868,0.05511 -0.1457,0 -0.3141,-0.03382 -0.4718,-0.09723 -0.071,-0.02844 -0.1505,-0.0083 -0.1991,0.04919 -0.0498,0.0575 -0.0569,0.13928 -0.0177,0.20384 0.0854,0.14159 0.1529,0.27318 0.2003,0.39055 0.0462,0.11614 0.0675,0.21814 0.0675,0.29508 -0.0011,0.08009 -0.0177,0.13397 -0.0581,0.18908 -0.0414,0.05396 -0.1149,0.11084 -0.2418,0.1618 -0.0497,0.0196 -0.0877,0.06164 -0.1031,0.11375 -0.0153,0.05096 -0.0059,0.10792 0.0261,0.15119 0.1375,0.19316 0.1778,0.34666 0.1778,0.46995 0,0.0877 -0.0213,0.16418 -0.0521,0.23343 -0.0486,0.10315 -0.1257,0.18847 -0.192,0.24719 -0.0332,0.02906 -0.0641,0.0515 -0.0842,0.0658 l -0.0237,0.01537 -0.0036,0.00354 0.1387,0.24358 C 27.9267,9.76206 27.8663,9.71579 27.8082,9.66606 27.7089,9.57905 27.6129,9.4782 27.5452,9.37159 Z m 0.185,31.10581 c 0,0 0.0143,-0.0397 0.0462,-0.0859 l 0.0178,-0.0267 c 0.0557,-0.08 0.141,-0.1855 0.2383,-0.3005 0.0141,-0.0159 0.0283,-0.0338 0.0438,-0.0515 0.1552,-0.1802 0.3342,-0.3822 0.4871,-0.5742 0.083,-0.1067 0.1576,-0.2098 0.2181,-0.3094 0.0593,-0.1007 0.1067,-0.1944 0.1233,-0.3022 0.0024,-0.0225 0.0035,-0.0427 0.0035,-0.0633 0,-0.0492 -0.0047,-0.1043 -0.0141,-0.1714 -0.032,-0.2501 -0.115,-0.6555 -0.224,-1.1408 -0.1648,-0.7265 -0.3852,-1.6232 -0.5689,-2.3734 -0.0925,-0.3757 -0.1754,-0.7141 -0.2383,-0.9754 -0.0308,-0.1316 -0.0569,-0.2431 -0.0759,-0.3295 -0.0201,-0.086 -0.0332,-0.1505 -0.0368,-0.1737 -0.0272,-0.2027 -0.1256,-0.9417 -0.2169,-1.6623 -0.0439,-0.361 -0.0877,-0.7183 -0.1185,-1.0033 -0.0166,-0.1423 -0.0296,-0.2661 -0.0391,-0.3621 -0.0083,-0.0965 -0.013,-0.1695 -0.013,-0.1914 0,-0.08 -0.006,-0.2074 -0.0131,-0.3574 -0.019,-0.3733 -0.051,-0.8806 -0.0628,-1.046 0.0249,-0.042 0.0593,-0.1078 0.096,-0.1872 0.032,-0.0682 0.0628,-0.1463 0.0877,-0.23 0.0249,-0.0847 0.0427,-0.1725 0.0427,-0.2661 0,-0.0562 -0.006,-0.1137 -0.0262,-0.1712 -0.0236,-0.0741 -0.0722,-0.1488 -0.1434,-0.2015 0.0296,-0.067 0.0415,-0.1393 0.0403,-0.2086 0,-0.1054 -0.0225,-0.2121 -0.0604,-0.326 -0.1091,-0.333 -0.3414,-0.7396 -0.633,-1.2072 -0.0201,-0.141 -0.0924,-0.7016 -0.0913,-1.2267 0,-0.2027 0.0107,-0.3994 0.0379,-0.56 0.0273,-0.1713 0.0949,-0.5127 0.1767,-0.9239 0.1232,-0.6164 0.2844,-1.3963 0.4136,-2.0198 0.0652,-0.3117 0.122,-0.5867 0.1635,-0.7811 0.0403,-0.1955 0.0653,-0.3129 0.0653,-0.3129 0.0071,-0.0343 0.0035,-0.0675 -0.0083,-0.0996 l -0.8795,-2.2863 c -0.0261,-0.0688 -0.0948,-0.1144 -0.1695,-0.1121 -0.0747,0.0018 -0.1398,0.0515 -0.1612,0.1227 l -0.9387,2.9892 c -0.0047,0.0155 -0.0083,0.032 -0.0083,0.0486 l -0.1173,3.9854 c -0.0012,0.0468 0.0166,0.0918 0.0485,0.1256 l 1.1616,1.2202 c 0.192,0.3083 0.358,0.5897 0.4729,0.8256 0.0581,0.1191 0.1032,0.2269 0.1339,0.3199 0.0285,0.0913 0.0427,0.1678 0.0415,0.2182 0,0.0492 -0.0094,0.0693 -0.0178,0.0794 -0.0071,0.0094 -0.0189,0.0225 -0.0652,0.0343 l -0.0153,0.0018 c -0.0202,0 -0.0569,-0.0077 -0.1067,-0.035 -0.0865,-0.0456 -0.2015,-0.1428 -0.3129,-0.2636 -0.1683,-0.1802 -0.3366,-0.4102 -0.4587,-0.5932 -0.0616,-0.0914 -0.1126,-0.1713 -0.1469,-0.227 -0.0179,-0.0296 -0.0321,-0.0521 -0.0416,-0.067 l -0.0106,-0.0178 -0.0024,-0.0059 c -0.0486,-0.083 -0.1564,-0.1115 -0.2418,-0.0634 -0.083,0.0498 -0.1114,0.1576 -0.0628,0.2418 0.0024,0.0036 0.1944,0.3319 0.4505,0.6661 0.1279,0.1671 0.2726,0.336 0.4243,0.4711 0.0758,0.067 0.1528,0.125 0.237,0.1701 0.0829,0.0432 0.1719,0.0747 0.2726,0.0758 0.0237,0 0.0485,-0.0023 0.0723,-0.007 0.0438,0.0012 0.0758,0.0083 0.096,0.0142 0.0332,0.0131 0.0367,0.0201 0.045,0.0302 0.0059,0.0119 0.0142,0.0367 0.0142,0.0765 0.0013,0.0444 -0.0094,0.1043 -0.0284,0.1665 -0.0272,0.0936 -0.071,0.192 -0.109,0.2649 -0.0083,0.0166 -0.0166,0.032 -0.0237,0.0457 l -0.8321,0.0971 c -0.1233,-0.1054 -0.429,-0.3727 -0.7622,-0.6762 -0.3354,-0.3058 -0.6993,-0.6507 -0.9209,-0.8984 -0.2477,-0.2738 -0.3792,-0.5405 -0.4539,-0.7954 -0.0735,-0.2559 -0.0877,-0.5008 -0.0877,-0.7283 0,-0.0658 -0.0059,-0.1606 -0.0166,-0.2886 -0.0344,-0.4421 -0.1197,-1.2529 -0.1968,-2.0339 -0.0379,-0.39 -0.0735,-0.7734 -0.1007,-1.097 -0.0272,-0.3235 -0.0439,-0.5909 -0.0439,-0.7402 0,-0.0462 0.0025,-0.083 0.0036,-0.0948 0.0166,-0.1078 0.0569,-0.4462 0.1102,-0.921 0.1624,-1.4223 0.448,-4.0363 0.5357,-5.0071 0.0581,-0.6299 0.1849,-1.0572 0.3674,-1.3808 0.1826,-0.32355 0.422,-0.5523 0.7337,-0.77989 0.154,-0.11145 0.4161,-0.27917 0.7183,-0.46403 0.4551,-0.27916 1.0051,-0.6003 1.4401,-0.85103 0.2181,-0.12559 0.4065,-0.23351 0.5416,-0.31052 0.1328,-0.07648 0.2145,-0.12091 0.2145,-0.12091 0.0546,-0.03205 0.0889,-0.09008 0.0889,-0.15357 v -1.40668 c 0,-0.06702 -0.0379,-0.12805 -0.0971,-0.15703 L 28.2408,9.96121 C 28.229,9.95537 28.1495,9.91325 28.0441,9.84392 28.0903,9.81486 28.184,9.74791 28.2811,9.64238 28.3463,9.57182 28.4127,9.48304 28.4637,9.37397 28.5146,9.26491 28.5502,9.1357 28.5502,8.99173 28.5502,8.83586 28.5087,8.66576 28.4139,8.48974 28.4957,8.43824 28.5644,8.3789 28.6178,8.30842 28.709,8.19105 28.7505,8.04708 28.7494,7.90596 28.7494,7.76553 28.7126,7.6251 28.657,7.48168 28.6463,7.45616 28.6356,7.42895 28.6225,7.4022 28.689,7.41173 28.7541,7.4165 28.8181,7.4165 29.0232,7.41473 29.2222,7.37023 29.3823,7.2494 29.4605,7.19013 29.5292,7.11012 29.573,7.01412 29.579,7.00228 29.5837,6.9916 29.5873,6.9803 c 0.0498,0.04089 0.0996,0.07586 0.1518,0.1043 0.1623,0.09009 0.3318,0.12029 0.48,0.12029 0.2062,-0.00115 0.3793,-0.05511 0.4871,-0.09954 0.0522,0.04566 0.1115,0.08947 0.1731,0.12921 0.2015,0.12859 0.4563,0.21568 0.7539,0.21453 0.0284,0 0.0569,-0.00123 0.0841,-0.00239 l -0.0166,0.17364 c -0.0012,0.01599 0,0.03144 0.0024,0.04796 l 0.1434,0.83205 c -0.0296,0.0083 -0.0841,0.01775 -0.1659,0.0166 -0.0474,0 -0.0913,0.01829 -0.1245,0.0515 C 31.5229,8.60104 31.504,8.64669 31.504,8.69297 V 9.77689 C 31.4992,9.78043 31.4909,9.78881 31.4732,9.79703 31.447,9.80894 31.4056,9.82017 31.3499,9.81955 31.2764,9.82017 31.1733,9.80064 31.05,9.7443 30.9955,9.7194 30.9327,9.72416 30.8816,9.75737 30.8319,9.78881 30.8011,9.84507 30.8011,9.90495 v 0.78047 c 0,0.07763 0.0486,0.14465 0.122,0.16771 0.0037,0.0012 0.2217,0.07056 0.5169,0.14043 0.2939,0.06933 0.6638,0.14105 0.9825,0.14228 0.2715,0 0.7195,0 1.2114,0.08416 -0.0901,0.04735 -0.1564,0.11376 -0.2003,0.18662 -0.0474,0.07994 -0.0652,0.1618 -0.07,0.23167 -0.1007,0.0048 -0.1931,0.0249 -0.275,0.06042 -0.1505,0.06279 -0.2631,0.18016 -0.3247,0.31406 -0.0652,0.13451 -0.0877,0.28332 -0.0877,0.43735 0,0.22221 0.0485,0.46049 0.1173,0.6887 0.0616,0.20322 0.1399,0.39884 0.2205,0.56894 -0.0107,0.03966 -0.0155,0.0794 -0.0155,0.11852 0,0.09362 0.0237,0.18252 0.0581,0.26852 0.0605,0.1498 0.1565,0.2939 0.2655,0.4338 0.1647,0.2086 0.3591,0.403 0.5156,0.5482 0.0853,0.0801 0.1576,0.1434 0.2074,0.1855 0,0.0598 0,0.1487 0.0012,0.2649 0.0083,1.5449 0.0367,7.7433 0.0367,8.0147 0,0.0213 0.0011,0.0391 0.0035,0.0629 0.0096,0.0864 0.0309,0.2376 0.0652,0.4474 0.115,0.7319 0.3633,2.1429 0.6003,3.4419 0.1185,0.6484 0.2335,1.2683 0.3271,1.7596 0.0462,0.2453 0.089,0.4586 0.1221,0.6281 0.0344,0.1689 0.0616,0.2933 0.0795,0.3662 0.0059,0.0208 0.0154,0.0409 0.0272,0.0593 0.2785,0.387 0.5986,1.0437 0.8665,1.7655 0.2714,0.7236 0.493,1.5159 0.5878,2.1821 0.0973,0.6844 0.2099,1.443 0.3236,2.0901 0.0557,0.3248 0.1126,0.6211 0.1671,0.8688 0.057,0.2472 0.1079,0.4433 0.166,0.5814 0.0545,0.131 0.1469,0.3034 0.2654,0.5001 0.1778,0.2958 0.409,0.6436 0.6425,0.9583 0.1173,0.1571 0.2347,0.3046 0.3472,0.435 0.1126,0.1286 0.2182,0.2388 0.3176,0.3236 l 0.0013,6e-4 c 0.1067,0.0884 0.211,0.2139 0.2939,0.352 0.0154,0.0243 0.0296,0.0492 0.0438,0.0747 0.0878,0.1677 0.1411,0.3485 0.1399,0.4901 0,0.0859 -0.0166,0.1564 -0.0486,0.2109 -0.032,0.0563 -0.077,0.1008 -0.1565,0.1399 -0.2642,0.1233 -0.57,0.2241 -0.8664,0.2241 -0.1671,0 -0.3295,-0.0309 -0.4883,-0.1056 -0.1588,-0.0752 -0.3153,-0.1938 -0.4658,-0.3828 -0.1908,-0.2376 -0.3864,-0.4557 -0.5689,-0.6513 -0.1185,-0.128 -0.2311,-0.2447 -0.3319,-0.352 l -0.013,-0.0136 C 36.4019,39.864 36.2928,39.7455 36.2181,39.653 36.1801,39.6074 36.1529,39.5676 36.1352,39.5369 36.1257,39.5226 36.1198,39.5114 36.1163,39.5031 L 36.1127,39.496 v -0.0024 c -0.006,-0.0362 -0.0166,-0.0865 -0.032,-0.1511 -0.1019,-0.4622 -0.4006,-1.6576 -0.4006,-1.6576 l -0.0094,-0.0278 c 0,0 -0.4824,-1.1189 -1.0111,-2.3344 -0.528,-1.2167 -1.0994,-2.5299 -1.2759,-2.924 -0.1743,-0.387 -0.7905,-1.8235 -1.3809,-3.2108 -0.295,-0.6928 -0.5843,-1.375 -0.8106,-1.9072 -0.224,-0.5309 -0.3864,-0.9168 -0.4232,-1.0092 -0.0307,-0.0788 -0.1125,-0.1233 -0.1955,-0.1078 -0.0818,0.0154 -0.1422,0.0853 -0.1446,0.1683 0,0 -0.0664,3.5901 -0.0664,5.8676 0,0.4889 0.0036,0.9168 0.0107,1.238 0.0035,0.1606 0.0094,0.294 0.0154,0.3971 0.0035,0.0521 0.007,0.0954 0.0106,0.1316 0.0024,0.0189 0.0048,0.0356 0.0083,0.0515 0.0024,0.0166 0.0059,0.0327 0.0119,0.0528 0.0011,0.0048 0.0094,0.0391 0.0177,0.0853 0.0332,0.1784 0.0806,0.5559 0.1292,1.0158 0.0747,0.6892 0.1588,1.5692 0.2228,2.2928 0.032,0.3621 0.0604,0.6846 0.0782,0.9239 0.0107,0.1198 0.0179,0.2181 0.0238,0.2904 0.0024,0.0367 0.0048,0.0658 0.006,0.0872 0,0.0112 0.0011,0.0195 0.0011,0.0266 v 0.0095 c 0,0.0154 -0.0011,0.0634 -0.0035,0.1304 -0.0095,0.2216 -0.0356,0.6631 -0.0771,1.0803 -0.0011,0.0214 -0.0035,0.0428 -0.0059,0.0635 -0.0106,0.0996 -0.0225,0.1967 -0.0355,0.2886 -0.0154,0.1079 -0.0321,0.2086 -0.0486,0.2927 -0.0154,0.0801 -0.0332,0.1464 -0.0498,0.1926 -0.0071,0.0231 -0.0154,0.0409 -0.0201,0.0503 l -0.0012,0.0013 c -0.0094,0.0047 -0.0284,0.01 -0.0533,0.016 -0.057,0.0129 -0.1399,0.0236 -0.2407,0.0307 -0.1007,0.0071 -0.2181,0.0107 -0.346,0.0107 -0.6033,0 -1.4248,-0.0693 -1.8573,-0.1055 -0.1197,-0.0094 -0.2134,-0.0249 -0.2821,-0.0439 -0.0509,-0.0124 -0.0889,-0.0278 -0.1137,-0.0409 -0.0368,-0.0206 -0.0463,-0.0337 -0.0521,-0.0432 -0.0048,-0.0095 -0.0096,-0.0237 -0.0096,-0.0551 -0.0011,-0.0421 0.0119,-0.1114 0.0285,-0.1932 z M 26.5745,22.0058 c -0.0971,0.4623 -0.1955,0.9458 -0.2785,1.3584 v 0.0011 c -0.083,0.4142 -0.1481,0.7538 -0.179,0.9388 v 6e-4 c -0.0343,0.2056 -0.045,0.4273 -0.045,0.6477 0,0.1048 0.0036,0.2086 0.0071,0.3105 l -0.3734,-0.3917 0.1115,-3.791 0.621,-1.9806 0.4801,1.2487 c -0.0522,0.2501 -0.1944,0.9262 -0.3449,1.6582 z m 4.8454,16.9995 c 0.0048,-0.0978 0.0059,-0.1654 0.0059,-0.2033 0,-0.0118 0,-0.0283 -0.0012,-0.0473 -0.006,-0.1149 -0.032,-0.4386 -0.0699,-0.8795 v -6e-4 C 31.2978,37.215 31.2136,36.3047 31.1342,35.526 31.0939,35.136 31.056,34.7805 31.0205,34.5007 v 0.0019 c -0.0166,-0.1405 -0.0333,-0.2602 -0.0498,-0.3568 -0.0071,-0.0486 -0.0143,-0.0919 -0.0213,-0.1292 l -0.0012,-0.0024 v -0.0024 c -0.0071,-0.0308 -0.0143,-0.0587 -0.0226,-0.0889 -0.0011,-0.0066 -0.0024,-0.016 -0.0035,-0.0285 v 7e-4 c -0.0095,-0.0967 -0.019,-0.3206 -0.0238,-0.6128 v -5e-4 c -0.0058,-0.2958 -0.0082,-0.6667 -0.0082,-1.0823 0,-1.1342 0.0166,-2.5993 0.0344,-3.7791 0.0023,-0.1404 0.0035,-0.2762 0.0059,-0.4071 0.3093,0.73 0.6851,1.6119 1.0276,2.4149 0.4314,1.0087 0.8107,1.8869 0.9458,2.1874 0.1731,0.3846 0.7455,1.7014 1.2717,2.9163 0.2638,0.6086 0.5175,1.1912 0.7035,1.6232 v 6e-4 c 0.0936,0.2157 0.1706,0.3929 0.2228,0.5156 l 0.0012,0.0012 v 6e-4 c 0.0355,0.0823 0.0604,0.1393 0.0723,0.1677 0.0107,0.0427 0.0297,0.1162 0.0545,0.2181 0.0557,0.2246 0.1399,0.5683 0.2157,0.8759 l -0.0012,-0.0012 c 0.0368,0.1553 0.0723,0.3011 0.0984,0.4167 0.0131,0.0575 0.0249,0.109 0.0332,0.1492 0.0095,0.0398 0.0155,0.0712 0.0155,0.0778 l 0.0012,0.0041 v 0.003 c 0.0166,0.0954 0.0569,0.1695 0.0901,0.2252 v 6e-4 l 0.0012,0.0018 c 0.0058,0.0083 0.0131,0.0166 0.0178,0.0255 h -4.3375 c 0.0142,-0.1665 0.0261,-0.3283 0.0356,-0.4728 v 6e-4 c 0.0094,-0.1407 0.0153,-0.264 0.0201,-0.36 z m 8.9942,3.7626 H 26.3459 v -2.4031 h 1.0513 c -0.0048,0.0137 -0.0083,0.0278 -0.0118,0.0433 -0.0154,0.0805 -0.0356,0.1654 -0.0356,0.2625 0,0.0623 0.0094,0.1328 0.0414,0.2016 0.0249,0.0515 0.0605,0.1 0.1067,0.1386 0.0675,0.0598 0.1529,0.0996 0.2548,0.1298 0.1031,0.0308 0.2252,0.0504 0.3769,0.0634 0.4338,0.0362 1.2587,0.1067 1.8869,0.1067 0.1956,0 0.3734,-0.0071 0.5179,-0.0243 0.0735,-0.0095 0.1387,-0.0214 0.1991,-0.0391 0.0297,-0.0095 0.0581,-0.0196 0.0866,-0.0338 0.0296,-0.0143 0.0568,-0.0326 0.0853,-0.0599 0.0356,-0.0349 0.0533,-0.0699 0.0711,-0.1054 0.032,-0.067 0.0546,-0.1417 0.0759,-0.2288 0.0296,-0.1286 0.0557,-0.2857 0.0782,-0.4545 h 5.2619 c 0.2383,0.2506 0.5156,0.5434 0.7776,0.8717 0.1789,0.224 0.3816,0.3828 0.5914,0.4812 0.211,0.0984 0.4279,0.1381 0.6377,0.1381 0.3745,-0.0012 0.7253,-0.1232 1.0146,-0.2566 0.1398,-0.0646 0.2476,-0.1654 0.314,-0.285 0.0677,-0.1198 0.0937,-0.252 0.0937,-0.3846 0,-0.1897 -0.0534,-0.3829 -0.1363,-0.5648 h 0.7289 z"
     fill="#acacac"
     id="path9" />
  <path
     d="m 32.3115,8.88562 c 0,0 0,7.3e-4 -0.0015,7.3e-4 v 0.00138 z"
     fill="#acacac"
     id="path10" />
</svg>
