<?xml version="1.0" encoding="UTF-8" standalone="no"?>
<svg
   width="62"
   height="56"
   viewBox="0 0 62 56"
   fill="none"
   version="1.1"
   id="svg8"
   sodipodi:docname="set_indicator.svg"
   inkscape:version="1.3-beta (cedbd6c6ff, 2023-05-28)"
   xmlns:inkscape="http://www.inkscape.org/namespaces/inkscape"
   xmlns:sodipodi="http://sodipodi.sourceforge.net/DTD/sodipodi-0.dtd"
   xmlns="http://www.w3.org/2000/svg"
   xmlns:svg="http://www.w3.org/2000/svg">
  <defs
     id="defs8" />
  <sodipodi:namedview
     id="namedview8"
     pagecolor="#505050"
     bordercolor="#ffffff"
     borderopacity="1"
     inkscape:showpageshadow="0"
     inkscape:pageopacity="0"
     inkscape:pagecheckerboard="1"
     inkscape:deskcolor="#505050"
     inkscape:zoom="10.443548"
     inkscape:cx="66.691892"
     inkscape:cy="17.091892"
     inkscape:window-width="2560"
     inkscape:window-height="1351"
     inkscape:window-x="-9"
     inkscape:window-y="-9"
     inkscape:window-maximized="1"
     inkscape:current-layer="svg8" />
  <path
     d="m 11.3447,50.8 c 0.8213,0.3093 1.7067,0.464 2.656,0.464 0.9493,0 1.6213,-0.1387 2.016,-0.416 0.3947,-0.288 0.592,-0.816 0.592,-1.584 0,-0.4053 -0.128,-0.7413 -0.384,-1.008 -0.2453,-0.2347 -0.4693,-0.4053 -0.672,-0.512 l -0.576,-0.288 c -0.1813,-0.0853 -0.4053,-0.1867 -0.672,-0.304 -0.256,-0.1173 -0.48,-0.2187 -0.672,-0.304 -0.192,-0.096 -0.4533,-0.2293 -0.784,-0.4 -0.3307,-0.1813 -0.5653,-0.3307 -0.704,-0.448 -0.1387,-0.128 -0.2933,-0.2827 -0.464,-0.464 -0.2987,-0.3307 -0.448,-0.7573 -0.448,-1.28 0,-0.8853 0.304,-1.5733 0.912,-2.064 0.608,-0.5013 1.392,-0.752 2.352,-0.752 0.96,0 1.8507,0.1333 2.672,0.4 l -0.208,0.8 c -0.6613,-0.2133 -1.424,-0.32 -2.288,-0.32 -0.8533,0 -1.456,0.1387 -1.808,0.416 -0.352,0.2667 -0.528,0.7307 -0.528,1.392 0,0.4907 0.2507,0.896 0.752,1.216 0.4053,0.256 1.0293,0.5707 1.872,0.944 0.8427,0.3627 1.4133,0.6453 1.712,0.848 0.7573,0.512 1.1413,1.2053 1.152,2.08 0,1.952 -1.264,2.928 -3.792,2.928 -1.056,0 -2.0427,-0.1547 -2.96,-0.464 z m 11.4987,-6.816 c 1.2374,0 2.064,0.3893 2.48,1.168 0.2027,0.384 0.3414,0.7947 0.416,1.232 0.0747,0.4267 0.112,0.9813 0.112,1.664 0,0.672 -0.0906,1.2853 -0.272,1.84 -0.1813,0.544 -0.3946,0.9547 -0.64,1.232 -0.2453,0.2773 -0.528,0.5013 -0.848,0.672 -0.4586,0.2453 -0.9013,0.368 -1.328,0.368 -0.416,0 -1.0666,-0.1867 -1.952,-0.56 v 3.616 h -0.992 V 46.16 l -0.272,-1.936 h 0.656 l 0.048,0.048 0.288,0.816 c 0.6934,-0.736 1.4614,-1.104 2.304,-1.104 z m -2.032,6.928 c 0.576,0.2027 1.136,0.304 1.68,0.304 0.5547,0 0.9654,-0.064 1.232,-0.192 0.2774,-0.1387 0.48,-0.288 0.608,-0.448 0.1387,-0.1707 0.24,-0.4213 0.304,-0.752 0.0747,-0.3307 0.112,-0.592 0.112,-0.784 0.0107,-0.192 0.016,-0.5173 0.016,-0.976 0,-0.4693 -0.0106,-0.8427 -0.032,-1.12 -0.0106,-0.288 -0.048,-0.5813 -0.112,-0.88 -0.0533,-0.3093 -0.144,-0.528 -0.272,-0.656 -0.32,-0.32 -0.7946,-0.48 -1.424,-0.48 -0.896,0 -1.6,0.2933 -2.112,0.88 z m 11.4992,-5.744 c -0.16,-0.0747 -0.3574,-0.1387 -0.592,-0.192 -0.224,-0.0533 -0.5387,-0.08 -0.944,-0.08 -0.4054,0 -0.7627,0.0693 -1.072,0.208 -0.2987,0.128 -0.5227,0.352 -0.672,0.672 -0.1387,0.3093 -0.2294,0.6293 -0.272,0.96 -0.0427,0.32 -0.064,0.7627 -0.064,1.328 0,1.2053 0.1333,2.0373 0.4,2.496 0.2773,0.4587 0.88,0.688 1.808,0.688 0.5013,0 0.9066,-0.064 1.216,-0.192 0.3093,-0.128 0.5386,-0.3413 0.688,-0.64 0.1493,-0.3093 0.2453,-0.6293 0.288,-0.96 0.0426,-0.3413 0.064,-0.7413 0.064,-1.2 0,-0.4693 -0.0054,-0.8 -0.016,-0.992 0,-0.2027 -0.016,-0.432 -0.048,-0.688 -0.032,-0.2667 -0.08,-0.4693 -0.144,-0.608 -0.0534,-0.1387 -0.1334,-0.288 -0.24,-0.448 -0.1067,-0.16 -0.24,-0.2773 -0.4,-0.352 z M 30.9506,44 c 0.832,0 1.4773,0.112 1.936,0.336 0.4586,0.2133 0.8,0.6133 1.024,1.2 0.224,0.5867 0.336,1.344 0.336,2.272 0,0.928 -0.1014,1.6693 -0.304,2.224 -0.192,0.5547 -0.4534,0.9813 -0.784,1.28 -0.64,0.576 -1.3867,0.864 -2.24,0.864 -1.248,0 -2.112,-0.2933 -2.592,-0.88 -0.48,-0.5867 -0.72,-1.6587 -0.72,-3.216 0,-0.7467 0.1013,-1.3973 0.304,-1.952 0.2026,-0.5547 0.4746,-0.976 0.816,-1.264 C 29.3879,44.288 30.1292,44 30.9506,44 Z m 8.7258,0 c 0.2134,0 0.448,0.032 0.704,0.096 l -0.384,0.944 c -0.1706,-0.032 -0.3413,-0.048 -0.512,-0.048 -0.672,0 -1.3546,0.3733 -2.048,1.12 V 52 h -0.992 v -5.824 l -0.272,-1.952 h 0.608 l 0.048,0.032 0.304,1.136 c 0.4694,-0.4587 0.896,-0.8053 1.28,-1.04 C 38.7964,44.1173 39.2178,44 39.6764,44 Z m 2.3332,0.96 c 0,-0.0533 -0.0267,-0.08 -0.08,-0.08 h -0.64 v -0.464 l 0.736,-0.304 0.176,-1.408 h 0.816 v 1.28 c 0.032,0.0747 0.2506,0.112 0.656,0.112 h 0.944 l -0.128,0.752 -1.344,0.016 c -0.096,0 -0.144,0.0213 -0.144,0.064 v 5.056 l 0.416,2.08 h -0.704 l -0.064,-0.048 -0.64,-2.032 z m 3.9422,5.952 c 0.6613,0.256 1.28,0.384 1.856,0.384 0.576,0 1.0667,-0.1173 1.472,-0.352 0.416,-0.2453 0.624,-0.5653 0.624,-0.96 0,-0.3947 -0.1387,-0.7093 -0.416,-0.944 -0.2773,-0.2453 -0.6133,-0.4427 -1.008,-0.592 -0.3947,-0.1493 -0.7893,-0.304 -1.184,-0.464 -0.384,-0.1707 -0.7147,-0.4053 -0.992,-0.704 -0.2773,-0.3093 -0.416,-0.688 -0.416,-1.136 0,-0.704 0.2453,-1.2427 0.736,-1.616 0.4907,-0.384 1.104,-0.576 1.84,-0.576 0.7467,0 1.4613,0.1227 2.144,0.368 l -0.208,0.736 c -0.5333,-0.1813 -1.136,-0.272 -1.808,-0.272 -1.1093,0 -1.664,0.432 -1.664,1.296 0,0.5547 0.48,1.0133 1.44,1.376 0.4053,0.1493 0.8053,0.3147 1.2,0.496 0.4053,0.1707 0.7467,0.4213 1.024,0.752 0.288,0.3307 0.432,0.7307 0.432,1.2 0,0.7147 -0.3093,1.264 -0.928,1.648 -0.6187,0.384 -1.3333,0.576 -2.144,0.576 -0.8107,0 -1.5573,-0.144 -2.24,-0.432 z"
     fill="#acacac"
     id="path1" />
  <path
     d="M 31.4772,30.0376 16.8579,17.62927 16,18.6406 l 14.621,12.4101 0.002,0.0017 c 1.662,1.3985 3.7715,2.1682 5.944,2.1686 h 9.3704 V 31.8945 H 36.567 c -1.8585,10e-5 -3.6684,-0.6596 -5.0898,-1.8569 z"
     fill="#696969"
     id="path2" />
  <path
     d="m 27.9176,25.3089 3.282,2.7619 c -0.1213,-0.6101 -0.388,-1.2623 -0.915,-1.864 -0.4083,-0.4668 -1.2849,-1.4298 -2.3393,-2.6094 -0.0275,0.5696 -0.0385,1.1453 -0.0277,1.7115 z"
     fill="#696969"
     id="path3" />
  <path
     d="m 24.2675,17.66315 c -0.5694,-0.50766 -1.0755,-0.97746 -1.4939,-1.39594 0.4056,0.62719 0.7812,1.19678 1.3407,1.90399 0.0492,-0.1674 0.1004,-0.3366 0.1532,-0.50805 z"
     fill="#696969"
     id="path4" />
  <path
     d="m 27.4205,20.356 c -0.8529,-0.7094 -1.6678,-1.3954 -2.4055,-2.0358 -0.0523,0.2422 -0.1046,0.4905 -0.1547,0.7458 0.5773,0.6628 1.3208,1.4575 2.3335,2.478 0.0671,-0.385 0.1421,-0.7819 0.2267,-1.188 z"
     fill="#696969"
     id="path5" />
  <path
     d="m 35.3656,30.4555 c -0.0218,-1.0662 -0.2578,-3.7059 -1.9897,-5.1682 -1.6354,-1.381 -3.4719,-2.8766 -5.2038,-4.3085 -0.0534,0.4439 -0.1026,0.9133 -0.1441,1.3967 0.1135,0.1125 0.2278,0.2251 0.3474,0.342 2.3463,2.3 4.1731,4.1068 4.3832,6.6344 0.7809,0.5547 1.6706,0.9296 2.607,1.1036 z"
     fill="#696969"
     id="path6" />
  <path
     d="m 24.3905,22.3404 2.4103,2.0284 c 0.0554,-0.5293 0.1292,-1.1371 0.2277,-1.8016 -0.7584,-0.8575 -1.56,-1.7769 -2.3199,-2.6771 -0.1377,0.7964 -0.2519,1.6284 -0.3181,2.4503 z"
     fill="#696969"
     id="path7" />
  <path
     d="m 23.9027,18.9228 c -1.1854,-1.44473 -2.1691,-2.75138 -2.558,-3.54339 l 0.3269,-0.39158 c -6e-4,-4.7e-4 -0.0013,-0.0014 -0.0013,-0.0014 l 0.3912,-0.48434 c 0,0 1.0232,0.98098 2.489,2.28809 0.2351,-0.69357 0.5008,-1.4025 0.8016,-2.10791 l 0.5567,0.21012 c 0,0 -0.3255,1.01701 -0.681,2.49639 0.7414,0.64967 1.5602,1.34927 2.3994,2.03317 0.1574,-0.6676 0.3392,-1.3501 0.5503,-2.03358 l 0.5479,0.14549 c 0,0 -0.2119,0.99149 -0.4193,2.43359 0.8997,0.7133 1.8033,1.3875 2.6398,1.9413 3.5751,2.369 6.0218,4.847 6.2775,8.6593 1.2154,0 3.9205,0 6.3931,0 3.3155,0 2.8182,-3.3152 0.663,-3.8123 -1.4536,-0.3358 -3.3214,-1.1072 -3.3214,-1.1072 -0.7368,-0.2457 -1.3398,-0.7846 -1.6664,-1.4895 0,0 -0.0804,-0.17 -0.2155,-0.4584 l -2.7072,0.8188 c -0.2958,0.0892 -0.6081,-0.0782 -0.6975,-0.3736 -0.0895,-0.2958 0.0778,-0.6083 0.3735,-0.6975 L 38.5954,22.677 C 38.376,22.2103 38.1216,21.6671 37.8535,21.0939 l -2.5296,0.7652 C 35.0286,21.9483 34.7158,21.7813 34.6264,21.4855 34.537,21.1897 34.7044,20.8777 35,20.788 l 2.3748,-0.7182 C 37.1221,19.5275 36.8705,18.9873 36.638,18.4854 l -2.3591,0.7133 c -0.2955,0.0897 -0.608,-0.0777 -0.6975,-0.3736 -0.0892,-0.2953 0.0778,-0.6078 0.3734,-0.697 l 2.2098,-0.66849 c -0.3166,-0.68965 -0.5469,-1.2003 -0.6078,-1.35856 -0.2664,-0.69176 -0.8503,-2.60936 -2.1829,-1.54266 -2.1907,1.75325 -6.1872,1.23856 -7.219,-0.67816 -0.7735,-1.43672 -0.3316,-2.98383 0,-4.19954 0.2648,-0.971775 -1.1056,-2.486777 -2.1002,-1.16074 -0.7032,0.9375 -6.6311,7.95739 -6.6311,7.95739 l 5.8861,4.95336 c 0.1451,-0.7165 0.3394,-1.5731 0.593,-2.5079 z"
     fill="#696969"
     id="path8" />
</svg>
