<?xml version="1.0" encoding="UTF-8" standalone="no"?>
<svg
   width="206.3"
   height="40"
   viewBox="-2 0 206.3 40"
   fill="none"
   version="1.1"
   id="svg26"
   sodipodi:docname="collections.svg"
   inkscape:version="1.3-beta (cedbd6c6ff, 2023-05-28)"
   xmlns:inkscape="http://www.inkscape.org/namespaces/inkscape"
   xmlns:sodipodi="http://sodipodi.sourceforge.net/DTD/sodipodi-0.dtd"
   xmlns="http://www.w3.org/2000/svg"
   xmlns:svg="http://www.w3.org/2000/svg">
  <defs
     id="defs26" />
  <sodipodi:namedview
     id="namedview26"
     pagecolor="#505050"
     bordercolor="#ffffff"
     borderopacity="1"
     inkscape:showpageshadow="0"
     inkscape:pageopacity="0"
     inkscape:pagecheckerboard="1"
     inkscape:deskcolor="#505050"
     inkscape:zoom="6.1666667"
     inkscape:cx="44.918919"
     inkscape:cy="23.108108"
     inkscape:window-width="2560"
     inkscape:window-height="1351"
     inkscape:window-x="-9"
     inkscape:window-y="-9"
     inkscape:window-maximized="1"
     inkscape:current-layer="svg26" />
  <path
     d="m 183.513,13.28 c 1.088,-0.112 1.992,-0.168 2.712,-0.168 0.736,0 1.28,0.04 1.632,0.12 0.352,0.064 0.728,0.168 1.128,0.312 0.4,0.128 0.72,0.312 0.96,0.552 0.256,0.24 0.488,0.536 0.696,0.888 0.416,0.64 0.624,1.616 0.624,2.928 0,1.152 -0.256,2.016 -0.768,2.592 -0.288,0.32 -0.528,0.552 -0.72,0.696 -0.176,0.144 -0.4,0.304 -0.672,0.48 -0.272,0.16 -0.528,0.312 -0.768,0.456 -0.24,0.144 -0.4,0.248 -0.48,0.312 -0.08,0.048 -0.2,0.128 -0.36,0.24 -0.144,0.112 -0.248,0.216 -0.312,0.312 -0.048,0.08 -0.112,0.192 -0.192,0.336 -0.096,0.192 -0.144,0.536 -0.144,1.032 l -0.048,1.536 h -1.344 c -0.032,-0.512 -0.048,-1.12 -0.048,-1.824 0,-0.72 0.144,-1.296 0.432,-1.728 0.304,-0.432 0.664,-0.776 1.08,-1.032 0.416,-0.256 0.832,-0.512 1.248,-0.768 1.008,-0.624 1.512,-1.488 1.512,-2.592 0,-0.992 -0.168,-1.72 -0.504,-2.184 -0.176,-0.24 -0.36,-0.448 -0.552,-0.624 -0.176,-0.192 -0.416,-0.328 -0.72,-0.408 -0.672,-0.208 -1.352,-0.312 -2.04,-0.312 -0.672,0 -1.344,0.048 -2.016,0.144 -0.144,-0.704 -0.256,-1.136 -0.336,-1.296 z m 3.456,16.176 h -1.728 V 27.68 h 1.728 z"
     fill="#e4e4e4"
     fill-opacity="0.5"
     id="path1" />
  <path
     d="m 144.479,4.31247 c 0.152,0 0.274,-0.12267 0.274,-0.27379 0,-0.15172 -0.122,-0.2744 -0.274,-0.2744 -0.152,0 -0.274,0.12268 -0.274,0.2744 0,0.15119 0.122,0.27379 0.274,0.27379 z"
     fill="#acacac"
     id="path2" />
  <path
     d="m 144.168,13.1605 1.593,0.3407 0.073,-0.3443 -1.502,-0.3212 v -1.734 h -0.351 v 1.7519 l -1.524,0.5445 0.117,0.3307 z"
     fill="#acacac"
     id="path3" />
  <path
     d="m 143.577,28.2239 -0.248,-0.2483 c -0.045,0.0456 -0.117,0.0835 -0.212,0.1078 -0.094,0.0238 -0.206,0.0345 -0.319,0.0345 -0.15,0 -0.302,-0.0178 -0.411,-0.0356 -0.057,-0.0094 -0.103,-0.0183 -0.134,-0.0255 -0.015,-0.0024 -0.027,-0.006 -0.036,-0.007 l -0.009,-0.0024 -0.003,-0.0013 -0.084,0.3426 c 0.007,0.0012 0.323,0.0806 0.677,0.0806 0.133,0 0.273,-0.0107 0.408,-0.0457 0.134,-0.0349 0.265,-0.0936 0.371,-0.1997 z"
     fill="#acacac"
     id="path4" />
  <path
     d="m 148.075,27.364 c 0.285,-0.0598 0.644,-0.1488 0.953,-0.2732 l -0.131,-0.3259 c -0.276,0.1102 -0.621,0.1968 -0.893,0.2542 -0.138,0.0296 -0.256,0.0503 -0.34,0.0646 -0.042,0.0071 -0.075,0.0131 -0.099,0.0166 -0.012,0.0024 -0.02,0.0036 -0.026,0.0036 l -0.008,0.0011 0.049,0.3479 c 0.003,0 0.212,-0.0291 0.495,-0.0889 z"
     fill="#acacac"
     id="path5" />
  <path
     d="m 146.525,1.15686 v 7.8e-4 c 0,0 0,0 0.001,0 z"
     fill="#acacac"
     id="path6" />
  <path
     d="m 153.366,35.5601 v 9e-4 c 10e-4,0 10e-4,0 10e-4,0 z"
     fill="#acacac"
     id="path7" />
  <path
     d="m 153.368,35.5612 h -0.001 l 0.001,10e-4 z"
     fill="#acacac"
     id="path8" />
  <path
     d="m 154.88,35.899 c -0.079,-0.0782 -0.18,-0.1197 -0.29,-0.1203 h -1.008 c -0.066,-0.0782 -0.136,-0.1529 -0.216,-0.2181 -0.039,-0.0332 -0.093,-0.0853 -0.154,-0.1499 -0.06,-0.0653 -0.128,-0.1429 -0.198,-0.2282 v 6e-4 c -0.211,-0.2603 -0.448,-0.5915 -0.644,-0.8967 v 6e-4 c -0.098,-0.1511 -0.187,-0.298 -0.26,-0.4236 v -7e-4 c -0.07,-0.1239 -0.125,-0.2329 -0.151,-0.2933 v -0.0012 c -0.014,-0.0332 -0.035,-0.0984 -0.059,-0.1813 -0.023,-0.083 -0.048,-0.186 -0.074,-0.3011 v -6e-4 c -0.158,-0.7022 -0.337,-1.8917 -0.484,-2.9139 -0.104,-0.7248 -0.336,-1.5468 -0.616,-2.303 v -5e-4 c -0.271,-0.7177 -0.58,-1.3702 -0.892,-1.8289 -0.019,-0.0799 -0.045,-0.2062 -0.076,-0.3656 l -0.001,-0.0013 c -0.15,-0.7538 -0.424,-2.2378 -0.66,-3.5635 -0.117,-0.6631 -0.225,-1.2878 -0.303,-1.7619 v -6e-4 c -0.041,-0.234 -0.071,-0.4332 -0.094,-0.5795 v -6e-4 c -0.011,-0.0753 -0.02,-0.1358 -0.024,-0.1713 V 19.588 l -10e-4,-0.0065 c -0.002,-0.0171 -0.005,-0.0308 -0.005,-0.0361 l -10e-4,-0.0071 c 0,-0.2678 -0.021,-4.7724 -0.032,-7.0563 0.008,0.0124 0.017,0.0243 0.026,0.0361 v 0.0012 c 0.215,0.2963 0.447,0.6146 0.663,0.9026 l 0.001,6e-4 c 0.217,0.2868 0.418,0.5428 0.579,0.7247 v 6e-4 c 0.229,0.2602 0.512,0.4599 0.809,0.598 0.299,0.1381 0.616,0.2163 0.927,0.2163 0.174,0 0.348,-0.0255 0.514,-0.0835 0.166,-0.0575 0.326,-0.15 0.459,-0.2839 0.34,-0.3426 0.52,-0.8303 0.521,-1.337 0,-0.4362 -0.139,-0.8972 -0.456,-1.2837 l -0.001,-5e-4 c -0.051,-0.0617 -0.129,-0.1714 -0.221,-0.3094 l -0.001,-0.0018 0.001,0.0023 c -0.318,-0.4859 -0.797,-1.3192 -1.296,-2.12394 -0.249,-0.40123 -0.505,-0.79769 -0.756,-1.14619 l -0.002,-0.00238 c -0.25,-0.34965 -0.492,-0.65126 -0.733,-0.87471 l 0.004,0.00416 -0.005,-0.00531 C 149.122,7.01608 148.45,6.7808 147.854,6.66405 147.269,6.55029 146.74,6.54968 146.44,6.54968 h -0.017 c -0.114,0 -0.26,-0.01484 -0.409,-0.03851 -0.15,-0.02375 -0.304,-0.05511 -0.439,-0.0877 h -10e-4 c -0.036,-0.0083 -0.07,-0.01722 -0.105,-0.02552 0.127,-0.01545 0.249,-0.05634 0.355,-0.12921 h 10e-4 V 6.2682 c 0.001,0 0.001,-6.1e-4 0.003,-0.00123 h -0.002 c 0.07,-0.04735 0.135,-0.11083 0.183,-0.19077 0.001,-6.2e-4 0.001,-0.00123 0.001,-0.00123 0,0 0,-5.4e-4 0.001,-0.00115 h -0.001 c 0.051,-0.08417 0.081,-0.18133 0.081,-0.28624 V 5.03493 c 0.019,-0.00769 0.039,-0.01483 0.058,-0.0249 0.059,-0.03083 0.115,-0.07233 0.162,-0.12506 0.051,-0.05573 0.083,-0.11437 0.103,-0.17064 l 0.001,-0.00353 0.002,-0.003 c 0.02,-0.05865 0.027,-0.11314 0.027,-0.15941 -10e-4,-0.02721 -0.002,-0.05396 -0.008,-0.08886 l -0.003,-0.0083 -0.143,-0.82851 0.008,-0.0907 c 0.04,-0.01837 0.084,-0.04089 0.132,-0.07056 0,-6.1e-4 0,-6.1e-4 0,-6.1e-4 0.001,-6.2e-4 0.002,-6.2e-4 0.002,-6.2e-4 0.116,-0.07402 0.232,-0.18608 0.312,-0.34488 0.077,-0.15296 0.114,-0.33305 0.114,-0.53397 V 2.57192 c 0,-0.15703 -0.022,-0.33066 -0.063,-0.52859 0,-0.00945 0,-0.01783 0,-0.0249 0,-0.31583 -0.102,-0.61106 -0.27,-0.8611 C 146.276,0.782776 145.896,0.500764 145.463,0.305762 145.028,0.109684 144.531,0 144.022,0 c -0.243,0 -0.487,0.0261335 -0.727,0.0805527 -0.014,-6.149e-4 -0.031,-6.149e-4 -0.052,-6.149e-4 -0.693,0.0018448 -1.309,0.2767852 -1.759,0.6507252 l -0.007,0.00538 0.007,-0.004766 c -0.227,0.189084 -0.413,0.403533 -0.549,0.634733 l -0.001,0.00177 c -0.134,0.23167 -0.224,0.48539 -0.224,0.75326 0,0.04328 0.002,0.0877 0.008,0.13159 -0.095,0.12268 -0.169,0.25603 -0.22,0.39408 -0.081,0.21399 -0.114,0.43858 -0.114,0.66018 v 6.1e-4 c 0.002,0.57663 0.21,1.15564 0.474,1.65341 -0.002,0.02906 -0.004,0.05811 -0.004,0.08716 0,0.25542 0.093,0.47763 0.207,0.65365 0.173,0.26195 0.4,0.44804 0.582,0.57724 0.039,0.02844 0.075,0.05335 0.11,0.07587 v 0.93281 c -0.223,0.12736 -0.603,0.3455 -1.02,0.58847 v -6.2e-4 c -0.328,0.19085 -0.676,0.39831 -0.984,0.5867 -0.309,0.18847 -0.575,0.35857 -0.754,0.48954 l 0.006,-0.00476 -0.01,0.00645 c 10e-4,0 10e-4,0 10e-4,-6.1e-4 -0.347,0.25195 -0.667,0.54765 -0.902,0.96601 -0.234,0.41718 -0.376,0.93348 -0.438,1.61438 -0.058,0.6383 -0.204,2.0161 -0.344,3.2826 -0.069,0.6329 -0.137,1.2386 -0.191,1.712 -0.027,0.2359 -0.051,0.4386 -0.07,0.595 -0.017,0.1559 -0.032,0.2668 -0.038,0.31 l -10e-4,0.0012 v 6e-4 C 137.001,17.4956 137,17.5514 137,17.61 c 0,0.2133 0.024,0.5369 0.057,0.9316 v 6e-4 c 0.051,0.5908 0.127,1.3251 0.188,1.9527 v 5e-4 c 0.032,0.3124 0.061,0.6003 0.08,0.8268 l 0.001,0.0012 c 0.009,0.1126 0.018,0.2109 0.024,0.2886 v 7e-4 c 0.005,0.0746 0.007,0.1339 0.007,0.1569 0,0.2514 0.016,0.5583 0.111,0.8902 0.096,0.3336 0.276,0.6874 0.58,1.0246 l -0.004,-0.0035 0.004,0.0048 c 0.287,0.3165 0.73,0.7289 1.107,1.0702 0.189,0.1707 0.361,0.3224 0.487,0.4315 0.048,0.0427 0.088,0.077 0.121,0.1055 v 0.0017 l 0.083,0.0705 c 0.074,0.0623 0.167,0.0973 0.265,0.0973 0.017,0 0.033,-0.0012 0.048,-0.0024 l 0.569,-0.0676 c 0.007,0.1328 0.016,0.2821 0.025,0.4255 0.007,0.1215 0.013,0.2395 0.017,0.339 0.004,0.099 0.006,0.1814 0.006,0.2234 10e-4,0.0687 0.007,0.1422 0.017,0.2454 0.033,0.3555 0.114,1.0246 0.194,1.6552 0.08,0.6299 0.158,1.216 0.184,1.4009 v 0.0037 l 0.001,0.0029 c 0.006,0.0343 0.013,0.08 0.026,0.1386 v -6e-4 c 0.045,0.2098 0.137,0.5867 0.252,1.0531 0.17,0.6976 0.391,1.5888 0.568,2.3545 0.089,0.3817 0.168,0.7331 0.222,1.0093 v 0.0012 c 0.027,0.1358 0.049,0.2548 0.063,0.3473 0.007,0.0456 0.012,0.0859 0.015,0.1167 10e-4,0.016 0.003,0.0296 0.003,0.0397 -0.004,0.0095 -0.01,0.0225 -0.017,0.0374 -0.039,0.0734 -0.124,0.1955 -0.226,0.3223 l 0.001,-5e-4 c -0.157,0.1931 -0.354,0.4124 -0.523,0.6127 v -6e-4 l -0.002,0.0025 c 0.001,0 0.001,0 0.001,-6e-4 0,6e-4 -0.001,0.0011 -0.001,0.0011 -0.016,0.019 -0.031,0.0374 -0.046,0.0564 h -1.337 c -0.109,6e-4 -0.211,0.042 -0.291,0.1203 -0.077,0.0788 -0.118,0.1801 -0.119,0.2898 v 2.7551 c 0.001,0.1097 0.042,0.2104 0.119,0.2899 0.08,0.0782 0.182,0.1196 0.291,0.1202 h 14.419 c 0.11,0 0.214,-0.0438 0.29,-0.1202 0.076,-0.0765 0.12,-0.1802 0.12,-0.2899 v -2.7553 c 0,-0.1096 -0.042,-0.211 -0.12,-0.2898 z M 147.723,7.61646 c 0.012,-0.03144 0.023,-0.05511 0.069,-0.0824 0.045,-0.02659 0.13,-0.05572 0.28,-0.05572 0.1,0 0.228,0.01307 0.387,0.0445 0.259,0.0515 0.47,0.17248 0.65,0.33958 0.27,0.24889 0.466,0.60623 0.601,0.95772 0.134,0.35203 0.21,0.69339 0.252,0.90906 0.019,0.09601 0.112,0.15703 0.207,0.13813 0.097,-0.01899 0.157,-0.11146 0.138,-0.2063 -0.029,-0.1452 -0.072,-0.35142 -0.141,-0.58255 0.376,0.55587 0.765,1.20362 1.113,1.78372 0.195,0.3259 0.378,0.63 0.537,0.8854 0.161,0.2555 0.298,0.4623 0.41,0.5992 0.225,0.2732 0.324,0.5967 0.324,0.9109 10e-4,0.3656 -0.138,0.7111 -0.35,0.9233 -0.065,0.0634 -0.143,0.1114 -0.237,0.1446 -0.093,0.0326 -0.203,0.0504 -0.321,0.0504 -0.211,0 -0.452,-0.0552 -0.68,-0.1619 -0.23,-0.1055 -0.447,-0.2613 -0.617,-0.4552 -0.141,-0.1576 -0.338,-0.4089 -0.55,-0.6898 -0.32,-0.4236 -0.678,-0.9221 -0.955,-1.3132 -0.139,-0.1955 -0.258,-0.3651 -0.341,-0.4853 -0.084,-0.1197 -0.134,-0.1914 -0.134,-0.1914 l -0.006,-0.0071 -0.026,-0.0278 -0.002,-0.0012 -0.002,-0.0012 -0.01,-0.0071 c -0.055,-0.0469 -0.292,-0.246 -0.518,-0.4889 -0.121,-0.1298 -0.241,-0.2714 -0.324,-0.4042 -0.042,-0.0658 -0.074,-0.1279 -0.096,-0.18306 -0.022,-0.05519 -0.03,-0.10077 -0.03,-0.1322 0,-0.02491 0.004,-0.04028 0.01,-0.05273 0.025,-0.0492 0.025,-0.10792 0,-0.15703 -0.083,-0.16772 -0.167,-0.37156 -0.231,-0.57963 -0.061,-0.20623 -0.102,-0.41598 -0.102,-0.5867 0,-0.16003 0.035,-0.27855 0.089,-0.34604 0.029,-0.03558 0.062,-0.06103 0.109,-0.08178 0.049,-0.02014 0.113,-0.03436 0.202,-0.03436 0.011,0 0.022,0 0.035,0.00116 l 0.656,0.87355 c 0.058,0.07701 0.168,0.09362 0.246,0.03497 0.077,-0.05865 0.093,-0.16887 0.035,-0.24596 l -0.682,-0.90968 c -0.002,-0.01422 -0.006,-0.03551 -0.005,-0.05634 0,-0.02498 0.003,-0.04812 0.01,-0.06941 z M 141.545,5.37159 C 141.479,5.26491 141.44,5.15699 141.44,5.048 c 0,-0.03736 0.005,-0.07648 0.015,-0.11737 0.011,-0.04328 0.005,-0.09009 -0.019,-0.1286 -0.264,-0.46348 -0.467,-1.02643 -0.466,-1.49522 0,-0.16525 0.024,-0.31883 0.075,-0.45334 0.052,-0.13512 0.128,-0.25303 0.241,-0.35557 0.054,-0.05034 0.072,-0.12859 0.042,-0.19792 -0.02,-0.05273 -0.032,-0.11253 -0.032,-0.17894 -0.001,-0.13159 0.047,-0.29215 0.144,-0.45749 0.144,-0.24711 0.397,-0.50138 0.711,-0.688078 0.315,-0.187854 0.692,-0.309298 1.092,-0.309298 0.028,0 0.056,0.001153 0.085,0.001768 0.016,0 0.034,-6.15e-4 0.05,-0.004227 0.209,-0.052729 0.427,-0.077632 0.644,-0.077632 0.563,-0.001153 1.125,0.166486 1.533,0.434967 0.205,0.1339 0.37,0.29101 0.481,0.46111 0.113,0.16825 0.173,0.34788 0.173,0.53635 0,0.01545 0,0.03197 -0.001,0.04681 -0.001,0.0166 0,0.03205 0.005,0.04857 0.041,0.19078 0.059,0.34197 0.058,0.45811 0,0.12329 -0.019,0.20507 -0.042,0.26018 -0.017,0.04266 -0.038,0.06933 -0.061,0.09239 -0.035,0.03559 -0.08,0.06103 -0.137,0.08478 -0.048,0.02129 -0.103,0.03966 -0.163,0.06695 -0.083,0.01537 -0.163,0.02075 -0.235,0.02075 -0.232,0 -0.412,-0.06341 -0.565,-0.15941 C 144.84,2.7936 144.68,2.56731 144.581,2.37408 144.531,2.27631 144.496,2.18976 144.474,2.12811 144.463,2.09614 144.455,2.07124 144.45,2.05525 L 144.444,2.03634 V 2.03273 l -0.342,0.08478 c 0.003,0.01122 0.083,0.32828 0.31,0.65718 0.01,0.0166 0.022,0.03197 0.034,0.04796 -0.067,0.01783 -0.143,0.03075 -0.223,0.03075 h -0.004 c -0.103,0 -0.208,-0.02129 -0.31,-0.07702 -0.104,-0.05811 -0.208,-0.15173 -0.304,-0.31944 -0.041,-0.07402 -0.131,-0.10784 -0.211,-0.07825 -0.08,0.02782 -0.129,0.11022 -0.115,0.19439 0.007,0.04327 0.011,0.08355 0.011,0.11852 0,0.0741 -0.014,0.12867 -0.035,0.17248 -0.03,0.06403 -0.078,0.10907 -0.15,0.14527 -0.074,0.03375 -0.173,0.05511 -0.287,0.05511 -0.146,0 -0.314,-0.03382 -0.472,-0.09723 -0.071,-0.02844 -0.15,-0.0083 -0.199,0.04919 -0.05,0.0575 -0.057,0.13928 -0.018,0.20384 0.086,0.14159 0.153,0.27318 0.201,0.39055 0.046,0.11614 0.067,0.21814 0.067,0.29508 -0.001,0.08009 -0.017,0.13397 -0.058,0.18908 -0.041,0.05396 -0.115,0.11084 -0.242,0.1618 -0.049,0.0196 -0.087,0.06164 -0.103,0.11375 -0.015,0.05096 -0.006,0.10792 0.026,0.15119 0.138,0.19316 0.178,0.34666 0.178,0.46995 0,0.0877 -0.021,0.16418 -0.052,0.23343 -0.049,0.10315 -0.126,0.18847 -0.192,0.24719 -0.033,0.02906 -0.064,0.0515 -0.084,0.0658 l -0.024,0.01537 -0.003,0.00354 0.138,0.24358 C 141.927,5.76206 141.866,5.71579 141.808,5.66606 141.709,5.57905 141.613,5.4782 141.545,5.37159 Z m 0.185,31.10581 c 0,0 0.014,-0.0397 0.046,-0.0859 l 0.018,-0.0267 c 0.056,-0.08 0.141,-0.1855 0.238,-0.3005 0.015,-0.0159 0.029,-0.0338 0.044,-0.0515 0.156,-0.1802 0.334,-0.3822 0.487,-0.5742 0.083,-0.1067 0.158,-0.2098 0.219,-0.3094 0.059,-0.1007 0.106,-0.1944 0.123,-0.3022 0.002,-0.0225 0.003,-0.0427 0.003,-0.0633 0,-0.0492 -0.004,-0.1043 -0.014,-0.1714 -0.032,-0.2501 -0.115,-0.6555 -0.224,-1.1408 -0.165,-0.7265 -0.385,-1.6232 -0.569,-2.3734 -0.092,-0.3757 -0.175,-0.7141 -0.238,-0.9754 -0.031,-0.1316 -0.057,-0.2431 -0.076,-0.3295 -0.02,-0.086 -0.033,-0.1505 -0.037,-0.1737 -0.027,-0.2027 -0.125,-0.9417 -0.217,-1.6623 -0.043,-0.361 -0.087,-0.7183 -0.118,-1.0033 -0.017,-0.1423 -0.03,-0.2661 -0.039,-0.3621 -0.008,-0.0965 -0.013,-0.1695 -0.013,-0.1914 0,-0.08 -0.006,-0.2074 -0.013,-0.3574 -0.019,-0.3733 -0.051,-0.8806 -0.063,-1.046 0.025,-0.042 0.059,-0.1078 0.096,-0.1872 0.032,-0.0682 0.063,-0.1463 0.088,-0.23 0.025,-0.0847 0.042,-0.1725 0.042,-0.2661 0,-0.0562 -0.006,-0.1137 -0.026,-0.1712 -0.024,-0.0741 -0.072,-0.1488 -0.143,-0.2015 0.029,-0.067 0.041,-0.1393 0.04,-0.2086 0,-0.1054 -0.023,-0.2121 -0.06,-0.326 -0.11,-0.333 -0.342,-0.7396 -0.633,-1.2072 -0.021,-0.141 -0.093,-0.7016 -0.092,-1.2267 0,-0.2027 0.011,-0.3994 0.038,-0.56 0.028,-0.1713 0.095,-0.5127 0.177,-0.9239 0.123,-0.6164 0.284,-1.3963 0.413,-2.0198 0.066,-0.3117 0.123,-0.5867 0.164,-0.7811 0.04,-0.1955 0.065,-0.3129 0.065,-0.3129 0.007,-0.0343 0.004,-0.0675 -0.008,-0.0996 l -0.879,-2.2863 c -0.027,-0.0688 -0.095,-0.1144 -0.17,-0.1121 -0.075,0.0018 -0.14,0.0515 -0.161,0.1227 l -0.939,2.9892 c -0.005,0.0155 -0.008,0.032 -0.008,0.0486 l -0.118,3.9854 c -0.001,0.0468 0.017,0.0918 0.049,0.1256 l 1.162,1.2202 c 0.192,0.3083 0.358,0.5897 0.473,0.8256 0.058,0.1191 0.103,0.2269 0.133,0.3199 0.029,0.0913 0.043,0.1678 0.042,0.2182 0,0.0492 -0.01,0.0693 -0.018,0.0794 -0.007,0.0094 -0.019,0.0225 -0.065,0.0343 l -0.015,0.0018 c -0.021,0 -0.057,-0.0077 -0.107,-0.035 -0.087,-0.0456 -0.202,-0.1428 -0.313,-0.2636 -0.168,-0.1802 -0.337,-0.4102 -0.459,-0.5932 -0.061,-0.0914 -0.112,-0.1713 -0.147,-0.227 -0.017,-0.0296 -0.032,-0.0521 -0.041,-0.067 l -0.011,-0.0178 -0.002,-0.0059 c -0.049,-0.083 -0.157,-0.1115 -0.242,-0.0634 -0.083,0.0498 -0.111,0.1576 -0.063,0.2418 0.003,0.0036 0.195,0.3319 0.451,0.6661 0.128,0.1671 0.272,0.336 0.424,0.4711 0.076,0.067 0.153,0.125 0.237,0.1701 0.083,0.0432 0.172,0.0747 0.273,0.0758 0.023,0 0.048,-0.0023 0.072,-0.007 0.044,0.0012 0.076,0.0083 0.096,0.0142 0.033,0.0131 0.037,0.0201 0.045,0.0302 0.006,0.0119 0.014,0.0367 0.014,0.0765 0.001,0.0444 -0.009,0.1043 -0.028,0.1665 -0.028,0.0936 -0.071,0.192 -0.109,0.2649 -0.009,0.0166 -0.017,0.032 -0.024,0.0457 l -0.832,0.0971 c -0.123,-0.1054 -0.429,-0.3727 -0.762,-0.6762 -0.336,-0.3058 -0.7,-0.6507 -0.921,-0.8984 -0.248,-0.2738 -0.379,-0.5405 -0.454,-0.7954 -0.074,-0.2559 -0.088,-0.5008 -0.088,-0.7283 0,-0.0658 -0.006,-0.1606 -0.016,-0.2886 -0.035,-0.4421 -0.12,-1.2529 -0.197,-2.0339 -0.038,-0.39 -0.074,-0.7734 -0.101,-1.097 -0.027,-0.3235 -0.044,-0.5909 -0.044,-0.7402 0,-0.0462 0.003,-0.083 0.004,-0.0948 0.016,-0.1078 0.057,-0.4462 0.11,-0.921 0.162,-1.4223 0.448,-4.0363 0.536,-5.0071 0.058,-0.6299 0.185,-1.0572 0.367,-1.3808 0.183,-0.32355 0.422,-0.5523 0.734,-0.77989 0.154,-0.11145 0.416,-0.27917 0.718,-0.46403 0.455,-0.27916 1.005,-0.6003 1.44,-0.85103 0.218,-0.12559 0.407,-0.23351 0.542,-0.31052 0.133,-0.07648 0.214,-0.12091 0.214,-0.12091 0.055,-0.03205 0.089,-0.09008 0.089,-0.15357 V 6.11947 c 0,-0.06702 -0.038,-0.12805 -0.097,-0.15703 l -10e-4,-0.00123 c -0.012,-0.00584 -0.091,-0.04796 -0.197,-0.11729 0.046,-0.02906 0.14,-0.09601 0.237,-0.20154 0.065,-0.07056 0.132,-0.15934 0.183,-0.26841 0.051,-0.10906 0.086,-0.23827 0.086,-0.38224 0,-0.15588 -0.041,-0.32597 -0.136,-0.50199 0.082,-0.0515 0.15,-0.11084 0.204,-0.18132 0.091,-0.11737 0.133,-0.26134 0.131,-0.40246 0,-0.14043 -0.036,-0.28086 -0.092,-0.42428 -0.011,-0.02552 -0.021,-0.05273 -0.034,-0.07948 0.066,0.00953 0.131,0.0143 0.195,0.0143 0.205,-0.00177 0.404,-0.04627 0.564,-0.1671 0.079,-0.05927 0.147,-0.13928 0.191,-0.23528 0.006,-0.01184 0.011,-0.02252 0.014,-0.03382 0.05,0.04089 0.1,0.07586 0.152,0.1043 0.162,0.09009 0.332,0.12029 0.48,0.12029 0.206,-0.00115 0.379,-0.05511 0.487,-0.09954 0.052,0.04566 0.112,0.08947 0.173,0.12921 0.202,0.12859 0.457,0.21568 0.754,0.21453 0.029,0 0.057,-0.00123 0.084,-0.00239 l -0.016,0.17364 c -0.002,0.01599 0,0.03144 0.002,0.04796 l 0.144,0.83205 c -0.03,0.0083 -0.085,0.01775 -0.166,0.0166 -0.048,0 -0.092,0.01829 -0.125,0.0515 -0.033,0.03259 -0.052,0.07824 -0.052,0.12452 v 1.08392 c -0.005,0.00354 -0.013,0.01192 -0.031,0.02014 -0.026,0.01191 -0.067,0.02314 -0.123,0.02252 -0.074,6.2e-4 -0.177,-0.01891 -0.3,-0.07525 -0.055,-0.0249 -0.117,-0.02014 -0.168,0.01307 -0.05,0.03144 -0.081,0.0877 -0.081,0.14758 v 0.78047 c 0,0.07763 0.049,0.14465 0.122,0.16771 0.004,0.00116 0.222,0.07056 0.517,0.14043 0.294,0.06933 0.664,0.14105 0.983,0.14228 0.271,0 0.719,0 1.211,0.08416 -0.09,0.04735 -0.157,0.11376 -0.2,0.18662 -0.048,0.07994 -0.066,0.1618 -0.07,0.23167 -0.101,0.00477 -0.194,0.0249 -0.275,0.06042 -0.151,0.06279 -0.263,0.18016 -0.325,0.31406 -0.065,0.13451 -0.088,0.28332 -0.088,0.43735 0,0.22221 0.049,0.46049 0.118,0.6887 0.061,0.20322 0.139,0.39884 0.22,0.56894 -0.011,0.03966 -0.015,0.0794 -0.015,0.11852 0,0.09362 0.023,0.18252 0.058,0.26852 0.06,0.1498 0.156,0.2939 0.265,0.4338 0.165,0.2086 0.359,0.403 0.516,0.5482 0.085,0.0801 0.157,0.1434 0.207,0.1855 0,0.0598 0,0.1487 0.001,0.2649 0.009,1.5449 0.037,7.7433 0.037,8.0147 0,0.0213 0.001,0.0391 0.004,0.0629 0.009,0.0864 0.03,0.2376 0.065,0.4474 0.115,0.7319 0.363,2.1429 0.6,3.4419 0.119,0.6484 0.234,1.2683 0.327,1.7596 0.046,0.2453 0.089,0.4586 0.122,0.6281 0.035,0.1689 0.062,0.2933 0.08,0.3662 0.006,0.0208 0.015,0.0409 0.027,0.0593 0.278,0.387 0.599,1.0437 0.866,1.7655 0.272,0.7236 0.493,1.5159 0.588,2.1821 0.097,0.6844 0.21,1.443 0.324,2.0901 0.055,0.3248 0.112,0.6211 0.167,0.8688 0.057,0.2472 0.108,0.4433 0.166,0.5814 0.054,0.131 0.147,0.3034 0.265,0.5001 0.178,0.2958 0.409,0.6436 0.643,0.9583 0.117,0.1571 0.235,0.3046 0.347,0.435 0.113,0.1286 0.218,0.2388 0.318,0.3236 l 0.001,6e-4 c 0.107,0.0884 0.211,0.214 0.294,0.352 0.015,0.0243 0.029,0.0492 0.044,0.0747 0.087,0.1677 0.141,0.3485 0.139,0.4901 0,0.0859 -0.016,0.1564 -0.048,0.2109 -0.032,0.0563 -0.077,0.1008 -0.157,0.1399 -0.264,0.1233 -0.57,0.2241 -0.866,0.2241 -0.167,0 -0.329,-0.0309 -0.488,-0.1056 -0.159,-0.0752 -0.316,-0.1938 -0.466,-0.3828 -0.191,-0.2376 -0.386,-0.4557 -0.569,-0.6513 -0.119,-0.128 -0.231,-0.2447 -0.332,-0.352 l -0.013,-0.0136 c -0.129,-0.1352 -0.238,-0.2537 -0.313,-0.3462 -0.038,-0.0456 -0.065,-0.0854 -0.083,-0.1161 -0.009,-0.0143 -0.015,-0.0255 -0.019,-0.0338 l -0.003,-0.0071 v -0.0024 c -0.006,-0.0362 -0.017,-0.0865 -0.032,-0.1511 -0.102,-0.4622 -0.401,-1.6576 -0.401,-1.6576 l -0.009,-0.0278 c 0,0 -0.483,-1.1189 -1.011,-2.3344 -0.528,-1.2167 -1.1,-2.5299 -1.276,-2.924 -0.175,-0.387 -0.791,-1.8235 -1.381,-3.2108 -0.295,-0.6928 -0.584,-1.375 -0.811,-1.9072 -0.224,-0.5309 -0.386,-0.9168 -0.423,-1.0092 -0.031,-0.0788 -0.112,-0.1233 -0.196,-0.1078 -0.081,0.0154 -0.142,0.0853 -0.144,0.1683 0,0 -0.066,3.5901 -0.066,5.8676 0,0.4889 0.003,0.9168 0.01,1.238 0.004,0.1606 0.01,0.294 0.016,0.3971 0.003,0.0521 0.007,0.0954 0.01,0.1316 0.003,0.0189 0.005,0.0356 0.008,0.0515 0.003,0.0166 0.006,0.0327 0.012,0.0528 0.002,0.0048 0.01,0.0391 0.018,0.0853 0.033,0.1784 0.081,0.5559 0.129,1.0158 0.075,0.6892 0.159,1.5692 0.223,2.2928 0.032,0.3621 0.061,0.6846 0.078,0.9239 0.011,0.1198 0.018,0.2181 0.024,0.2904 0.002,0.0367 0.005,0.0658 0.006,0.0872 0,0.0112 0.001,0.0195 0.001,0.0266 v 0.0095 c 0,0.0154 -0.001,0.0634 -0.003,0.1304 -0.01,0.2216 -0.036,0.6631 -0.077,1.0803 -0.002,0.0214 -0.004,0.0428 -0.006,0.0635 -0.011,0.0996 -0.023,0.1967 -0.036,0.2886 -0.015,0.1079 -0.032,0.2086 -0.048,0.2927 -0.016,0.0801 -0.034,0.1464 -0.05,0.1926 -0.007,0.0231 -0.016,0.0409 -0.02,0.0503 l -10e-4,0.0013 c -0.01,0.0047 -0.029,0.01 -0.054,0.016 -0.057,0.0129 -0.14,0.0236 -0.24,0.0307 -0.101,0.0071 -0.219,0.0107 -0.347,0.0107 -0.603,0 -1.424,-0.0693 -1.857,-0.1055 -0.12,-0.0094 -0.213,-0.0249 -0.282,-0.0439 -0.051,-0.0124 -0.089,-0.0278 -0.114,-0.0409 -0.036,-0.0206 -0.046,-0.0337 -0.052,-0.0432 -0.005,-0.0095 -0.009,-0.0237 -0.009,-0.0551 -0.001,-0.0421 0.012,-0.1114 0.028,-0.1932 z m -1.155,-18.4716 c -0.098,0.4623 -0.196,0.9458 -0.279,1.3584 v 0.0011 c -0.083,0.4142 -0.148,0.7538 -0.179,0.9388 v 6e-4 c -0.034,0.2056 -0.045,0.4273 -0.045,0.6477 0,0.1048 0.004,0.2086 0.007,0.3105 l -0.373,-0.3917 0.111,-3.791 0.621,-1.9806 0.48,1.2487 c -0.052,0.2501 -0.194,0.9262 -0.345,1.6582 z m 4.845,16.9995 c 0.005,-0.0978 0.006,-0.1654 0.006,-0.2033 0,-0.0118 0,-0.0284 -10e-4,-0.0473 -0.006,-0.1149 -0.032,-0.4386 -0.07,-0.8795 v -6e-4 c -0.057,-0.6596 -0.141,-1.5699 -0.221,-2.3486 -0.04,-0.39 -0.078,-0.7455 -0.114,-1.0253 v 0.0019 c -0.016,-0.1405 -0.033,-0.2602 -0.049,-0.3568 -0.007,-0.0486 -0.015,-0.0919 -0.022,-0.1292 l -0.001,-0.0024 v -0.0024 c -0.007,-0.0308 -0.014,-0.0587 -0.022,-0.0889 -0.002,-0.0066 -0.003,-0.016 -0.004,-0.0285 v 7e-4 c -0.009,-0.0967 -0.019,-0.3206 -0.024,-0.6128 v -5e-4 c -0.006,-0.2958 -0.008,-0.6667 -0.008,-1.0823 0,-1.1342 0.017,-2.5993 0.034,-3.7791 0.003,-0.1404 0.004,-0.2762 0.006,-0.4072 0.31,0.7301 0.685,1.612 1.028,2.415 0.431,1.0087 0.811,1.8869 0.946,2.1874 0.173,0.3846 0.745,1.7014 1.272,2.9163 0.263,0.6086 0.517,1.1912 0.703,1.6232 v 6e-4 c 0.094,0.2157 0.171,0.3929 0.223,0.5156 l 0.001,0.0012 v 6e-4 c 0.035,0.0823 0.06,0.1393 0.072,0.1677 0.011,0.0427 0.03,0.1162 0.055,0.2181 0.056,0.2246 0.14,0.5683 0.216,0.8759 l -0.002,-0.0012 c 0.037,0.1553 0.073,0.3011 0.099,0.4167 0.013,0.0575 0.025,0.109 0.033,0.1492 0.009,0.0398 0.015,0.0712 0.015,0.0778 l 0.002,0.0041 v 0.003 c 0.016,0.0954 0.056,0.1695 0.09,0.2252 v 6e-4 l 0.001,0.0018 c 0.006,0.0083 0.013,0.0166 0.018,0.0255 h -4.338 c 0.014,-0.1665 0.026,-0.3283 0.036,-0.4728 v 6e-4 c 0.009,-0.1407 0.015,-0.264 0.02,-0.36 z m 8.994,3.7626 h -14.068 v -2.4031 h 1.051 c -0.005,0.0137 -0.008,0.0278 -0.012,0.0433 -0.015,0.0805 -0.035,0.1654 -0.035,0.2625 0,0.0623 0.009,0.1328 0.041,0.2016 0.025,0.0515 0.061,0.1 0.107,0.1386 0.067,0.0598 0.153,0.0996 0.255,0.1298 0.103,0.0308 0.225,0.0504 0.377,0.0634 0.433,0.0362 1.258,0.1067 1.887,0.1067 0.195,0 0.373,-0.0071 0.517,-0.0243 0.074,-0.0095 0.139,-0.0214 0.2,-0.0391 0.029,-0.0095 0.058,-0.0196 0.086,-0.0338 0.03,-0.0143 0.057,-0.0326 0.085,-0.0599 0.036,-0.0349 0.054,-0.0699 0.071,-0.1054 0.033,-0.067 0.055,-0.1417 0.076,-0.2288 0.03,-0.1286 0.056,-0.2857 0.079,-0.4545 h 5.262 c 0.238,0.2506 0.515,0.5434 0.777,0.8717 0.179,0.224 0.382,0.3828 0.592,0.4812 0.211,0.0984 0.427,0.1381 0.637,0.1381 0.375,-0.0012 0.726,-0.1232 1.015,-0.2566 0.14,-0.0646 0.247,-0.1654 0.314,-0.285 0.067,-0.1198 0.093,-0.252 0.093,-0.3846 0,-0.1897 -0.053,-0.3829 -0.136,-0.5648 h 0.729 z"
     fill="#acacac"
     id="path9" />
  <path
     d="m 146.311,4.88562 c 0,0 0,7.3e-4 -0.001,7.3e-4 v 0.00138 z"
     fill="#acacac"
     id="path10" />
  <path
     d="M 104.477,29.0376 89.8579,16.6293 89,17.6406 l 14.621,12.4101 0.002,0.0017 c 1.662,1.3985 3.771,2.1682 5.944,2.1686 h 9.37 v -1.3265 h -9.37 c -1.858,10e-5 -3.668,-0.6596 -5.09,-1.8569 z"
     fill="#696969"
     id="path11" />
  <path
     d="m 100.918,24.3089 3.282,2.7619 c -0.122,-0.6101 -0.388,-1.2623 -0.915,-1.864 -0.409,-0.4668 -1.285,-1.4298 -2.34,-2.6094 -0.027,0.5696 -0.038,1.1453 -0.027,1.7115 z"
     fill="#696969"
     id="path12" />
  <path
     d="m 97.2675,16.6632 c -0.5694,-0.5077 -1.0755,-0.9775 -1.4939,-1.396 0.4056,0.6272 0.7812,1.1968 1.3407,1.904 0.0492,-0.1674 0.1004,-0.3366 0.1532,-0.508 z"
     fill="#696969"
     id="path13" />
  <path
     d="m 100.421,19.356 c -0.853,-0.7094 -1.668,-1.3954 -2.406,-2.0358 -0.0523,0.2422 -0.1046,0.4905 -0.1547,0.7458 0.5777,0.6628 1.3207,1.4575 2.3337,2.478 0.067,-0.385 0.142,-0.7819 0.227,-1.188 z"
     fill="#696969"
     id="path14" />
  <path
     d="m 108.366,29.4555 c -0.022,-1.0662 -0.258,-3.7059 -1.99,-5.1682 -1.635,-1.381 -3.472,-2.8766 -5.204,-4.3085 -0.053,0.4439 -0.103,0.9133 -0.144,1.3967 0.114,0.1125 0.228,0.2251 0.347,0.342 2.347,2.3 4.174,4.1068 4.384,6.6344 0.78,0.5547 1.67,0.9296 2.607,1.1036 z"
     fill="#696969"
     id="path15" />
  <path
     d="m 97.3905,21.3404 2.4105,2.0284 c 0.055,-0.5293 0.129,-1.1371 0.228,-1.8016 -0.759,-0.8575 -1.561,-1.7769 -2.3204,-2.6771 -0.1377,0.7964 -0.2519,1.6284 -0.3181,2.4503 z"
     fill="#696969"
     id="path16" />
  <path
     d="m 96.9027,17.9228 c -1.1854,-1.4447 -2.1691,-2.7514 -2.558,-3.5434 l 0.3269,-0.3916 c -6e-4,-4e-4 -0.0013,-0.0013 -0.0013,-0.0013 l 0.3912,-0.4844 c 0,0 1.0232,0.981 2.489,2.2881 0.2351,-0.6935 0.5005,-1.4025 0.8015,-2.1079 l 0.557,0.2101 c 0,0 -0.326,1.0171 -0.681,2.4964 0.741,0.6497 1.56,1.3493 2.399,2.0332 0.158,-0.6676 0.339,-1.3501 0.551,-2.0336 l 0.547,0.1455 c 0,0 -0.211,0.9915 -0.419,2.4336 0.9,0.7133 1.803,1.3875 2.64,1.9413 3.575,2.369 6.022,4.847 6.277,8.6593 1.216,0 3.921,0 6.394,0 3.315,0 2.818,-3.3152 0.663,-3.8123 -1.454,-0.3358 -3.322,-1.1072 -3.322,-1.1072 -0.737,-0.2457 -1.34,-0.7846 -1.666,-1.4895 0,0 -0.081,-0.17 -0.216,-0.4584 l -2.707,0.8188 c -0.296,0.0892 -0.608,-0.0782 -0.697,-0.3736 -0.09,-0.2958 0.077,-0.6083 0.373,-0.6975 l 2.55,-0.7714 c -0.219,-0.4667 -0.473,-1.0099 -0.742,-1.5831 l -2.529,0.7652 c -0.295,0.0892 -0.608,-0.0778 -0.698,-0.3736 -0.089,-0.2958 0.078,-0.6078 0.374,-0.6975 l 2.375,-0.7182 c -0.253,-0.5423 -0.504,-1.0825 -0.737,-1.5844 l -2.359,0.7133 c -0.296,0.0897 -0.608,-0.0777 -0.698,-0.3736 -0.089,-0.2953 0.078,-0.6078 0.374,-0.697 l 2.21,-0.6685 c -0.317,-0.6896 -0.547,-1.2003 -0.608,-1.3585 -0.267,-0.6918 -0.85,-2.6094 -2.183,-1.5427 -2.191,1.7532 -6.187,1.2386 -7.219,-0.6782 -0.774,-1.4367 -0.332,-2.9838 0,-4.19951 0.265,-0.97178 -1.106,-2.48678 -2.1003,-1.16074 -0.7032,0.9375 -6.6311,7.95735 -6.6311,7.95735 l 5.8861,4.9534 c 0.1451,-0.7165 0.3394,-1.5731 0.593,-2.5079 z"
     fill="#696969"
     id="path17" />
  <path
     d="m 59.4524,29.33 c -7.1173,-1.5638 2.9121,-11.1442 -0.9862,-12.5181 -3.2813,-1.1563 -3.9262,2.8532 -4.9558,2.8532 -1.4347,0 -4.1157,-9.70704 4.9558,-9.665 9.0714,0.0421 4.3677,5.9399 3.4937,9.4761 -0.6915,2.7982 -1.138,5.6301 -1.3395,8.4957 1.605,-5.6448 3.929,-8.4671 6.9718,-8.4671"
     stroke="#acacac"
     stroke-opacity="0.78"
     stroke-linecap="round"
     stroke-linejoin="round"
     id="path18" />
  <path
     d="m 67.5922,19.5049 c 0.0595,-1.4383 0.5132,-2.7827 0.6407,-4.1651"
     stroke="#acacac"
     stroke-opacity="0.78"
     stroke-linecap="round"
     stroke-linejoin="round"
     id="path19" />
  <path
     d="m 68.233,15.3398 c 0.0691,0.2531 0.6507,1.0473 0.982,1.1997 1.5022,0.6908 5.133,0.9905 3.8893,3.2119 -0.5427,0.9692 -2.1815,1.1418 -3.1798,1.1418"
     stroke="#acacac"
     stroke-opacity="0.78"
     stroke-linecap="round"
     stroke-linejoin="round"
     id="path20" />
  <path
     d="m 68.0779,23.9902 c 2.2935,0.4306 1.6076,5.025 -0.1785,6.0172 -0.665,0.3694 -1.871,0.533 -3.6179,0.4909 h 5.8738"
     stroke="#acacac"
     stroke-opacity="0.78"
     stroke-linecap="round"
     stroke-linejoin="round"
     id="path21" />
  <path
     d="m 68.1262,23.9902 c 1.662,0 2.8724,-0.2492 3.6311,-0.7475"
     stroke="#acacac"
     stroke-opacity="0.78"
     stroke-linecap="round"
     stroke-linejoin="round"
     id="path22" />
  <path
     d="m 71.7573,23.4519 c 0.9489,5.0713 3.7626,-2.1704 1.178,-1.1834 -0.5541,0.2117 -0.9228,0.3974 -1.1266,0.9682"
     stroke="#acacac"
     stroke-opacity="0.78"
     stroke-linecap="round"
     stroke-linejoin="round"
     id="path23" />
  <path
     d="M 70.3964,18.7586 C 70.3936,18.7221 70.391,18.6855 70.3884,18.649"
     stroke="#acacac"
     stroke-opacity="0.78"
     stroke-linecap="round"
     stroke-linejoin="round"
     id="path24" />
  <path
     d="m 24.125,23.75 v -1.375 c 0,-1.2814 0,-1.922 0.2093,-2.4274 0.2791,-0.6738 0.8145,-1.2092 1.4883,-1.4883 C 26.328,18.25 26.9686,18.25 28.25,18.25 h 0.6875 c 1.9312,0 2.8967,0 3.5903,0.4635 0.3003,0.2006 0.5581,0.4584 0.7587,0.7587 0.4635,0.6936 0.4635,1.6591 0.4635,3.5903 v 1.1593 c 0,1.124 0,1.6861 -0.2093,2.1914 -0.2094,0.5055 -0.6068,0.9029 -1.4017,1.6978 l -0.8096,0.8096 C 30.7005,29.5495 29.625,29.104 29.625,28.2145 V 27.7082 C 29.625,27.0409 29.0841,26.5 28.4168,26.5 H 26.875 c -1.5188,0 -2.75,-1.2312 -2.75,-2.75 z"
     stroke="#acacac"
     stroke-width="1.056"
     stroke-linejoin="round"
     id="path25" />
  <path
     d="M 9,15.5 V 14.125 C 9,12.8437 9,12.203 9.20933,11.6976 9.48844,11.0238 10.0238,10.4884 10.6976,10.2093 11.203,10 11.8437,10 13.125,10 h 0.6875 c 1.9311,0 2.8967,0 3.5903,0.4635 0.3003,0.2006 0.5581,0.4584 0.7587,0.7587 0.4635,0.6936 0.4635,1.6592 0.4635,3.5903 v 1.1593 c 0,1.124 0,1.6861 -0.2093,2.1914 -0.2094,0.5055 -0.6068,0.9029 -1.4016,1.6978 l -0.8096,0.8095 C 15.5755,21.2995 14.5,20.854 14.5,19.9645 V 19.4582 C 14.5,18.7909 13.9591,18.25 13.2918,18.25 H 11.75 C 10.2312,18.25 9,17.0188 9,15.5 Z"
     stroke="#acacac"
     stroke-width="1.056"
     stroke-linejoin="round"
     id="path26" />
</svg>
