<svg width="21" height="19" viewBox="0 0 21 19" fill="none" xmlns="http://www.w3.org/2000/svg">
<g filter="url(#filter0_dddddd_44_93)">
<path fill-rule="evenodd" clip-rule="evenodd" d="M7.875 3C9.51607 3 10.9678 4.96319 11.8512 7.118C12.5008 6.05404 13.3373 5.26471 14.25 5.26471C16.3211 5.26471 18 9.3295 18 11.4412C18 13.5529 16.3211 15.2647 14.25 15.2647C13.2354 15.2647 12.3149 14.8538 11.6398 14.1864C10.7469 15.2937 9.39185 16 7.875 16C5.18261 16 3 13.7746 3 11.0294C3 10.3306 3.14142 9.46735 3.39667 8.56858L3.51295 8.1816C4.31302 5.65696 5.96585 3 7.875 3ZM7.875 16C10.5674 16 12.75 13.7746 12.75 11.0294C12.75 10.3306 12.6086 9.46735 12.3533 8.56858L12.2371 8.1816C11.437 5.65696 9.78415 3 7.875 3C5.96585 3 4.31302 5.65696 3.51295 8.1816L3.39667 8.56858C3.14142 9.46735 3 10.3306 3 11.0294C3 13.7746 5.18261 16 7.875 16Z" stroke="#DCF9FF" stroke-linecap="round"/>
</g>
<defs>
<filter id="filter0_dddddd_44_93" x="0.232" y="0.232" width="20.536" height="18.536" filterUnits="userSpaceOnUse" color-interpolation-filters="sRGB">
<feFlood flood-opacity="0" result="BackgroundImageFix"/>
<feColorMatrix in="SourceAlpha" type="matrix" values="0 0 0 0 0 0 0 0 0 0 0 0 0 0 0 0 0 0 127 0" result="hardAlpha"/>
<feOffset/>
<feGaussianBlur stdDeviation="0.027"/>
<feColorMatrix type="matrix" values="0 0 0 0 0 0 0 0 0 0.882353 0 0 0 0 1 0 0 0 1 0"/>
<feBlend mode="normal" in2="BackgroundImageFix" result="effect1_dropShadow_44_93"/>
<feColorMatrix in="SourceAlpha" type="matrix" values="0 0 0 0 0 0 0 0 0 0 0 0 0 0 0 0 0 0 127 0" result="hardAlpha"/>
<feOffset/>
<feGaussianBlur stdDeviation="0.054"/>
<feColorMatrix type="matrix" values="0 0 0 0 0 0 0 0 0 0.882353 0 0 0 0 1 0 0 0 1 0"/>
<feBlend mode="normal" in2="effect1_dropShadow_44_93" result="effect2_dropShadow_44_93"/>
<feColorMatrix in="SourceAlpha" type="matrix" values="0 0 0 0 0 0 0 0 0 0 0 0 0 0 0 0 0 0 127 0" result="hardAlpha"/>
<feOffset/>
<feGaussianBlur stdDeviation="0.189"/>
<feColorMatrix type="matrix" values="0 0 0 0 0 0 0 0 0 0.882353 0 0 0 0 1 0 0 0 1 0"/>
<feBlend mode="normal" in2="effect2_dropShadow_44_93" result="effect3_dropShadow_44_93"/>
<feColorMatrix in="SourceAlpha" type="matrix" values="0 0 0 0 0 0 0 0 0 0 0 0 0 0 0 0 0 0 127 0" result="hardAlpha"/>
<feOffset/>
<feGaussianBlur stdDeviation="0.378"/>
<feColorMatrix type="matrix" values="0 0 0 0 0 0 0 0 0 0.882353 0 0 0 0 1 0 0 0 1 0"/>
<feBlend mode="normal" in2="effect3_dropShadow_44_93" result="effect4_dropShadow_44_93"/>
<feColorMatrix in="SourceAlpha" type="matrix" values="0 0 0 0 0 0 0 0 0 0 0 0 0 0 0 0 0 0 127 0" result="hardAlpha"/>
<feOffset/>
<feGaussianBlur stdDeviation="0.648"/>
<feColorMatrix type="matrix" values="0 0 0 0 0 0 0 0 0 0.882353 0 0 0 0 1 0 0 0 1 0"/>
<feBlend mode="normal" in2="effect4_dropShadow_44_93" result="effect5_dropShadow_44_93"/>
<feColorMatrix in="SourceAlpha" type="matrix" values="0 0 0 0 0 0 0 0 0 0 0 0 0 0 0 0 0 0 127 0" result="hardAlpha"/>
<feOffset/>
<feGaussianBlur stdDeviation="1.134"/>
<feColorMatrix type="matrix" values="0 0 0 0 0 0 0 0 0 0.882353 0 0 0 0 1 0 0 0 1 0"/>
<feBlend mode="normal" in2="effect5_dropShadow_44_93" result="effect6_dropShadow_44_93"/>
<feBlend mode="normal" in="SourceGraphic" in2="effect6_dropShadow_44_93" result="shape"/>
</filter>
</defs>
</svg>
