<?xml version="1.0" encoding="UTF-8" standalone="no"?>
<svg
   width="21.033001"
   height="21.033001"
   viewBox="5 5 20.354517 20.354517"
   fill="none"
   version="1.1"
   id="svg4"
   sodipodi:docname="gcoins.svg"
   inkscape:version="1.3-beta (cedbd6c6ff, 2023-05-28)"
   xmlns:inkscape="http://www.inkscape.org/namespaces/inkscape"
   xmlns:sodipodi="http://sodipodi.sourceforge.net/DTD/sodipodi-0.dtd"
   xmlns="http://www.w3.org/2000/svg"
   xmlns:svg="http://www.w3.org/2000/svg">
  <sodipodi:namedview
     id="namedview4"
     pagecolor="#505050"
     bordercolor="#ffffff"
     borderopacity="1"
     inkscape:showpageshadow="0"
     inkscape:pageopacity="0"
     inkscape:pagecheckerboard="1"
     inkscape:deskcolor="#505050"
     inkscape:zoom="13.483871"
     inkscape:cx="-8.8995215"
     inkscape:cy="24.36244"
     inkscape:window-width="1920"
     inkscape:window-height="1009"
     inkscape:window-x="-8"
     inkscape:window-y="-8"
     inkscape:window-maximized="1"
     inkscape:current-layer="svg4" />
  <g
     filter="url(#filter0_di_667_21)"
     id="g1">
    <path
       d="m 14.5995,23 c 0,-0.4939 0.2017,-1.5667 -0.0859,-1.9795 -0.2415,-0.3466 -1.0468,-0.4281 -1.4186,-0.6168 -0.8442,-0.4283 -1.5725,-1.0886 -2.1086,-1.87 -2.2658,-3.3026 -0.1143,-7.6493 3.6131,-8.427 V 8 c -0.9057,0.03931 -1.7924,0.36478 -2.5911,0.78021 -5.31267,2.76309 -5.37628,10.73169 0,13.48189 0.7965,0.4075 1.69,0.7304 2.5911,0.7379 z M 16.4384,8 c 0,0.48339 -0.2145,1.65593 0.0859,2.0454 0.2649,0.3434 1.191,0.4597 1.5858,0.6874 1.0817,0.6238 1.9447,1.5842 2.424,2.7447 -0.5586,0 -1.3924,0.1577 -1.915,-0.0508 -0.3348,-0.1337 -0.5643,-0.5258 -0.8434,-0.7482 -0.6138,-0.4892 -1.3886,-0.7729 -2.1731,-0.7985 -0.6943,-0.0225 -1.4245,0.1833 -2.0061,0.561 -0.5051,0.328 -0.9426,0.7592 -1.2392,1.2893 -0.2742,0.49 -0.4256,1.0399 -0.4322,1.6012 -0.0156,1.3203 0.5232,2.5323 1.6714,3.247 1.9745,1.2291 4.8041,0.1635 5.3495,-2.1515 h -3.3434 v -1.854 h 5.2659 c 0.3613,2.882 -1.4248,5.8728 -4.4301,6.3203 V 23 c 0.8784,-0.0184 1.7308,-0.3461 2.5076,-0.7376 5.411,-2.7276 5.3997,-10.8029 0,-13.52478 C 18.1687,8.34578 17.3142,8.03801 16.4384,8 Z"
       fill="#eaa51d"
       id="path1" />
  </g>
  <defs
     id="defs4">
    <filter
       id="filter0_di_667_21"
       x="0"
       y="0"
       width="31"
       height="31"
       filterUnits="userSpaceOnUse"
       color-interpolation-filters="sRGB">
      <feFlood
         flood-opacity="0"
         result="BackgroundImageFix"
         id="feFlood1" />
      <feColorMatrix
         in="SourceAlpha"
         type="matrix"
         values="0 0 0 0 0 0 0 0 0 0 0 0 0 0 0 0 0 0 127 0"
         result="hardAlpha"
         id="feColorMatrix1" />
      <feOffset
         id="feOffset1" />
      <feGaussianBlur
         stdDeviation="4"
         id="feGaussianBlur1" />
      <feComposite
         in2="hardAlpha"
         operator="out"
         id="feComposite1" />
      <feColorMatrix
         type="matrix"
         values="0 0 0 0 1 0 0 0 0 1 0 0 0 0 1 0 0 0 1 0"
         id="feColorMatrix2" />
      <feBlend
         mode="normal"
         in2="BackgroundImageFix"
         result="effect1_dropShadow_667_21"
         id="feBlend2" />
      <feBlend
         mode="normal"
         in="SourceGraphic"
         in2="effect1_dropShadow_667_21"
         result="shape"
         id="feBlend3" />
      <feColorMatrix
         in="SourceAlpha"
         type="matrix"
         values="0 0 0 0 0 0 0 0 0 0 0 0 0 0 0 0 0 0 127 0"
         result="hardAlpha"
         id="feColorMatrix3" />
      <feOffset
         dx="1"
         dy="1"
         id="feOffset3" />
      <feGaussianBlur
         stdDeviation="1.5"
         id="feGaussianBlur3" />
      <feComposite
         in2="hardAlpha"
         operator="arithmetic"
         k2="-1"
         k3="1"
         id="feComposite3"
         k1="0"
         k4="0" />
      <feColorMatrix
         type="matrix"
         values="0 0 0 0 0.98 0 0 0 0 1 0 0 0 0 0 0 0 0 0.5 0"
         id="feColorMatrix4" />
      <feBlend
         mode="normal"
         in2="shape"
         result="effect2_innerShadow_667_21"
         id="feBlend4" />
    </filter>
  </defs>
</svg>
