<svg width="14" height="18" viewBox="0 0 14 18" fill="none" xmlns="http://www.w3.org/2000/svg">
<g filter="url(#filter0_dddddd_44_88)">
<path d="M12.1867 3.07074C12.1208 3.07073 12.0554 3.05888 11.9937 3.03574C8.69015 1.80151 5.05238 1.79973 1.74766 3.03074C1.60975 3.08193 1.45715 3.07623 1.32344 3.01491C1.18972 2.95359 1.08585 2.84166 1.03466 2.70374C0.983475 2.56583 0.98917 2.41323 1.05049 2.27952C1.11182 2.14581 1.22375 2.04193 1.36166 1.99074C4.91555 0.667691 8.82722 0.669821 12.3797 1.99674C12.5019 2.04167 12.6045 2.12825 12.6692 2.24127C12.734 2.35429 12.7569 2.48652 12.7338 2.61473C12.7108 2.74294 12.6433 2.85893 12.5433 2.94233C12.4432 3.02573 12.3169 3.07119 12.1867 3.07074ZM11.7407 3.99274C11.7407 3.99274 11.4297 3.87274 11.0437 3.74974C8.37772 2.90345 5.51773 2.88602 2.84166 3.69974C2.41166 3.83174 2.00166 3.98974 2.00166 3.98974C1.94386 4.01188 1.89109 4.04537 1.84645 4.08826C1.80182 4.13114 1.76624 4.18253 1.74182 4.2394C1.71739 4.29627 1.70462 4.35746 1.70424 4.41935C1.70387 4.48125 1.71592 4.54258 1.73966 4.59974L6.68266 16.5497C6.78266 16.7907 6.94566 16.7907 7.04566 16.5497L12.0017 4.60474C12.0253 4.54769 12.0373 4.48649 12.037 4.42474C12.0367 4.36298 12.0241 4.3019 11.9999 4.24509C11.9757 4.18827 11.9404 4.13687 11.896 4.09388C11.8517 4.05089 11.7992 4.01719 11.7417 3.99474L11.7407 3.99274ZM3.22066 5.69674C3.22066 5.4149 3.30424 5.13939 3.46082 4.90505C3.6174 4.67071 3.83995 4.48807 4.10034 4.38021C4.36072 4.27236 4.64724 4.24414 4.92367 4.29912C5.20009 4.35411 5.454 4.48983 5.65329 4.68912C5.85258 4.88841 5.9883 5.14232 6.04328 5.41874C6.09826 5.69516 6.07004 5.98168 5.96219 6.24207C5.85433 6.50245 5.67169 6.72501 5.43735 6.88159C5.20301 7.03817 4.9275 7.12174 4.64566 7.12174C4.26773 7.12174 3.90527 6.97161 3.63803 6.70437C3.37079 6.43713 3.22066 6.07468 3.22066 5.69674ZM6.88266 12.6677C6.60082 12.6677 6.32531 12.5842 6.09097 12.4276C5.85663 12.271 5.67399 12.0485 5.56613 11.7881C5.45828 11.5277 5.43006 11.2412 5.48504 10.9647C5.54003 10.6883 5.67574 10.4344 5.87503 10.2351C6.07432 10.0358 6.32823 9.90011 6.60466 9.84512C6.88108 9.79014 7.1676 9.81836 7.42799 9.92621C7.68837 10.0341 7.91092 10.2167 8.06751 10.4511C8.22409 10.6854 8.30766 10.9609 8.30766 11.2427C8.30766 11.6207 8.15753 11.9831 7.89029 12.2504C7.62305 12.5176 7.26059 12.6677 6.88266 12.6677ZM8.54066 8.71274C8.25882 8.71274 7.98331 8.62917 7.74897 8.47259C7.51463 8.31601 7.33199 8.09345 7.22413 7.83307C7.11628 7.57268 7.08806 7.28616 7.14304 7.00974C7.19803 6.73332 7.33374 6.47941 7.53303 6.28012C7.73232 6.08083 7.98623 5.94511 8.26266 5.89012C8.53908 5.83514 8.8256 5.86336 9.08599 5.97121C9.34637 6.07907 9.56892 6.26171 9.72551 6.49606C9.88209 6.7304 9.96566 7.0059 9.96566 7.28774C9.96566 7.66568 9.81553 8.02813 9.54829 8.29537C9.28105 8.56261 8.91859 8.71274 8.54066 8.71274Z" fill="#FFFBA5"/>
</g>
<defs>
<filter id="filter0_dddddd_44_88" x="0.207183" y="0.207183" width="13.3282" height="17.3161" filterUnits="userSpaceOnUse" color-interpolation-filters="sRGB">
<feFlood flood-opacity="0" result="BackgroundImageFix"/>
<feColorMatrix in="SourceAlpha" type="matrix" values="0 0 0 0 0 0 0 0 0 0 0 0 0 0 0 0 0 0 127 0" result="hardAlpha"/>
<feOffset/>
<feGaussianBlur stdDeviation="0.0094383"/>
<feColorMatrix type="matrix" values="0 0 0 0 1 0 0 0 0 0.984314 0 0 0 0 0.647059 0 0 0 1 0"/>
<feBlend mode="normal" in2="BackgroundImageFix" result="effect1_dropShadow_44_88"/>
<feColorMatrix in="SourceAlpha" type="matrix" values="0 0 0 0 0 0 0 0 0 0 0 0 0 0 0 0 0 0 127 0" result="hardAlpha"/>
<feOffset/>
<feGaussianBlur stdDeviation="0.0188766"/>
<feColorMatrix type="matrix" values="0 0 0 0 1 0 0 0 0 0.984314 0 0 0 0 0.647059 0 0 0 1 0"/>
<feBlend mode="normal" in2="effect1_dropShadow_44_88" result="effect2_dropShadow_44_88"/>
<feColorMatrix in="SourceAlpha" type="matrix" values="0 0 0 0 0 0 0 0 0 0 0 0 0 0 0 0 0 0 127 0" result="hardAlpha"/>
<feOffset/>
<feGaussianBlur stdDeviation="0.0660681"/>
<feColorMatrix type="matrix" values="0 0 0 0 1 0 0 0 0 0.984314 0 0 0 0 0.647059 0 0 0 1 0"/>
<feBlend mode="normal" in2="effect2_dropShadow_44_88" result="effect3_dropShadow_44_88"/>
<feColorMatrix in="SourceAlpha" type="matrix" values="0 0 0 0 0 0 0 0 0 0 0 0 0 0 0 0 0 0 127 0" result="hardAlpha"/>
<feOffset/>
<feGaussianBlur stdDeviation="0.132136"/>
<feColorMatrix type="matrix" values="0 0 0 0 1 0 0 0 0 0.984314 0 0 0 0 0.647059 0 0 0 1 0"/>
<feBlend mode="normal" in2="effect3_dropShadow_44_88" result="effect4_dropShadow_44_88"/>
<feColorMatrix in="SourceAlpha" type="matrix" values="0 0 0 0 0 0 0 0 0 0 0 0 0 0 0 0 0 0 127 0" result="hardAlpha"/>
<feOffset/>
<feGaussianBlur stdDeviation="0.226519"/>
<feColorMatrix type="matrix" values="0 0 0 0 1 0 0 0 0 0.984314 0 0 0 0 0.647059 0 0 0 1 0"/>
<feBlend mode="normal" in2="effect4_dropShadow_44_88" result="effect5_dropShadow_44_88"/>
<feColorMatrix in="SourceAlpha" type="matrix" values="0 0 0 0 0 0 0 0 0 0 0 0 0 0 0 0 0 0 127 0" result="hardAlpha"/>
<feOffset/>
<feGaussianBlur stdDeviation="0.396408"/>
<feColorMatrix type="matrix" values="0 0 0 0 1 0 0 0 0 0.984314 0 0 0 0 0.647059 0 0 0 1 0"/>
<feBlend mode="normal" in2="effect5_dropShadow_44_88" result="effect6_dropShadow_44_88"/>
<feBlend mode="normal" in="SourceGraphic" in2="effect6_dropShadow_44_88" result="shape"/>
</filter>
</defs>
</svg>
