<svg width="62" height="59" viewBox="0 0 62 59" fill="none" xmlns="http://www.w3.org/2000/svg">
<path d="M8.25094 53.8C9.07227 54.1093 9.9576 54.264 10.9069 54.264C11.8563 54.264 12.5283 54.1253 12.9229 53.848C13.3176 53.56 13.5149 53.032 13.5149 52.264C13.5149 51.8587 13.3869 51.5227 13.1309 51.256C12.8856 51.0213 12.6616 50.8507 12.4589 50.744L11.8829 50.456C11.7016 50.3707 11.4776 50.2693 11.2109 50.152C10.9549 50.0347 10.7309 49.9333 10.5389 49.848C10.3469 49.752 10.0856 49.6187 9.75494 49.448C9.42427 49.2667 9.1896 49.1173 9.05094 49C8.91227 48.872 8.7576 48.7173 8.58694 48.536C8.28827 48.2053 8.13894 47.7787 8.13894 47.256C8.13894 46.3707 8.44294 45.6827 9.05094 45.192C9.65894 44.6907 10.4429 44.44 11.4029 44.44C12.3629 44.44 13.2536 44.5733 14.0749 44.84L13.8669 45.64C13.2056 45.4267 12.4429 45.32 11.5789 45.32C10.7256 45.32 10.1229 45.4587 9.77094 45.736C9.41894 46.0027 9.24294 46.4667 9.24294 47.128C9.24294 47.6187 9.4936 48.024 9.99494 48.344C10.4003 48.6 11.0243 48.9147 11.8669 49.288C12.7096 49.6507 13.2803 49.9333 13.5789 50.136C14.3363 50.648 14.7203 51.3413 14.7309 52.216C14.7309 54.168 13.4669 55.144 10.9389 55.144C9.88294 55.144 8.89627 54.9893 7.97894 54.68L8.25094 53.8ZM16.7127 47.96C16.7127 47.9067 16.686 47.88 16.6327 47.88H15.9927V47.416L16.7287 47.112L16.9047 45.704H17.7207V46.984C17.7527 47.0587 17.9714 47.096 18.3767 47.096H19.3207L19.1927 47.848L17.8487 47.864C17.7527 47.864 17.7047 47.8853 17.7047 47.928V52.984L18.1207 55.064H17.4167L17.3527 55.016L16.7127 52.984V47.96ZM26.2389 50.216L26.2229 52.12C26.2229 52.4187 26.2283 52.696 26.2389 52.952L26.5909 54.904L26.6069 54.984H25.9029L25.8389 54.936L25.4549 54.008C24.4629 54.6907 23.4869 55.048 22.5269 55.08C21.8549 55.08 21.3376 54.904 20.9749 54.552C20.6229 54.1893 20.4469 53.6827 20.4469 53.032C20.4469 52.136 20.6976 51.528 21.1989 51.208C21.7003 50.888 22.3883 50.728 23.2629 50.728C23.3696 50.728 24.0149 50.76 25.1989 50.824V49.784C25.1989 49.08 25.0656 48.5947 24.7989 48.328C24.5429 48.0507 24.1803 47.912 23.7109 47.912C23.2416 47.912 22.3349 48.056 20.9909 48.344L20.8469 47.576C22.1696 47.1813 23.1189 46.984 23.6949 46.984C24.5696 46.984 25.2629 47.256 25.7749 47.8C26.0843 48.1307 26.2389 48.936 26.2389 50.216ZM25.1989 51.624L23.5189 51.56C22.6656 51.56 22.1109 51.6453 21.8549 51.816C21.5989 51.9867 21.4709 52.328 21.4709 52.84C21.4709 53.3413 21.5563 53.688 21.7269 53.88C21.8976 54.0613 22.1909 54.152 22.6069 54.152C23.0336 54.152 23.5296 54.0667 24.0949 53.896C24.6709 53.7253 25.0389 53.528 25.1989 53.304V51.624ZM28.8377 47.96C28.8377 47.9067 28.811 47.88 28.7577 47.88H28.1177V47.416L28.8537 47.112L29.0297 45.704H29.8457V46.984C29.8777 47.0587 30.0964 47.096 30.5017 47.096H31.4457L31.3177 47.848L29.9737 47.864C29.8777 47.864 29.8297 47.8853 29.8297 47.928V52.984L30.2457 55.064H29.5417L29.4777 55.016L28.8377 52.984V47.96ZM33.0359 47.128H34.0759V52.744C34.0866 53.2773 34.2306 53.6507 34.5079 53.864C34.7959 54.0773 35.2066 54.184 35.7399 54.184C36.2839 54.184 36.7586 54.0827 37.1639 53.88C37.5799 53.6773 37.8253 53.4853 37.8999 53.304V47.128H38.9239V52.936L39.2119 55H38.5399L38.4919 54.952L38.1559 54.056C37.7399 54.3333 37.4413 54.5307 37.2599 54.648C37.0786 54.7547 36.8119 54.8667 36.4599 54.984C36.1186 55.0907 35.7559 55.144 35.3719 55.144C33.8466 55.144 33.0679 54.3387 33.0359 52.728V47.128ZM47.2666 49.864C47.2666 50.248 47.2346 50.648 47.1706 51.064H42.1466C42.1892 52.2373 42.3866 53.048 42.7386 53.496C43.0906 53.9333 43.7146 54.152 44.6106 54.152C45.2826 54.152 46.0666 54.008 46.9626 53.72L47.0586 54.52C46.8132 54.616 46.6212 54.6853 46.4826 54.728C46.3546 54.76 46.2159 54.8027 46.0666 54.856C45.9172 54.8987 45.8052 54.9307 45.7306 54.952C45.6559 54.9733 45.5492 55 45.4106 55.032C45.2719 55.064 45.1546 55.0853 45.0586 55.096C44.7706 55.128 44.5252 55.144 44.3226 55.144C43.3199 55.144 42.5306 54.792 41.9546 54.088C41.3786 53.384 41.0906 52.4027 41.0906 51.144C41.0906 50.4507 41.1759 49.8427 41.3466 49.32C41.5172 48.7867 41.7199 48.3813 41.9546 48.104C42.1892 47.816 42.4719 47.5867 42.8026 47.416C43.2932 47.1493 43.8266 47.0053 44.4026 46.984C46.3119 46.9947 47.2666 47.9547 47.2666 49.864ZM46.2586 49.608C46.2586 48.968 46.0986 48.52 45.7786 48.264C45.4586 48.008 44.9839 47.88 44.3546 47.88C43.7252 47.88 43.2079 48.0507 42.8026 48.392C42.3972 48.7227 42.1892 49.3413 42.1786 50.248H46.2106C46.2426 50.0027 46.2586 49.7893 46.2586 49.608ZM49.0456 53.912C49.7069 54.168 50.3256 54.296 50.9016 54.296C51.4776 54.296 51.9682 54.1787 52.3736 53.944C52.7896 53.6987 52.9976 53.3787 52.9976 52.984C52.9976 52.5893 52.8589 52.2747 52.5816 52.04C52.3042 51.7947 51.9682 51.5973 51.5736 51.448C51.1789 51.2987 50.7842 51.144 50.3896 50.984C50.0056 50.8133 49.6749 50.5787 49.3976 50.28C49.1202 49.9707 48.9816 49.592 48.9816 49.144C48.9816 48.44 49.2269 47.9013 49.7176 47.528C50.2082 47.144 50.8216 46.952 51.5576 46.952C52.3042 46.952 53.0189 47.0747 53.7016 47.32L53.4936 48.056C52.9602 47.8747 52.3576 47.784 51.6856 47.784C50.5762 47.784 50.0216 48.216 50.0216 49.08C50.0216 49.6347 50.5016 50.0933 51.4616 50.456C51.8669 50.6053 52.2669 50.7707 52.6616 50.952C53.0669 51.1227 53.4082 51.3733 53.6856 51.704C53.9736 52.0347 54.1176 52.4347 54.1176 52.904C54.1176 53.6187 53.8082 54.168 53.1896 54.552C52.5709 54.936 51.8562 55.128 51.0456 55.128C50.2349 55.128 49.4882 54.984 48.8056 54.696L49.0456 53.912Z" fill="#ACACAC"/>
<path d="M30.4788 4.31247C30.6305 4.31247 30.7526 4.1898 30.7526 4.03868C30.7526 3.88696 30.6305 3.76428 30.4788 3.76428C30.3271 3.76428 30.205 3.88696 30.205 4.03868C30.205 4.18987 30.3271 4.31247 30.4788 4.31247Z" fill="#ACACAC"/>
<path d="M30.1682 13.1605L31.7612 13.5012L31.8335 13.1569L30.3318 12.8357V11.1017H29.9809V12.8536L28.4567 13.3981L28.574 13.7288L30.1682 13.1605Z" fill="#ACACAC"/>
<path d="M29.5768 28.2239L29.3291 27.9756C29.284 28.0212 29.2117 28.0591 29.1169 28.0834C29.0233 28.1072 28.9106 28.1179 28.7981 28.1179C28.6475 28.1179 28.4959 28.1001 28.3869 28.0823C28.3299 28.0729 28.2837 28.064 28.2529 28.0568C28.2375 28.0544 28.2256 28.0508 28.2174 28.0498L28.2079 28.0474L28.2055 28.0461L28.1214 28.3887C28.1285 28.3899 28.4438 28.4693 28.7982 28.4693C28.9309 28.4693 29.0707 28.4586 29.2059 28.4236C29.3398 28.3887 29.4713 28.33 29.5768 28.2239Z" fill="#ACACAC"/>
<path d="M34.0748 27.364C34.3598 27.3042 34.7189 27.2152 35.0284 27.0908L34.8968 26.7649C34.6206 26.8751 34.2763 26.9617 34.0036 27.0191C33.8662 27.0487 33.7476 27.0694 33.6635 27.0837C33.622 27.0908 33.5888 27.0968 33.5651 27.1003C33.5532 27.1027 33.545 27.1039 33.539 27.1039L33.5307 27.105L33.5804 27.4529C33.583 27.4529 33.7916 27.4238 34.0748 27.364Z" fill="#ACACAC"/>
<path d="M32.5245 1.15686V1.15764C32.5245 1.15764 32.5245 1.15764 32.5261 1.15764L32.5245 1.15686Z" fill="#ACACAC"/>
<path d="M39.3664 35.5601V35.561C39.3675 35.561 39.3675 35.561 39.3675 35.561L39.3664 35.5601Z" fill="#ACACAC"/>
<path d="M39.368 35.5612H39.3671L39.368 35.5622V35.5612Z" fill="#ACACAC"/>
<path d="M40.88 35.899C40.8006 35.8208 40.6999 35.7793 40.5896 35.7787H39.5821C39.5157 35.7005 39.4458 35.6258 39.3663 35.5606C39.3273 35.5274 39.2727 35.4753 39.2122 35.4107C39.1518 35.3454 39.0843 35.2678 39.0144 35.1825V35.1831C38.8034 34.9228 38.5664 34.5916 38.3696 34.2864V34.287C38.2724 34.1359 38.1835 33.989 38.1099 33.8634V33.8627C38.0401 33.7388 37.9855 33.6298 37.9594 33.5694V33.5682C37.9452 33.535 37.9239 33.4698 37.9002 33.3869C37.8765 33.3039 37.8516 33.2009 37.8255 33.0858V33.0852C37.6679 32.383 37.4889 31.1935 37.3419 30.1713C37.2376 29.4465 37.0065 28.6245 36.7256 27.8683V27.8678C36.4554 27.1501 36.146 26.4976 35.8343 26.0389C35.8154 25.959 35.7893 25.8327 35.7585 25.6733L35.7573 25.672C35.6067 24.9182 35.3329 23.4342 35.0971 22.1085C34.9798 21.4454 34.8719 20.8207 34.7937 20.3466V20.346C34.7534 20.112 34.7226 19.9128 34.7001 19.7665V19.7659C34.6894 19.6906 34.6799 19.6301 34.6763 19.5946V19.588L34.6752 19.5815C34.6728 19.5644 34.6704 19.5507 34.6704 19.5454L34.6692 19.5383C34.6692 19.2705 34.6479 14.7659 34.6373 12.482C34.6455 12.4944 34.6539 12.5063 34.6633 12.5181V12.5193C34.8778 12.8156 35.1102 13.1339 35.3259 13.4219L35.3271 13.4225C35.544 13.7093 35.7455 13.9653 35.9055 14.1472V14.1478C36.1355 14.408 36.4176 14.6077 36.715 14.7458C37.0137 14.8839 37.3313 14.9621 37.6418 14.9621C37.816 14.9621 37.9903 14.9366 38.1562 14.8786C38.3222 14.8211 38.4822 14.7286 38.6149 14.5947C38.9551 14.2521 39.1352 13.7644 39.1364 13.2577C39.1364 12.8215 38.9966 12.3605 38.6801 11.974L38.6789 11.9735C38.6279 11.9118 38.5497 11.8021 38.4584 11.6641L38.4573 11.6623L38.4584 11.6646C38.1396 11.1787 37.6608 10.3454 37.1618 9.54066C36.9129 9.13943 36.6568 8.74297 36.4056 8.39447L36.4044 8.39209C36.1543 8.04244 35.9125 7.74083 35.6708 7.51739L35.6755 7.52154L35.6695 7.51623C35.122 7.01608 34.4499 6.7808 33.8543 6.66405C33.2689 6.55029 32.7402 6.54968 32.4403 6.54968H32.4225C32.3088 6.54968 32.1629 6.53484 32.0136 6.51117C31.8643 6.48742 31.7101 6.45606 31.5751 6.42347H31.5739C31.5383 6.41516 31.5039 6.40625 31.4695 6.39795C31.5963 6.3825 31.7185 6.34161 31.8239 6.26874H31.8251V6.2682C31.8263 6.2682 31.8263 6.26759 31.8275 6.26697H31.8263C31.8962 6.21962 31.9614 6.15614 32.0088 6.0762C32.0101 6.07558 32.0101 6.07497 32.0101 6.07497C32.0101 6.07497 32.0101 6.07443 32.0112 6.07382H32.0101C32.061 5.98965 32.0906 5.89249 32.0906 5.78758V5.03493C32.1095 5.02724 32.1297 5.0201 32.1487 5.01003C32.208 4.9792 32.2637 4.9377 32.3111 4.88497C32.362 4.82924 32.3941 4.7706 32.4143 4.71433L32.4154 4.7108L32.4167 4.7078C32.4368 4.64915 32.4439 4.59466 32.4439 4.54839C32.4427 4.52118 32.4415 4.49443 32.4356 4.45953L32.4333 4.45123L32.2899 3.62272L32.2982 3.53202C32.3384 3.51365 32.3822 3.49113 32.4297 3.46146C32.4297 3.46085 32.4297 3.46085 32.4297 3.46085C32.4309 3.46023 32.4321 3.46023 32.4321 3.46023C32.5483 3.38621 32.6644 3.27415 32.7438 3.11535C32.8209 2.96239 32.8576 2.7823 32.8576 2.58138V2.57192C32.8576 2.41489 32.8363 2.24126 32.7948 2.04333C32.7948 2.03388 32.7948 2.0255 32.7948 2.01843C32.7948 1.7026 32.6928 1.40737 32.5245 1.15733C32.2756 0.782776 31.8964 0.500764 31.4626 0.305762C31.0275 0.109684 30.531 0 30.0225 0C29.7795 0 29.5353 0.0261335 29.2947 0.0805527C29.2805 0.0799378 29.264 0.0799378 29.2426 0.0799378C28.5505 0.0817825 27.9341 0.356723 27.4837 0.730663L27.4767 0.736043L27.4837 0.731277C27.2573 0.920361 27.0713 1.13481 26.9349 1.36601L26.9337 1.36778C26.7998 1.59945 26.7097 1.85317 26.7097 2.12104C26.7097 2.16432 26.7121 2.20874 26.718 2.25263C26.6232 2.37531 26.5485 2.50866 26.4976 2.64671C26.417 2.8607 26.3838 3.08529 26.3838 3.30689V3.3075C26.3862 3.88413 26.5937 4.46314 26.8579 4.96091C26.8555 4.98997 26.8544 5.01902 26.8544 5.04807C26.8544 5.30349 26.9469 5.5257 27.0606 5.70172C27.2337 5.96367 27.4612 6.14976 27.6426 6.27896C27.6817 6.3074 27.7185 6.33231 27.7528 6.35483V7.28764C27.53 7.415 27.1496 7.63314 26.7335 7.87611V7.87549C26.4052 8.06634 26.0568 8.2738 25.7486 8.46219C25.4404 8.65066 25.1737 8.82076 24.9947 8.95173L25.0007 8.94697L24.9912 8.95342C24.9918 8.95342 24.9918 8.95342 24.9924 8.95281C24.6451 9.20476 24.325 9.50046 24.0905 9.91883C23.8558 10.336 23.7135 10.8523 23.6519 11.5332C23.5938 12.1715 23.448 13.5493 23.3081 14.8158C23.2394 15.4487 23.1707 16.0544 23.1174 16.5278C23.0901 16.7637 23.0664 16.9664 23.0474 17.1228C23.0297 17.2787 23.0154 17.3896 23.0095 17.4328L23.0083 17.434V17.4346C23.0012 17.4956 23 17.5514 23 17.61C23 17.8233 23.0237 18.1469 23.0569 18.5416V18.5422C23.1078 19.133 23.1836 19.8673 23.2453 20.4949V20.4954C23.2773 20.8078 23.3058 21.0957 23.3247 21.3222L23.3259 21.3234C23.3354 21.436 23.3437 21.5343 23.3497 21.612V21.6127C23.3555 21.6873 23.3567 21.7466 23.3567 21.7696C23.3567 22.021 23.3732 22.3279 23.4681 22.6598C23.5641 22.9934 23.7443 23.3472 24.0477 23.6844L24.0442 23.6809L24.0477 23.6857C24.3345 24.0022 24.7778 24.4146 25.1547 24.7559C25.3443 24.9266 25.5162 25.0783 25.6419 25.1874C25.6904 25.2301 25.7296 25.2644 25.7628 25.2929V25.2946L25.8458 25.3651C25.9204 25.4274 26.0129 25.4624 26.1113 25.4624C26.1279 25.4624 26.1444 25.4612 26.1587 25.46L26.7276 25.3924C26.7347 25.5252 26.7442 25.6745 26.7525 25.8179C26.7596 25.9394 26.7656 26.0574 26.7704 26.1569C26.7739 26.2559 26.7763 26.3383 26.7763 26.3803C26.7774 26.449 26.7834 26.5225 26.7929 26.6257C26.8261 26.9813 26.9067 27.6503 26.9873 28.2809C27.0668 28.9108 27.1449 29.4969 27.171 29.6818V29.6855L27.1722 29.6884C27.1782 29.7227 27.1853 29.7684 27.1984 29.827V29.8264C27.2434 30.0362 27.3346 30.4131 27.4495 30.8795C27.6203 31.5771 27.8407 32.4683 28.0185 33.234C28.1073 33.6157 28.1856 33.9671 28.2402 34.2433V34.2445C28.2674 34.3803 28.2887 34.4993 28.303 34.5918C28.31 34.6374 28.3148 34.6777 28.3183 34.7085C28.3195 34.7245 28.3207 34.7381 28.3207 34.7482C28.3172 34.7577 28.3113 34.7707 28.3041 34.7856C28.2651 34.859 28.1797 34.9811 28.0777 35.1079L28.0789 35.1074C27.9219 35.3005 27.7246 35.5198 27.5556 35.7201L27.5562 35.7195L27.5539 35.722C27.5551 35.722 27.5545 35.722 27.5551 35.7214C27.5545 35.722 27.5539 35.7225 27.5539 35.7225C27.5385 35.7415 27.5231 35.7599 27.5076 35.7789H26.1707C26.0616 35.7795 25.9598 35.8209 25.8803 35.8992C25.8032 35.978 25.7618 36.0793 25.7605 36.189V38.9441C25.7618 39.0538 25.8032 39.1545 25.8803 39.234C25.9598 39.3122 26.0616 39.3536 26.1707 39.3542H40.5899C40.7002 39.3542 40.8045 39.3104 40.8803 39.234C40.9562 39.1575 41 39.0538 41 38.9441V36.1888C40.9997 36.0792 40.9583 35.9778 40.88 35.899ZM33.7228 7.61646C33.7347 7.58502 33.7465 7.56135 33.7915 7.53406C33.8366 7.50747 33.9219 7.47834 34.0725 7.47834C34.1721 7.47834 34.3 7.49141 34.4595 7.52284C34.7179 7.57434 34.9288 7.69532 35.109 7.86242C35.3792 8.11131 35.5748 8.46865 35.7099 8.82014C35.8438 9.17217 35.9196 9.51353 35.9624 9.7292C35.9813 9.82521 36.0738 9.88624 36.1686 9.86733C36.2658 9.84834 36.3262 9.75587 36.3073 9.66103C36.2777 9.51583 36.235 9.30961 36.1662 9.07848C36.5419 9.63435 36.9307 10.2821 37.2792 10.8622C37.4736 11.1881 37.6573 11.4922 37.8161 11.7476C37.9774 12.003 38.1136 12.2099 38.2262 12.3468C38.4514 12.62 38.5498 12.9435 38.5498 13.2577C38.5511 13.6233 38.4124 13.9688 38.2003 14.181C38.135 14.2444 38.0568 14.2924 37.9631 14.3256C37.8695 14.3582 37.7604 14.376 37.6419 14.376C37.431 14.376 37.1903 14.3208 36.9615 14.2141C36.7316 14.1086 36.5147 13.9528 36.3452 13.7589C36.2042 13.6013 36.0075 13.35 35.7954 13.0691C35.4753 12.6455 35.1174 12.147 34.8399 11.7559C34.7013 11.5604 34.5816 11.3908 34.4986 11.2706C34.4145 11.1509 34.3647 11.0792 34.3647 11.0792L34.3588 11.0721L34.3326 11.0443L34.3315 11.0431L34.329 11.0419L34.319 11.0348C34.2645 10.9879 34.0274 10.7888 33.8011 10.5459C33.6802 10.4161 33.5605 10.2745 33.4775 10.1417C33.4348 10.0759 33.4028 10.0138 33.3815 9.95864C33.3589 9.90345 33.3506 9.85787 33.3506 9.82644C33.3506 9.80153 33.3554 9.78616 33.3613 9.77371C33.3862 9.72451 33.3862 9.66579 33.3613 9.61668C33.2784 9.44896 33.1942 9.24512 33.1302 9.03705C33.0686 8.83082 33.0283 8.62107 33.0283 8.45035C33.0283 8.29032 33.0626 8.1718 33.1171 8.10431C33.1456 8.06873 33.1788 8.04328 33.2262 8.02253C33.2748 8.00239 33.3387 7.98817 33.4277 7.98817C33.4395 7.98817 33.4502 7.98817 33.4632 7.98933L34.1187 8.86288C34.1768 8.93989 34.287 8.9565 34.3646 8.89785C34.4416 8.8392 34.4582 8.72898 34.4001 8.65189L33.718 7.74221C33.7157 7.72799 33.7121 7.7067 33.7133 7.68587C33.7134 7.66089 33.7157 7.63775 33.7228 7.61646ZM27.5452 5.37159C27.4789 5.26491 27.4398 5.15699 27.4398 5.048C27.4398 5.01064 27.4445 4.97152 27.4552 4.93063C27.4659 4.88735 27.46 4.84054 27.4362 4.80203C27.172 4.33855 26.9693 3.7756 26.9704 3.30681C26.9704 3.14156 26.9941 2.98798 27.0451 2.85347C27.0973 2.71835 27.1731 2.60044 27.2857 2.4979C27.3402 2.44756 27.3579 2.36931 27.3283 2.29998C27.3082 2.24725 27.2964 2.18745 27.2964 2.12104C27.2951 1.98945 27.3426 1.82889 27.4398 1.66355C27.5844 1.41644 27.8369 1.16217 28.1509 0.975472C28.4662 0.787618 28.8431 0.666174 29.2425 0.666174C29.271 0.666174 29.2995 0.667327 29.3278 0.667942C29.3445 0.667942 29.3623 0.667327 29.3777 0.663715C29.5874 0.610986 29.8055 0.586083 30.0224 0.586083C30.5853 0.58493 31.1472 0.752569 31.555 1.02105C31.76 1.15495 31.9247 1.31206 32.0361 1.48216C32.1487 1.65041 32.2092 1.83004 32.2092 2.01851C32.2092 2.03396 32.2092 2.05048 32.208 2.06532C32.2068 2.08192 32.208 2.09737 32.2128 2.11389C32.2543 2.30467 32.272 2.45586 32.2709 2.572C32.2709 2.69529 32.252 2.77707 32.2294 2.83218C32.2116 2.87484 32.1915 2.90151 32.1677 2.92457C32.1334 2.96016 32.0883 2.9856 32.0314 3.00935C31.9829 3.03064 31.9284 3.04901 31.8679 3.0763C31.7849 3.09167 31.7055 3.09705 31.6332 3.09705C31.4009 3.09705 31.2208 3.03364 31.0678 2.93764C30.8402 2.7936 30.6803 2.56731 30.5806 2.37408C30.5309 2.27631 30.4965 2.18976 30.474 2.12811C30.4633 2.09614 30.455 2.07124 30.4503 2.05525L30.4444 2.03634V2.03273L30.1018 2.11751C30.1054 2.12873 30.1847 2.44579 30.4123 2.77469C30.4218 2.79129 30.4337 2.80666 30.4455 2.82265C30.3792 2.84048 30.3033 2.8534 30.2227 2.8534H30.2192C30.1161 2.8534 30.0105 2.83211 29.9086 2.77638C29.8055 2.71827 29.7012 2.62465 29.6052 2.45694C29.5637 2.38292 29.4736 2.3491 29.3942 2.37869C29.3136 2.40651 29.265 2.48891 29.2792 2.57308C29.2863 2.61635 29.2898 2.65663 29.2898 2.6916C29.2898 2.7657 29.2756 2.82027 29.2554 2.86408C29.2246 2.92811 29.1772 2.97315 29.1049 3.00935C29.0315 3.0431 28.9318 3.06446 28.8181 3.06446C28.6724 3.06446 28.504 3.03064 28.3463 2.96723C28.2753 2.93879 28.1958 2.95893 28.1472 3.01642C28.0974 3.07392 28.0903 3.1557 28.1295 3.22026C28.2149 3.36185 28.2824 3.49344 28.3298 3.61081C28.376 3.72695 28.3973 3.82895 28.3973 3.90589C28.3962 3.98598 28.3796 4.03986 28.3392 4.09497C28.2978 4.14893 28.2243 4.20581 28.0974 4.25677C28.0477 4.27637 28.0097 4.31841 27.9943 4.37052C27.979 4.42148 27.9884 4.47844 28.0204 4.52171C28.1579 4.71487 28.1982 4.86837 28.1982 4.99166C28.1982 5.07936 28.1769 5.15584 28.1461 5.22509C28.0975 5.32824 28.0204 5.41356 27.9541 5.47228C27.9209 5.50134 27.89 5.52378 27.8699 5.53808L27.8462 5.55345L27.8426 5.55699L27.9813 5.80057C27.9267 5.76206 27.8663 5.71579 27.8082 5.66606C27.7089 5.57905 27.6129 5.4782 27.5452 5.37159ZM27.7302 36.4774C27.7302 36.4774 27.7445 36.4377 27.7764 36.3915L27.7942 36.3648C27.8499 36.2848 27.9352 36.1793 28.0325 36.0643C28.0466 36.0484 28.0608 36.0305 28.0763 36.0128C28.2315 35.8326 28.4105 35.6306 28.5634 35.4386C28.6464 35.3319 28.721 35.2288 28.7815 35.1292C28.8408 35.0285 28.8882 34.9348 28.9048 34.827C28.9072 34.8045 28.9083 34.7843 28.9083 34.7637C28.9083 34.7145 28.9036 34.6594 28.8942 34.5923C28.8622 34.3422 28.7792 33.9368 28.6702 33.4515C28.5054 32.725 28.285 31.8283 28.1013 31.0781C28.0088 30.7024 27.9259 30.364 27.863 30.1027C27.8322 29.9711 27.8061 29.8596 27.7871 29.7732C27.767 29.6872 27.7539 29.6227 27.7503 29.5995C27.7231 29.3968 27.6247 28.6578 27.5334 27.9372C27.4895 27.5762 27.4457 27.2189 27.4149 26.9339C27.3983 26.7916 27.3853 26.6678 27.3758 26.5718C27.3675 26.4753 27.3628 26.4023 27.3628 26.3804C27.3628 26.3004 27.3568 26.173 27.3497 26.023C27.3307 25.6497 27.2987 25.1424 27.2869 24.977C27.3118 24.935 27.3462 24.8692 27.3829 24.7898C27.4149 24.7216 27.4457 24.6435 27.4706 24.5598C27.4955 24.4751 27.5133 24.3873 27.5133 24.2937C27.5133 24.2375 27.5073 24.18 27.4871 24.1225C27.4635 24.0484 27.4149 23.9737 27.3437 23.921C27.3733 23.854 27.3852 23.7817 27.384 23.7124C27.384 23.607 27.3615 23.5003 27.3236 23.3864C27.2145 23.0534 26.9822 22.6468 26.6906 22.1792C26.6705 22.0382 26.5982 21.4776 26.5993 20.9525C26.5993 20.7498 26.61 20.5531 26.6372 20.3925C26.6645 20.2212 26.7321 19.8798 26.8139 19.4686C26.9371 18.8522 27.0983 18.0723 27.2275 17.4488C27.2927 17.1371 27.3495 16.8621 27.391 16.6677C27.4313 16.4722 27.4563 16.3548 27.4563 16.3548C27.4634 16.3205 27.4598 16.2873 27.448 16.2552L26.5685 13.9689C26.5424 13.9001 26.4737 13.8545 26.399 13.8568C26.3243 13.8586 26.2592 13.9083 26.2378 13.9795L25.2991 16.9687C25.2944 16.9842 25.2908 17.0007 25.2908 17.0173L25.1735 21.0027C25.1723 21.0495 25.1901 21.0945 25.222 21.1283L26.3836 22.3485C26.5756 22.6568 26.7416 22.9382 26.8565 23.1741C26.9146 23.2932 26.9597 23.401 26.9904 23.494C27.0189 23.5853 27.0331 23.6618 27.0319 23.7122C27.0319 23.7614 27.0225 23.7815 27.0141 23.7916C27.007 23.801 26.9952 23.8141 26.9489 23.8259L26.9336 23.8277C26.9134 23.8277 26.8767 23.82 26.8269 23.7927C26.7404 23.7471 26.6254 23.6499 26.514 23.5291C26.3457 23.3489 26.1774 23.1189 26.0553 22.9359C25.9937 22.8445 25.9427 22.7646 25.9084 22.7089C25.8905 22.6793 25.8763 22.6568 25.8668 22.6419L25.8562 22.6241L25.8538 22.6182C25.8052 22.5352 25.6974 22.5067 25.612 22.5548C25.529 22.6046 25.5006 22.7124 25.5492 22.7966C25.5516 22.8002 25.7436 23.1285 25.9997 23.4627C26.1276 23.6298 26.2723 23.7987 26.424 23.9338C26.4998 24.0008 26.5768 24.0588 26.661 24.1039C26.7439 24.1471 26.8329 24.1786 26.9336 24.1797C26.9573 24.1797 26.9821 24.1774 27.0059 24.1727C27.0497 24.1739 27.0817 24.181 27.1019 24.1869C27.1351 24.2 27.1386 24.207 27.1469 24.2171C27.1528 24.229 27.1611 24.2538 27.1611 24.2936C27.1624 24.338 27.1517 24.3979 27.1327 24.4601C27.1055 24.5537 27.0617 24.6521 27.0237 24.725C27.0154 24.7416 27.0071 24.757 27 24.7707L26.1679 24.8678C26.0446 24.7624 25.7389 24.4951 25.4057 24.1916C25.0703 23.8858 24.7064 23.5409 24.4848 23.2932C24.2371 23.0194 24.1056 22.7527 24.0309 22.4978C23.9574 22.2419 23.9432 21.997 23.9432 21.7695C23.9432 21.7037 23.9373 21.6089 23.9266 21.4809C23.8922 21.0388 23.8069 20.228 23.7298 19.447C23.6919 19.057 23.6563 18.6736 23.6291 18.35C23.6019 18.0265 23.5852 17.7591 23.5852 17.6098C23.5852 17.5636 23.5877 17.5268 23.5888 17.515C23.6054 17.4072 23.6457 17.0688 23.699 16.594C23.8614 15.1717 24.147 12.5577 24.2347 11.5869C24.2928 10.957 24.4196 10.5297 24.6021 10.2061C24.7847 9.88255 25.0241 9.6538 25.3358 9.42621C25.4898 9.31476 25.7519 9.14704 26.0541 8.96218C26.5092 8.68302 27.0592 8.36188 27.4942 8.11115C27.7123 7.98556 27.9007 7.87764 28.0358 7.80063C28.1686 7.72415 28.2503 7.67972 28.2503 7.67972C28.3049 7.64767 28.3392 7.58964 28.3392 7.52615V6.11947C28.3392 6.05245 28.3013 5.99142 28.2421 5.96244L28.2408 5.96121C28.229 5.95537 28.1495 5.91325 28.0441 5.84392C28.0903 5.81486 28.184 5.74791 28.2811 5.64238C28.3463 5.57182 28.4127 5.48304 28.4637 5.37397C28.5146 5.26491 28.5502 5.1357 28.5502 4.99173C28.5502 4.83586 28.5087 4.66576 28.4139 4.48974C28.4957 4.43824 28.5644 4.3789 28.6178 4.30842C28.709 4.19105 28.7505 4.04708 28.7494 3.90596C28.7494 3.76553 28.7126 3.6251 28.657 3.48168C28.6463 3.45616 28.6356 3.42895 28.6225 3.4022C28.689 3.41173 28.7541 3.4165 28.8181 3.4165C29.0232 3.41473 29.2222 3.37023 29.3823 3.2494C29.4605 3.19013 29.5292 3.11012 29.573 3.01412C29.579 3.00228 29.5837 2.9916 29.5873 2.9803C29.6371 3.02119 29.6869 3.05616 29.7391 3.0846C29.9014 3.17469 30.0709 3.20489 30.2191 3.20489C30.4253 3.20374 30.5984 3.14978 30.7062 3.10535C30.7584 3.15101 30.8177 3.19482 30.8793 3.23456C31.0808 3.36315 31.3356 3.45024 31.6332 3.44909C31.6616 3.44909 31.6901 3.44786 31.7173 3.4467L31.7007 3.62034C31.6995 3.63633 31.7007 3.65178 31.7031 3.6683L31.8465 4.50035C31.8169 4.50865 31.7624 4.5181 31.6806 4.51695C31.6332 4.51695 31.5893 4.53524 31.5561 4.56845C31.5229 4.60104 31.504 4.64669 31.504 4.69297V5.77689C31.4992 5.78043 31.4909 5.78881 31.4732 5.79703C31.447 5.80894 31.4056 5.82017 31.3499 5.81955C31.2764 5.82017 31.1733 5.80064 31.05 5.7443C30.9955 5.7194 30.9327 5.72416 30.8816 5.75737C30.8319 5.78881 30.8011 5.84507 30.8011 5.90495V6.68542C30.8011 6.76305 30.8497 6.83007 30.9231 6.85313C30.9268 6.85429 31.1448 6.92369 31.44 6.99356C31.7339 7.06289 32.1038 7.13461 32.4225 7.13584C32.694 7.13584 33.142 7.13584 33.6339 7.22C33.5438 7.26735 33.4775 7.33376 33.4336 7.40662C33.3862 7.48656 33.3684 7.56842 33.3636 7.63829C33.2629 7.64306 33.1705 7.66319 33.0886 7.69871C32.9381 7.7615 32.8255 7.87887 32.7639 8.01277C32.6987 8.14728 32.6762 8.29609 32.6762 8.45012C32.6762 8.67233 32.7247 8.91061 32.7935 9.13882C32.8551 9.34204 32.9334 9.53766 33.014 9.70776C33.0033 9.74742 32.9985 9.78716 32.9985 9.82628C32.9985 9.9199 33.0222 10.0088 33.0566 10.0948C33.1171 10.2446 33.2131 10.3887 33.3221 10.5286C33.4868 10.7372 33.6812 10.9316 33.8377 11.0768C33.923 11.1569 33.9953 11.2202 34.0451 11.2623C34.0451 11.3221 34.0451 11.411 34.0463 11.5272C34.0546 13.0721 34.083 19.2705 34.083 19.5419C34.083 19.5632 34.0841 19.581 34.0865 19.6048C34.0961 19.6912 34.1174 19.8424 34.1517 20.0522C34.2667 20.7841 34.515 22.1951 34.752 23.4941C34.8705 24.1425 34.9855 24.7624 35.0791 25.2537C35.1253 25.499 35.1681 25.7123 35.2012 25.8818C35.2356 26.0507 35.2628 26.1751 35.2807 26.248C35.2866 26.2688 35.2961 26.2889 35.3079 26.3073C35.5864 26.6943 35.9065 27.351 36.1744 28.0728C36.4458 28.7964 36.6674 29.5887 36.7622 30.2549C36.8595 30.9393 36.9721 31.6979 37.0858 32.345C37.1415 32.6698 37.1984 32.9661 37.2529 33.2138C37.3099 33.461 37.3608 33.6571 37.4189 33.7952C37.4734 33.9262 37.5658 34.0986 37.6843 34.2953C37.8621 34.5911 38.0933 34.9389 38.3268 35.2536C38.4441 35.4107 38.5615 35.5582 38.674 35.6886C38.7866 35.8172 38.8922 35.9274 38.9916 36.0122L38.9929 36.0128C39.0996 36.1012 39.2039 36.2267 39.2868 36.3648C39.3022 36.3891 39.3164 36.414 39.3306 36.4395C39.4184 36.6072 39.4717 36.788 39.4705 36.9296C39.4705 37.0155 39.4539 37.086 39.4219 37.1405C39.3899 37.1968 39.3449 37.2413 39.2654 37.2804C39.0012 37.4037 38.6954 37.5045 38.399 37.5045C38.2319 37.5045 38.0695 37.4736 37.9107 37.3989C37.7519 37.3237 37.5954 37.2051 37.4449 37.0161C37.2541 36.7785 37.0585 36.5604 36.876 36.3648C36.7575 36.2368 36.6449 36.1201 36.5441 36.0128L36.5311 35.9992C36.4019 35.864 36.2928 35.7455 36.2181 35.653C36.1801 35.6074 36.1529 35.5676 36.1352 35.5369C36.1257 35.5226 36.1198 35.5114 36.1163 35.5031L36.1127 35.496V35.4936C36.1067 35.4574 36.0961 35.4071 36.0807 35.3425C35.9788 34.8803 35.6801 33.6849 35.6801 33.6849L35.6707 33.6571C35.6707 33.6571 35.1883 32.5382 34.6596 31.3227C34.1316 30.106 33.5602 28.7928 33.3837 28.3987C33.2094 28.0117 32.5932 26.5752 32.0028 25.1879C31.7078 24.4951 31.4185 23.8129 31.1922 23.2807C30.9682 22.7498 30.8058 22.3639 30.769 22.2715C30.7383 22.1927 30.6565 22.1482 30.5735 22.1637C30.4917 22.1791 30.4313 22.249 30.4289 22.332C30.4289 22.332 30.3625 25.9221 30.3625 28.1996C30.3625 28.6885 30.3661 29.1164 30.3732 29.4376C30.3767 29.5982 30.3826 29.7316 30.3886 29.8347C30.3921 29.8868 30.3956 29.9301 30.3992 29.9663C30.4016 29.9852 30.404 30.0019 30.4075 30.0178C30.4099 30.0344 30.4134 30.0505 30.4194 30.0706C30.4205 30.0754 30.4288 30.1097 30.4371 30.1559C30.4703 30.3343 30.5177 30.7118 30.5663 31.1717C30.641 31.8609 30.7251 32.7409 30.7891 33.4645C30.8211 33.8266 30.8495 34.1491 30.8673 34.3884C30.878 34.5082 30.8852 34.6065 30.8911 34.6788C30.8935 34.7155 30.8959 34.7446 30.8971 34.766C30.8971 34.7772 30.8982 34.7855 30.8982 34.7926V34.8021C30.8982 34.8175 30.8971 34.8655 30.8947 34.9325C30.8852 35.1541 30.8591 35.5956 30.8176 36.0128C30.8165 36.0342 30.8141 36.0556 30.8117 36.0763C30.8011 36.1759 30.7892 36.273 30.7762 36.3649C30.7608 36.4728 30.7441 36.5735 30.7276 36.6576C30.7122 36.7377 30.6944 36.804 30.6778 36.8502C30.6707 36.8733 30.6624 36.8911 30.6577 36.9005L30.6565 36.9018C30.6471 36.9065 30.6281 36.9118 30.6032 36.9178C30.5462 36.9307 30.4633 36.9414 30.3625 36.9485C30.2618 36.9556 30.1444 36.9592 30.0165 36.9592C29.4132 36.9592 28.5917 36.8899 28.1592 36.8537C28.0395 36.8443 27.9458 36.8288 27.8771 36.8098C27.8262 36.7974 27.7882 36.782 27.7634 36.7689C27.7266 36.7483 27.7171 36.7352 27.7113 36.7257C27.7065 36.7162 27.7017 36.702 27.7017 36.6706C27.7006 36.6285 27.7136 36.5592 27.7302 36.4774ZM26.5745 18.0058C26.4774 18.4681 26.379 18.9516 26.296 19.3642V19.3653C26.213 19.7795 26.1479 20.1191 26.117 20.3041V20.3047C26.0827 20.5103 26.072 20.732 26.072 20.9524C26.072 21.0572 26.0756 21.161 26.0791 21.2629L25.7057 20.8712L25.8172 17.0802L26.4382 15.0996L26.9183 16.3483C26.8661 16.5984 26.7239 17.2745 26.5734 18.0065L26.5745 18.0058ZM31.4199 35.0053C31.4247 34.9075 31.4258 34.8399 31.4258 34.802C31.4258 34.7902 31.4258 34.7737 31.4246 34.7547C31.4186 34.6398 31.3926 34.3161 31.3547 33.8752V33.8746C31.2978 33.215 31.2136 32.3047 31.1342 31.526C31.0939 31.136 31.056 30.7805 31.0205 30.5007V30.5026C31.0039 30.3621 30.9872 30.2424 30.9707 30.1458C30.9636 30.0972 30.9564 30.0539 30.9494 30.0166L30.9482 30.0142V30.0118C30.9411 29.981 30.9339 29.9531 30.9256 29.9229C30.9245 29.9163 30.9232 29.9069 30.9221 29.8944V29.8951C30.9126 29.7984 30.9031 29.5745 30.8983 29.2823V29.2818C30.8925 28.986 30.8901 28.6151 30.8901 28.1995C30.8901 27.0653 30.9067 25.6002 30.9245 24.4204C30.9268 24.28 30.928 24.1442 30.9304 24.0133C31.2397 24.7433 31.6155 25.6252 31.958 26.4282C32.3894 27.4369 32.7687 28.3151 32.9038 28.6156C33.0769 29.0002 33.6493 30.317 34.1755 31.5319C34.4393 32.1405 34.693 32.7231 34.879 33.1551V33.1557C34.9726 33.3714 35.0496 33.5486 35.1018 33.6713L35.103 33.6725V33.6731C35.1385 33.7554 35.1634 33.8124 35.1753 33.8408C35.186 33.8835 35.205 33.957 35.2298 34.0589C35.2855 34.2835 35.3697 34.6272 35.4455 34.9348L35.4443 34.9336C35.4811 35.0889 35.5166 35.2347 35.5427 35.3503C35.5558 35.4078 35.5676 35.4593 35.5759 35.4995C35.5854 35.5393 35.5914 35.5707 35.5914 35.5773L35.5926 35.5814V35.5844C35.6092 35.6798 35.6495 35.7539 35.6827 35.8096V35.8102L35.6839 35.812C35.6897 35.8203 35.697 35.8286 35.7017 35.8375H31.3642C31.3784 35.671 31.3903 35.5092 31.3998 35.3647V35.3653C31.4092 35.2246 31.4151 35.1013 31.4199 35.0053ZM40.4141 38.7679H26.3459V36.3648H27.3972C27.3924 36.3785 27.3889 36.3926 27.3854 36.4081C27.37 36.4886 27.3498 36.5735 27.3498 36.6706C27.3498 36.7329 27.3592 36.8034 27.3912 36.8722C27.4161 36.9237 27.4517 36.9722 27.4979 37.0108C27.5654 37.0706 27.6508 37.1104 27.7527 37.1406C27.8558 37.1714 27.9779 37.191 28.1296 37.204C28.5634 37.2402 29.3883 37.3107 30.0165 37.3107C30.2121 37.3107 30.3899 37.3036 30.5344 37.2864C30.6079 37.2769 30.6731 37.265 30.7335 37.2473C30.7632 37.2378 30.7916 37.2277 30.8201 37.2135C30.8497 37.1992 30.8769 37.1809 30.9054 37.1536C30.941 37.1187 30.9587 37.0837 30.9765 37.0482C31.0085 36.9812 31.0311 36.9065 31.0524 36.8194C31.082 36.6908 31.1081 36.5337 31.1306 36.3649H36.3925C36.6308 36.6155 36.9081 36.9083 37.1701 37.2366C37.349 37.4606 37.5517 37.6194 37.7615 37.7178C37.9725 37.8162 38.1894 37.8559 38.3992 37.8559C38.7737 37.8547 39.1245 37.7327 39.4138 37.5993C39.5536 37.5347 39.6614 37.4339 39.7278 37.3143C39.7955 37.1945 39.8215 37.0623 39.8215 36.9297C39.8215 36.74 39.7681 36.5468 39.6852 36.3649H40.4141V38.7679Z" fill="#ACACAC"/>
<path d="M32.3115 4.88562C32.3115 4.88562 32.3115 4.88635 32.31 4.88635V4.88773L32.3115 4.88562Z" fill="#ACACAC"/>
</svg>
