<svg width="62" height="44" viewBox="0 0 62 44" fill="none" xmlns="http://www.w3.org/2000/svg">
<path d="M24.0554 29.632H25.1114V40H23.9434L18.4714 31.248L18.5354 32.752V40H17.4794V29.632H18.6314L24.1034 38.352L24.0554 36.816V29.632ZM27.6922 32.128H28.7322V37.744C28.7429 38.2773 28.8869 38.6507 29.1642 38.864C29.4522 39.0773 29.8629 39.184 30.3962 39.184C30.9402 39.184 31.4149 39.0827 31.8202 38.88C32.2362 38.6773 32.4815 38.4853 32.5562 38.304V32.128H33.5802V37.936L33.8682 40H33.1962L33.1482 39.952L32.8122 39.056C32.3962 39.3333 32.0975 39.5307 31.9162 39.648C31.7349 39.7547 31.4682 39.8667 31.1162 39.984C30.7749 40.0907 30.4122 40.144 30.0282 40.144C28.5029 40.144 27.7242 39.3387 27.6922 37.728V32.128ZM36.2908 32.96C36.2908 32.9067 36.2641 32.88 36.2108 32.88H35.5708V32.416L36.3068 32.112L36.4828 30.704H37.2988V31.984C37.3308 32.0587 37.5495 32.096 37.9548 32.096H38.8988L38.7708 32.848L37.4268 32.864C37.3308 32.864 37.2828 32.8853 37.2828 32.928V37.984L37.6988 40.064H36.9948L36.9308 40.016L36.2908 37.984V32.96ZM40.2331 38.912C40.8944 39.168 41.5131 39.296 42.0891 39.296C42.6651 39.296 43.1557 39.1787 43.5611 38.944C43.9771 38.6987 44.1851 38.3787 44.1851 37.984C44.1851 37.5893 44.0464 37.2747 43.7691 37.04C43.4917 36.7947 43.1557 36.5973 42.7611 36.448C42.3664 36.2987 41.9717 36.144 41.5771 35.984C41.1931 35.8133 40.8624 35.5787 40.5851 35.28C40.3077 34.9707 40.1691 34.592 40.1691 34.144C40.1691 33.44 40.4144 32.9013 40.9051 32.528C41.3957 32.144 42.0091 31.952 42.7451 31.952C43.4917 31.952 44.2064 32.0747 44.8891 32.32L44.6811 33.056C44.1477 32.8747 43.5451 32.784 42.8731 32.784C41.7637 32.784 41.2091 33.216 41.2091 34.08C41.2091 34.6347 41.6891 35.0933 42.6491 35.456C43.0544 35.6053 43.4544 35.7707 43.8491 35.952C44.2544 36.1227 44.5957 36.3733 44.8731 36.704C45.1611 37.0347 45.3051 37.4347 45.3051 37.904C45.3051 38.6187 44.9957 39.168 44.3771 39.552C43.7584 39.936 43.0437 40.128 42.2331 40.128C41.4224 40.128 40.6757 39.984 39.9931 39.696L40.2331 38.912Z" fill="#ACACAC"/>
<path d="M28.4524 20.33C21.3351 18.7662 31.3645 9.18577 27.4662 7.81192C24.1849 6.65561 23.54 10.6651 22.5104 10.6651C21.0757 10.6651 18.3947 0.958056 27.4662 1.00014C36.5376 1.04221 31.8339 6.93996 30.9599 10.4762C30.2684 13.2744 29.8219 16.1063 29.6204 18.9719C31.2254 13.3271 33.5494 10.5048 36.5922 10.5048" stroke="#ACACAC" stroke-opacity="0.78" stroke-linecap="round" stroke-linejoin="round"/>
<path d="M36.5922 10.5049C36.6517 9.06659 37.1054 7.72215 37.2329 6.33984" stroke="#ACACAC" stroke-opacity="0.78" stroke-linecap="round" stroke-linejoin="round"/>
<path d="M37.233 6.33984C37.3021 6.59291 37.8837 7.38714 38.215 7.53947C39.7172 8.23034 43.348 8.53001 42.1043 10.7514C41.5616 11.7206 39.9228 11.8932 38.9245 11.8932" stroke="#ACACAC" stroke-opacity="0.78" stroke-linecap="round" stroke-linejoin="round"/>
<path d="M37.0779 14.9902C39.3714 15.4208 38.6855 20.0152 36.8994 21.0074C36.2344 21.3768 35.0284 21.5404 33.2815 21.4983H39.1553" stroke="#ACACAC" stroke-opacity="0.78" stroke-linecap="round" stroke-linejoin="round"/>
<path d="M37.1262 14.9902C38.7882 14.9902 39.9986 14.741 40.7573 14.2427" stroke="#ACACAC" stroke-opacity="0.78" stroke-linecap="round" stroke-linejoin="round"/>
<path d="M40.7573 14.4519C41.7062 19.5232 44.5199 12.2815 41.9353 13.2685C41.3812 13.4802 41.0125 13.6659 40.8087 14.2367" stroke="#ACACAC" stroke-opacity="0.78" stroke-linecap="round" stroke-linejoin="round"/>
<path d="M39.3964 9.75862C39.3936 9.72206 39.391 9.68551 39.3884 9.64905" stroke="#ACACAC" stroke-opacity="0.78" stroke-linecap="round" stroke-linejoin="round"/>
</svg>
