<svg width="62" height="45" viewBox="0 0 62 45" fill="none" xmlns="http://www.w3.org/2000/svg">
<path d="M13.2402 30.424C14.8509 30.424 15.9709 30.8027 16.6002 31.56C17.2402 32.3067 17.5602 33.6987 17.5602 35.736C17.5602 37.912 17.0055 39.432 15.8962 40.296C15.2882 40.776 14.5629 41.048 13.7202 41.112V41.544C13.7202 41.576 13.7202 41.608 13.7202 41.64C13.7202 42.216 13.8055 42.584 13.9762 42.744C14.1575 42.9147 14.6482 43.1013 15.4482 43.304C15.6402 43.3573 15.7949 43.4 15.9122 43.432C15.9122 43.7733 15.9282 44.0133 15.9602 44.152C14.7442 43.9813 13.8855 43.7147 13.3842 43.352C12.8935 43 12.6429 42.392 12.6322 41.528V41.112C12.1522 41.0907 11.7415 41.0373 11.4002 40.952C11.0589 40.8667 10.7229 40.712 10.3922 40.488C10.0722 40.264 9.81619 39.96 9.62419 39.576C9.19752 38.7227 8.98419 37.448 8.98419 35.752C8.98419 34.7813 9.11219 33.9333 9.36819 33.208C9.63485 32.4827 9.98685 31.928 10.4242 31.544C11.2562 30.7973 12.1949 30.424 13.2402 30.424ZM12.9362 31.416C11.9762 31.416 11.2669 31.752 10.8082 32.424C10.3495 33.096 10.1202 34.2053 10.1202 35.752C10.1202 37.2027 10.2909 38.28 10.6322 38.984C10.9309 39.5813 11.4589 39.944 12.2162 40.072C12.5469 40.136 12.9629 40.168 13.4642 40.168C14.4669 40.168 15.2082 39.8213 15.6882 39.128C16.1789 38.424 16.4242 37.2933 16.4242 35.736C16.4242 34.9467 16.3815 34.3067 16.2962 33.816C16.2109 33.3253 16.0455 32.888 15.8002 32.504C15.5655 32.1093 15.2135 31.832 14.7442 31.672C14.2855 31.5013 13.6829 31.416 12.9362 31.416ZM19.7547 33.128H20.7947V38.744C20.8054 39.2773 20.9494 39.6507 21.2267 39.864C21.5147 40.0773 21.9254 40.184 22.4587 40.184C23.0027 40.184 23.4774 40.0827 23.8827 39.88C24.2987 39.6773 24.544 39.4853 24.6187 39.304V33.128H25.6427V38.936L25.9307 41H25.2587L25.2107 40.952L24.8747 40.056C24.4587 40.3333 24.16 40.5307 23.9787 40.648C23.7974 40.7547 23.5307 40.8667 23.1787 40.984C22.8374 41.0907 22.4747 41.144 22.0907 41.144C20.5654 41.144 19.7867 40.3387 19.7547 38.728V33.128ZM32.5293 34.168C32.3693 34.0933 32.172 34.0293 31.9373 33.976C31.7133 33.9227 31.3986 33.896 30.9933 33.896C30.588 33.896 30.2306 33.9653 29.9213 34.104C29.6226 34.232 29.3986 34.456 29.2493 34.776C29.1106 35.0853 29.02 35.4053 28.9773 35.736C28.9346 36.056 28.9133 36.4987 28.9133 37.064C28.9133 38.2693 29.0466 39.1013 29.3133 39.56C29.5906 40.0187 30.1933 40.248 31.1213 40.248C31.6226 40.248 32.028 40.184 32.3373 40.056C32.6466 39.928 32.876 39.7147 33.0253 39.416C33.1746 39.1067 33.2706 38.7867 33.3133 38.456C33.356 38.1147 33.3773 37.7147 33.3773 37.256C33.3773 36.7867 33.372 36.456 33.3613 36.264C33.3613 36.0613 33.3453 35.832 33.3133 35.576C33.2813 35.3093 33.2333 35.1067 33.1693 34.968C33.116 34.8293 33.036 34.68 32.9293 34.52C32.8226 34.36 32.6893 34.2427 32.5293 34.168ZM31.1693 33C32.0013 33 32.6466 33.112 33.1053 33.336C33.564 33.5493 33.9053 33.9493 34.1293 34.536C34.3533 35.1227 34.4653 35.88 34.4653 36.808C34.4653 37.736 34.364 38.4773 34.1613 39.032C33.9693 39.5867 33.708 40.0133 33.3773 40.312C32.7373 40.888 31.9906 41.176 31.1373 41.176C29.8893 41.176 29.0253 40.8827 28.5453 40.296C28.0653 39.7093 27.8253 38.6373 27.8253 37.08C27.8253 36.3333 27.9266 35.6827 28.1293 35.128C28.332 34.5733 28.604 34.152 28.9453 33.864C29.6066 33.288 30.348 33 31.1693 33ZM36.6971 33.96C36.6971 33.9067 36.6704 33.88 36.6171 33.88H35.9771V33.416L36.7131 33.112L36.8891 31.704H37.7051V32.984C37.7371 33.0587 37.9557 33.096 38.3611 33.096H39.3051L39.1771 33.848L37.8331 33.864C37.7371 33.864 37.6891 33.8853 37.6891 33.928V38.984L38.1051 41.064H37.4011L37.3371 41.016L36.6971 38.984V33.96ZM46.4853 35.864C46.4853 36.248 46.4533 36.648 46.3893 37.064H41.3653C41.408 38.2373 41.6053 39.048 41.9573 39.496C42.3093 39.9333 42.9333 40.152 43.8293 40.152C44.5013 40.152 45.2853 40.008 46.1813 39.72L46.2773 40.52C46.032 40.616 45.84 40.6853 45.7013 40.728C45.5733 40.76 45.4346 40.8027 45.2853 40.856C45.136 40.8987 45.024 40.9307 44.9493 40.952C44.8746 40.9733 44.768 41 44.6293 41.032C44.4906 41.064 44.3733 41.0853 44.2773 41.096C43.9893 41.128 43.744 41.144 43.5413 41.144C42.5386 41.144 41.7493 40.792 41.1733 40.088C40.5973 39.384 40.3093 38.4027 40.3093 37.144C40.3093 36.4507 40.3946 35.8427 40.5653 35.32C40.736 34.7867 40.9386 34.3813 41.1733 34.104C41.408 33.816 41.6906 33.5867 42.0213 33.416C42.512 33.1493 43.0453 33.0053 43.6213 32.984C45.5306 32.9947 46.4853 33.9547 46.4853 35.864ZM45.4773 35.608C45.4773 34.968 45.3173 34.52 44.9973 34.264C44.6773 34.008 44.2026 33.88 43.5733 33.88C42.944 33.88 42.4266 34.0507 42.0213 34.392C41.616 34.7227 41.408 35.3413 41.3973 36.248H45.4293C45.4613 36.0027 45.4773 35.7893 45.4773 35.608ZM48.2643 39.912C48.9256 40.168 49.5443 40.296 50.1203 40.296C50.6963 40.296 51.187 40.1787 51.5923 39.944C52.0083 39.6987 52.2163 39.3787 52.2163 38.984C52.2163 38.5893 52.0776 38.2747 51.8003 38.04C51.523 37.7947 51.187 37.5973 50.7923 37.448C50.3976 37.2987 50.003 37.144 49.6083 36.984C49.2243 36.8133 48.8936 36.5787 48.6163 36.28C48.339 35.9707 48.2003 35.592 48.2003 35.144C48.2003 34.44 48.4456 33.9013 48.9363 33.528C49.427 33.144 50.0403 32.952 50.7763 32.952C51.523 32.952 52.2376 33.0747 52.9203 33.32L52.7123 34.056C52.179 33.8747 51.5763 33.784 50.9043 33.784C49.795 33.784 49.2403 34.216 49.2403 35.08C49.2403 35.6347 49.7203 36.0933 50.6803 36.456C51.0856 36.6053 51.4856 36.7707 51.8803 36.952C52.2856 37.1227 52.627 37.3733 52.9043 37.704C53.1923 38.0347 53.3363 38.4347 53.3363 38.904C53.3363 39.6187 53.027 40.168 52.4083 40.552C51.7896 40.936 51.075 41.128 50.2643 41.128C49.4536 41.128 48.707 40.984 48.0243 40.696L48.2643 39.912Z" fill="#ACACAC"/>
<path d="M34.125 14.625V13.25C34.125 11.9686 34.125 11.328 34.3343 10.8226C34.6134 10.1488 35.1488 9.6134 35.8226 9.33427C36.328 9.125 36.9686 9.125 38.25 9.125H38.9375C40.8687 9.125 41.8342 9.125 42.5278 9.58851C42.8281 9.78913 43.0859 10.0469 43.2865 10.3472C43.75 11.0408 43.75 12.0063 43.75 13.9375V15.0968C43.75 16.2208 43.75 16.7829 43.5407 17.2882C43.3313 17.7937 42.9339 18.1911 42.139 18.986L41.3294 19.7956C40.7005 20.4245 39.625 19.979 39.625 19.0895V18.5832C39.625 17.9159 39.0841 17.375 38.4168 17.375H36.875C35.3562 17.375 34.125 16.1438 34.125 14.625Z" stroke="#ACACAC" stroke-width="1.056" stroke-linejoin="round"/>
<path d="M19 6.375V5C19 3.71867 19 3.078 19.2093 2.57262C19.4884 1.8988 20.0238 1.36344 20.6976 1.08433C21.203 0.875 21.8437 0.875 23.125 0.875H23.8125C25.7436 0.875 26.7092 0.875 27.4028 1.33846C27.7031 1.5391 27.9609 1.79691 28.1615 2.09718C28.625 2.7908 28.625 3.75637 28.625 5.6875V6.84683C28.625 7.97083 28.625 8.53293 28.4157 9.03824C28.2063 9.54369 27.8089 9.94106 27.0141 10.736L26.2045 11.5455C25.5755 12.1745 24.5 11.729 24.5 10.8395V10.3332C24.5 9.66593 23.9591 9.125 23.2918 9.125H21.75C20.2312 9.125 19 7.89382 19 6.375Z" stroke="#ACACAC" stroke-width="1.056" stroke-linejoin="round"/>
</svg>
