<svg width="62" height="48" viewBox="0 0 62 48" fill="none" xmlns="http://www.w3.org/2000/svg">
<path d="M11.3447 42.8C12.166 43.1093 13.0514 43.264 14.0007 43.264C14.95 43.264 15.622 43.1253 16.0167 42.848C16.4114 42.56 16.6087 42.032 16.6087 41.264C16.6087 40.8587 16.4807 40.5227 16.2247 40.256C15.9794 40.0213 15.7554 39.8507 15.5527 39.744L14.9767 39.456C14.7954 39.3707 14.5714 39.2693 14.3047 39.152C14.0487 39.0347 13.8247 38.9333 13.6327 38.848C13.4407 38.752 13.1794 38.6187 12.8487 38.448C12.518 38.2667 12.2834 38.1173 12.1447 38C12.006 37.872 11.8514 37.7173 11.6807 37.536C11.382 37.2053 11.2327 36.7787 11.2327 36.256C11.2327 35.3707 11.5367 34.6827 12.1447 34.192C12.7527 33.6907 13.5367 33.44 14.4967 33.44C15.4567 33.44 16.3474 33.5733 17.1687 33.84L16.9607 34.64C16.2994 34.4267 15.5367 34.32 14.6727 34.32C13.8194 34.32 13.2167 34.4587 12.8647 34.736C12.5127 35.0027 12.3367 35.4667 12.3367 36.128C12.3367 36.6187 12.5874 37.024 13.0887 37.344C13.494 37.6 14.118 37.9147 14.9607 38.288C15.8034 38.6507 16.374 38.9333 16.6727 39.136C17.43 39.648 17.814 40.3413 17.8247 41.216C17.8247 43.168 16.5607 44.144 14.0327 44.144C12.9767 44.144 11.99 43.9893 11.0727 43.68L11.3447 42.8ZM22.8434 35.984C24.0808 35.984 24.9074 36.3733 25.3234 37.152C25.5261 37.536 25.6648 37.9467 25.7394 38.384C25.8141 38.8107 25.8514 39.3653 25.8514 40.048C25.8514 40.72 25.7608 41.3333 25.5794 41.888C25.3981 42.432 25.1848 42.8427 24.9394 43.12C24.6941 43.3973 24.4114 43.6213 24.0914 43.792C23.6328 44.0373 23.1901 44.16 22.7634 44.16C22.3474 44.16 21.6968 43.9733 20.8114 43.6V47.216H19.8194V38.16L19.5474 36.224H20.2034L20.2514 36.272L20.5394 37.088C21.2328 36.352 22.0008 35.984 22.8434 35.984ZM20.8114 42.912C21.3874 43.1147 21.9474 43.216 22.4914 43.216C23.0461 43.216 23.4568 43.152 23.7234 43.024C24.0008 42.8853 24.2034 42.736 24.3314 42.576C24.4701 42.4053 24.5714 42.1547 24.6354 41.824C24.7101 41.4933 24.7474 41.232 24.7474 41.04C24.7581 40.848 24.7634 40.5227 24.7634 40.064C24.7634 39.5947 24.7528 39.2213 24.7314 38.944C24.7208 38.656 24.6834 38.3627 24.6194 38.064C24.5661 37.7547 24.4754 37.536 24.3474 37.408C24.0274 37.088 23.5528 36.928 22.9234 36.928C22.0274 36.928 21.3234 37.2213 20.8114 37.808V42.912ZM32.3106 37.168C32.1506 37.0933 31.9532 37.0293 31.7186 36.976C31.4946 36.9227 31.1799 36.896 30.7746 36.896C30.3692 36.896 30.0119 36.9653 29.7026 37.104C29.4039 37.232 29.1799 37.456 29.0306 37.776C28.8919 38.0853 28.8012 38.4053 28.7586 38.736C28.7159 39.056 28.6946 39.4987 28.6946 40.064C28.6946 41.2693 28.8279 42.1013 29.0946 42.56C29.3719 43.0187 29.9746 43.248 30.9026 43.248C31.4039 43.248 31.8092 43.184 32.1186 43.056C32.4279 42.928 32.6572 42.7147 32.8066 42.416C32.9559 42.1067 33.0519 41.7867 33.0946 41.456C33.1372 41.1147 33.1586 40.7147 33.1586 40.256C33.1586 39.7867 33.1532 39.456 33.1426 39.264C33.1426 39.0613 33.1266 38.832 33.0946 38.576C33.0626 38.3093 33.0146 38.1067 32.9506 37.968C32.8972 37.8293 32.8172 37.68 32.7106 37.52C32.6039 37.36 32.4706 37.2427 32.3106 37.168ZM30.9506 36C31.7826 36 32.4279 36.112 32.8866 36.336C33.3452 36.5493 33.6866 36.9493 33.9106 37.536C34.1346 38.1227 34.2466 38.88 34.2466 39.808C34.2466 40.736 34.1452 41.4773 33.9426 42.032C33.7506 42.5867 33.4892 43.0133 33.1586 43.312C32.5186 43.888 31.7719 44.176 30.9186 44.176C29.6706 44.176 28.8066 43.8827 28.3266 43.296C27.8466 42.7093 27.6066 41.6373 27.6066 40.08C27.6066 39.3333 27.7079 38.6827 27.9106 38.128C28.1132 37.5733 28.3852 37.152 28.7266 36.864C29.3879 36.288 30.1292 36 30.9506 36ZM39.6764 36C39.8898 36 40.1244 36.032 40.3804 36.096L39.9964 37.04C39.8258 37.008 39.6551 36.992 39.4844 36.992C38.8124 36.992 38.1298 37.3653 37.4364 38.112V44H36.4444V38.176L36.1724 36.224H36.7804L36.8284 36.256L37.1324 37.392C37.6018 36.9333 38.0284 36.5867 38.4124 36.352C38.7964 36.1173 39.2178 36 39.6764 36ZM42.0096 36.96C42.0096 36.9067 41.9829 36.88 41.9296 36.88H41.2896V36.416L42.0256 36.112L42.2016 34.704H43.0176V35.984C43.0496 36.0587 43.2682 36.096 43.6736 36.096H44.6176L44.4896 36.848L43.1456 36.864C43.0496 36.864 43.0016 36.8853 43.0016 36.928V41.984L43.4176 44.064H42.7136L42.6496 44.016L42.0096 41.984V36.96ZM45.9518 42.912C46.6131 43.168 47.2318 43.296 47.8078 43.296C48.3838 43.296 48.8745 43.1787 49.2798 42.944C49.6958 42.6987 49.9038 42.3787 49.9038 41.984C49.9038 41.5893 49.7651 41.2747 49.4878 41.04C49.2105 40.7947 48.8745 40.5973 48.4798 40.448C48.0851 40.2987 47.6905 40.144 47.2958 39.984C46.9118 39.8133 46.5811 39.5787 46.3038 39.28C46.0265 38.9707 45.8878 38.592 45.8878 38.144C45.8878 37.44 46.1331 36.9013 46.6238 36.528C47.1145 36.144 47.7278 35.952 48.4638 35.952C49.2105 35.952 49.9251 36.0747 50.6078 36.32L50.3998 37.056C49.8665 36.8747 49.2638 36.784 48.5918 36.784C47.4825 36.784 46.9278 37.216 46.9278 38.08C46.9278 38.6347 47.4078 39.0933 48.3678 39.456C48.7731 39.6053 49.1731 39.7707 49.5678 39.952C49.9731 40.1227 50.3145 40.3733 50.5918 40.704C50.8798 41.0347 51.0238 41.4347 51.0238 41.904C51.0238 42.6187 50.7145 43.168 50.0958 43.552C49.4771 43.936 48.7625 44.128 47.9518 44.128C47.1411 44.128 46.3945 43.984 45.7118 43.696L45.9518 42.912Z" fill="#ACACAC"/>
<path d="M31.4772 22.0376L16.8579 9.62927L16 10.6406L30.621 23.0507L30.623 23.0524C32.285 24.4509 34.3945 25.2206 36.567 25.221H45.9374V23.8945H36.567C34.7085 23.8946 32.8986 23.2349 31.4772 22.0376Z" fill="#696969"/>
<path d="M27.9176 17.3089L31.1996 20.0708C31.0783 19.4607 30.8116 18.8085 30.2846 18.2068C29.8763 17.74 28.9997 16.777 27.9453 15.5974C27.9178 16.167 27.9068 16.7427 27.9176 17.3089Z" fill="#696969"/>
<path d="M24.2675 9.66315C23.6981 9.15549 23.192 8.68569 22.7736 8.26721C23.1792 8.8944 23.5548 9.46399 24.1143 10.1712C24.1635 10.0038 24.2147 9.8346 24.2675 9.66315Z" fill="#696969"/>
<path d="M27.4205 12.356C26.5676 11.6466 25.7527 10.9606 25.015 10.3202C24.9627 10.5624 24.9104 10.8107 24.8603 11.066C25.4376 11.7288 26.1811 12.5235 27.1938 13.544C27.2609 13.159 27.3359 12.7621 27.4205 12.356Z" fill="#696969"/>
<path d="M35.3656 22.4555C35.3438 21.3893 35.1078 18.7496 33.3759 17.2873C31.7405 15.9063 29.904 14.4107 28.1721 12.9788C28.1187 13.4227 28.0695 13.8921 28.028 14.3755C28.1415 14.488 28.2558 14.6006 28.3754 14.7175C30.7217 17.0175 32.5485 18.8243 32.7586 21.3519C33.5395 21.9066 34.4292 22.2815 35.3656 22.4555Z" fill="#696969"/>
<path d="M24.3905 14.3404L26.8008 16.3688C26.8562 15.8395 26.93 15.2317 27.0285 14.5672C26.2701 13.7097 25.4685 12.7903 24.7086 11.8901C24.5709 12.6865 24.4567 13.5185 24.3905 14.3404Z" fill="#696969"/>
<path d="M23.9027 10.9228C22.7173 9.47807 21.7336 8.17142 21.3447 7.37941L21.6716 6.98783C21.671 6.98736 21.6703 6.98648 21.6703 6.98648L22.0615 6.50214C22.0615 6.50214 23.0847 7.48312 24.5505 8.79023C24.7856 8.09666 25.0513 7.38773 25.3521 6.68232L25.9088 6.89244C25.9088 6.89244 25.5833 7.90945 25.2278 9.38883C25.9692 10.0385 26.788 10.7381 27.6272 11.422C27.7846 10.7544 27.9664 10.0719 28.1775 9.38842L28.7254 9.53391C28.7254 9.53391 28.5135 10.5254 28.3061 11.9675C29.2058 12.6808 30.1094 13.355 30.9459 13.9088C34.521 16.2778 36.9677 18.7558 37.2234 22.5681C38.4388 22.5681 41.1439 22.5681 43.6165 22.5681C46.932 22.5681 46.4347 19.2529 44.2795 18.7558C42.8259 18.42 40.9581 17.6486 40.9581 17.6486C40.2213 17.4029 39.6183 16.864 39.2917 16.1591C39.2917 16.1591 39.2113 15.9891 39.0762 15.7007L36.369 16.5195C36.0732 16.6087 35.7609 16.4413 35.6715 16.1459C35.582 15.8501 35.7493 15.5376 36.045 15.4484L38.5954 14.677C38.376 14.2103 38.1216 13.6671 37.8535 13.0939L35.3239 13.8591C35.0286 13.9483 34.7158 13.7813 34.6264 13.4855C34.537 13.1897 34.7044 12.8777 35 12.788L37.3748 12.0698C37.1221 11.5275 36.8705 10.9873 36.638 10.4854L34.2789 11.1987C33.9834 11.2884 33.6709 11.121 33.5814 10.8251C33.4922 10.5298 33.6592 10.2173 33.9548 10.1281L36.1646 9.45961C35.848 8.76996 35.6177 8.25931 35.5568 8.10105C35.2904 7.40929 34.7065 5.49169 33.3739 6.55839C31.1832 8.31164 27.1867 7.79695 26.1549 5.88023C25.3814 4.44351 25.8233 2.8964 26.1549 1.68069C26.4197 0.708915 25.0493 -0.806087 24.0547 0.51995C23.3515 1.45745 17.4236 8.47734 17.4236 8.47734L23.3097 13.4307C23.4548 12.7142 23.6491 11.8576 23.9027 10.9228Z" fill="#696969"/>
</svg>
