<svg width="30" height="36" viewBox="0 0 30 36" fill="none" xmlns="http://www.w3.org/2000/svg">
<path d="M20.5555 0.00118786V1.84198H18.6666V3.68277H16.7778V5.52364H14.8889V7.36443H13V9.2053H16.7778V18.4093H18.6666V16.5685H20.5555C20.5555 16.1876 20.3642 15.0986 20.6502 14.8199C20.9299 14.5475 22.0041 14.7275 22.3854 14.7275V16.5683C22.8901 16.6923 23.7444 16.3337 24.1965 16.6264C24.5267 16.8413 24.3334 18.0494 24.3334 18.4081H26.2222V9.20411H30V7.36324H28.1111V5.52245H26.2222V3.68158H24.3334V1.84079H22.4445V0L20.5555 0.00118786ZM20.5556 18.4081V20.2489H22.4445C22.4445 19.9043 22.6356 18.6879 22.3499 18.4672C22.0311 18.2207 20.9583 18.4081 20.5556 18.4081ZM18.6668 22.0907V23.9316C19.0537 23.9316 20.1614 24.1189 20.4587 23.8734C20.6044 23.753 20.4967 23.3002 20.4967 23.1272C20.4966 22.9087 20.6139 22.3609 20.4897 22.184C20.4002 22.0563 20.1591 22.0916 20.0243 22.0916L18.6668 22.0907Z" fill="#36D1DB"/>
<path d="M7.55552 12.0012V13.842H5.66664V15.6828H3.77776V17.5236H1.88887V19.3644H0V21.2053H3.77776V30.4093H5.66664V28.5685H7.55552C7.55552 28.1876 7.36419 27.0986 7.65018 26.8199C7.92991 26.5475 9.00405 26.7275 9.38538 26.7275V28.5683C9.89013 28.6923 10.7444 28.3337 11.1965 28.6264C11.5267 28.8413 11.3334 30.0494 11.3334 30.4081H13.2222V21.2041H17V19.3632H15.1111V17.5225H13.2222V15.6816H11.3334V13.8408H9.44448V12L7.55552 12.0012ZM7.5556 30.4081V32.2489H9.44448C9.44448 31.9043 9.63564 30.6879 9.34987 30.4672C9.03112 30.2207 7.95833 30.4081 7.5556 30.4081ZM5.66676 34.0907V35.9316C6.05365 35.9316 7.16139 36.1189 7.45868 35.8734C7.60441 35.753 7.49671 35.3002 7.49671 35.1272C7.49663 34.9087 7.61387 34.3609 7.48966 34.184C7.40021 34.0563 7.15906 34.0916 7.02435 34.0916L5.66676 34.0907Z" fill="#36D1DB"/>
</svg>
