<svg width="74" height="13" viewBox="0 0 74 13" fill="none" xmlns="http://www.w3.org/2000/svg">
<path d="M6.5 3.90594L6.83429 4.70967L7.18614 5.55561L8.0994 5.62883L8.9671 5.69839L8.30601 6.26469L7.61019 6.86072L7.82278 7.75191L8.02475 8.59864L7.28188 8.1449L6.5 7.66733L5.71812 8.1449L4.97525 8.59864L5.17722 7.75191L5.38981 6.86072L4.69399 6.26469L4.0329 5.69839L4.9006 5.62883L5.81386 5.55561L6.16571 4.70967L6.5 3.90594Z" fill="#F1C644" stroke="#F1C644" stroke-width="3"/>
<path d="M21.2727 3.63028L21.7823 4.75341L22.1503 5.56433L23.0384 5.62959L24.0441 5.7035L23.3811 6.22412L22.6084 6.83085L22.8558 7.78163L23.1027 8.7305L22.0055 8.11618L21.2727 7.70589L20.5399 8.11618L19.4427 8.7305L19.6897 7.78163L19.9371 6.83085L19.1644 6.22412L18.5014 5.7035L19.5071 5.62959L20.3952 5.56433L20.7631 4.75341L21.2727 3.63028Z" fill="#F1C644" stroke="#F1C644" stroke-width="3"/>
<path d="M36.6363 3.63028L37.146 4.75341L37.5139 5.56433L38.402 5.62959L39.4077 5.7035L38.7447 6.22412L37.972 6.83085L38.2194 7.78163L38.4663 8.7305L37.3692 8.11618L36.6363 7.70589L35.9035 8.11618L34.8064 8.7305L35.0533 7.78163L35.3007 6.83085L34.528 6.22412L33.865 5.7035L34.8707 5.62959L35.7588 5.56433L36.1267 4.75341L36.6363 3.63028Z" fill="#F1C644" stroke="#F1C644" stroke-width="3"/>
<path d="M52 3.63028L52.5096 4.75341L52.8775 5.56433L53.7656 5.62959L54.7714 5.7035L54.1084 6.22412L53.3357 6.83085L53.5831 7.78163L53.83 8.7305L52.7328 8.11618L52 7.70589L51.2672 8.11618L50.17 8.7305L50.4169 7.78163L50.6643 6.83085L49.8916 6.22412L49.2286 5.7035L50.2344 5.62959L51.1225 5.56433L51.4904 4.75341L52 3.63028Z" fill="#F1C644" stroke="#F1C644" stroke-width="3"/>
<path d="M66.7727 3.90594L67.107 4.70967L67.4589 5.55561L68.3721 5.62883L69.2398 5.69839L68.5787 6.26469L67.8829 6.86072L68.0955 7.75191L68.2975 8.59864L67.5546 8.1449L66.7727 7.66733L65.9909 8.1449L65.248 8.59864L65.45 7.75191L65.6625 6.86072L64.9667 6.26469L64.3056 5.69839L65.1733 5.62883L66.0866 5.55561L66.4384 4.70967L66.7727 3.90594Z" fill="#F1C644" stroke="#F1C644" stroke-width="3"/>
</svg>
