<?xml version="1.0" encoding="UTF-8" standalone="no"?>
<svg
   width="62"
   height="53"
   viewBox="0 0 62 53"
   fill="none"
   version="1.1"
   id="svg3"
   sodipodi:docname="set_indicator.svg"
   inkscape:version="1.3-beta (cedbd6c6ff, 2023-05-28)"
   xmlns:inkscape="http://www.inkscape.org/namespaces/inkscape"
   xmlns:sodipodi="http://sodipodi.sourceforge.net/DTD/sodipodi-0.dtd"
   xmlns="http://www.w3.org/2000/svg"
   xmlns:svg="http://www.w3.org/2000/svg">
  <defs
     id="defs3" />
  <sodipodi:namedview
     id="namedview3"
     pagecolor="#505050"
     bordercolor="#ffffff"
     borderopacity="1"
     inkscape:showpageshadow="0"
     inkscape:pageopacity="0"
     inkscape:pagecheckerboard="1"
     inkscape:deskcolor="#505050"
     inkscape:zoom="20.887097"
     inkscape:cx="31"
     inkscape:cy="30.138224"
     inkscape:window-width="2560"
     inkscape:window-height="1351"
     inkscape:window-x="-9"
     inkscape:window-y="-9"
     inkscape:window-maximized="1"
     inkscape:current-layer="svg3" />
  <path
     d="m 13.2402,38.424 c 1.6107,0 2.7307,0.3787 3.36,1.136 0.64,0.7467 0.96,2.1387 0.96,4.176 0,2.176 -0.5547,3.696 -1.664,4.56 -0.608,0.48 -1.3333,0.752 -2.176,0.816 v 0.432 c 0,0.032 0,0.064 0,0.096 0,0.576 0.0853,0.944 0.256,1.104 0.1813,0.1707 0.672,0.3573 1.472,0.56 0.192,0.0533 0.3467,0.096 0.464,0.128 0,0.3413 0.016,0.5813 0.048,0.72 -1.216,-0.1707 -2.0747,-0.4373 -2.576,-0.8 -0.4907,-0.352 -0.7413,-0.96 -0.752,-1.824 v -0.416 c -0.48,-0.0213 -0.8907,-0.0747 -1.232,-0.16 -0.3413,-0.0853 -0.6773,-0.24 -1.008,-0.464 -0.32,-0.224 -0.57601,-0.528 -0.76801,-0.912 -0.42667,-0.8533 -0.64,-2.128 -0.64,-3.824 0,-0.9707 0.128,-1.8187 0.384,-2.544 0.26666,-0.7253 0.61866,-1.28 1.05601,-1.664 0.832,-0.7467 1.7707,-1.12 2.816,-1.12 z m -0.304,0.992 c -0.96,0 -1.6693,0.336 -2.128,1.008 -0.4587,0.672 -0.688,1.7813 -0.688,3.328 0,1.4507 0.1707,2.528 0.512,3.232 0.2987,0.5973 0.8267,0.96 1.584,1.088 0.3307,0.064 0.7467,0.096 1.248,0.096 1.0027,0 1.744,-0.3467 2.224,-1.04 0.4907,-0.704 0.736,-1.8347 0.736,-3.392 0,-0.7893 -0.0427,-1.4293 -0.128,-1.92 -0.0853,-0.4907 -0.2507,-0.928 -0.496,-1.312 -0.2347,-0.3947 -0.5867,-0.672 -1.056,-0.832 -0.4587,-0.1707 -1.0613,-0.256 -1.808,-0.256 z m 6.8185,1.712 h 1.04 v 5.616 c 0.0107,0.5333 0.1547,0.9067 0.432,1.12 0.288,0.2133 0.6987,0.32 1.232,0.32 0.544,0 1.0187,-0.1013 1.424,-0.304 0.416,-0.2027 0.6613,-0.3947 0.736,-0.576 v -6.176 h 1.024 v 5.808 L 25.9307,49 h -0.672 l -0.048,-0.048 -0.336,-0.896 c -0.416,0.2773 -0.7147,0.4747 -0.896,0.592 -0.1813,0.1067 -0.448,0.2187 -0.8,0.336 -0.3413,0.1067 -0.704,0.16 -1.088,0.16 -1.5253,0 -2.304,-0.8053 -2.336,-2.416 z m 12.7746,1.04 c -0.16,-0.0747 -0.3573,-0.1387 -0.592,-0.192 -0.224,-0.0533 -0.5387,-0.08 -0.944,-0.08 -0.4053,0 -0.7627,0.0693 -1.072,0.208 -0.2987,0.128 -0.5227,0.352 -0.672,0.672 -0.1387,0.3093 -0.2293,0.6293 -0.272,0.96 -0.0427,0.32 -0.064,0.7627 -0.064,1.328 0,1.2053 0.1333,2.0373 0.4,2.496 0.2773,0.4587 0.88,0.688 1.808,0.688 0.5013,0 0.9067,-0.064 1.216,-0.192 0.3093,-0.128 0.5387,-0.3413 0.688,-0.64 0.1493,-0.3093 0.2453,-0.6293 0.288,-0.96 0.0427,-0.3413 0.064,-0.7413 0.064,-1.2 0,-0.4693 -0.0053,-0.8 -0.016,-0.992 0,-0.2027 -0.016,-0.432 -0.048,-0.688 -0.032,-0.2667 -0.08,-0.4693 -0.144,-0.608 -0.0533,-0.1387 -0.1333,-0.288 -0.24,-0.448 -0.1067,-0.16 -0.24,-0.2773 -0.4,-0.352 z M 31.1693,41 c 0.832,0 1.4773,0.112 1.936,0.336 0.4587,0.2133 0.8,0.6133 1.024,1.2 0.224,0.5867 0.336,1.344 0.336,2.272 0,0.928 -0.1013,1.6693 -0.304,2.224 -0.192,0.5547 -0.4533,0.9813 -0.784,1.28 -0.64,0.576 -1.3867,0.864 -2.24,0.864 -1.248,0 -2.112,-0.2933 -2.592,-0.88 -0.48,-0.5867 -0.72,-1.6587 -0.72,-3.216 0,-0.7467 0.1013,-1.3973 0.304,-1.952 0.2027,-0.5547 0.4747,-0.976 0.816,-1.264 C 29.6066,41.288 30.348,41 31.1693,41 Z m 5.5278,0.96 c 0,-0.0533 -0.0267,-0.08 -0.08,-0.08 h -0.64 v -0.464 l 0.736,-0.304 0.176,-1.408 h 0.816 v 1.28 c 0.032,0.0747 0.2506,0.112 0.656,0.112 h 0.944 l -0.128,0.752 -1.344,0.016 c -0.096,0 -0.144,0.0213 -0.144,0.064 v 5.056 l 0.416,2.08 h -0.704 l -0.064,-0.048 -0.64,-2.032 z m 9.7882,1.904 c 0,0.384 -0.032,0.784 -0.096,1.2 h -5.024 c 0.0427,1.1733 0.24,1.984 0.592,2.432 0.352,0.4373 0.976,0.656 1.872,0.656 0.672,0 1.456,-0.144 2.352,-0.432 l 0.096,0.8 c -0.2453,0.096 -0.4373,0.1653 -0.576,0.208 -0.128,0.032 -0.2667,0.0747 -0.416,0.128 -0.1493,0.0427 -0.2613,0.0747 -0.336,0.096 -0.0747,0.0213 -0.1813,0.048 -0.32,0.08 -0.1387,0.032 -0.256,0.0533 -0.352,0.064 -0.288,0.032 -0.5333,0.048 -0.736,0.048 -1.0027,0 -1.792,-0.352 -2.368,-1.056 -0.576,-0.704 -0.864,-1.6853 -0.864,-2.944 0,-0.6933 0.0853,-1.3013 0.256,-1.824 0.1707,-0.5333 0.3733,-0.9387 0.608,-1.216 0.2347,-0.288 0.5173,-0.5173 0.848,-0.688 0.4907,-0.2667 1.024,-0.4107 1.6,-0.432 1.9093,0.0107 2.864,0.9707 2.864,2.88 z m -1.008,-0.256 c 0,-0.64 -0.16,-1.088 -0.48,-1.344 -0.32,-0.256 -0.7947,-0.384 -1.424,-0.384 -0.6293,0 -1.1467,0.1707 -1.552,0.512 -0.4053,0.3307 -0.6133,0.9493 -0.624,1.856 h 4.032 c 0.032,-0.2453 0.048,-0.4587 0.048,-0.64 z m 2.787,4.304 c 0.6613,0.256 1.28,0.384 1.856,0.384 0.576,0 1.0667,-0.1173 1.472,-0.352 0.416,-0.2453 0.624,-0.5653 0.624,-0.96 0,-0.3947 -0.1387,-0.7093 -0.416,-0.944 -0.2773,-0.2453 -0.6133,-0.4427 -1.008,-0.592 -0.3947,-0.1493 -0.7893,-0.304 -1.184,-0.464 -0.384,-0.1707 -0.7147,-0.4053 -0.992,-0.704 -0.2773,-0.3093 -0.416,-0.688 -0.416,-1.136 0,-0.704 0.2453,-1.2427 0.736,-1.616 0.4907,-0.384 1.104,-0.576 1.84,-0.576 0.7467,0 1.4613,0.1227 2.144,0.368 l -0.208,0.736 c -0.5333,-0.1813 -1.136,-0.272 -1.808,-0.272 -1.1093,0 -1.664,0.432 -1.664,1.296 0,0.5547 0.48,1.0133 1.44,1.376 0.4053,0.1493 0.8053,0.3147 1.2,0.496 0.4053,0.1707 0.7467,0.4213 1.024,0.752 0.288,0.3307 0.432,0.7307 0.432,1.2 0,0.7147 -0.3093,1.264 -0.928,1.648 -0.6187,0.384 -1.3333,0.576 -2.144,0.576 -0.8107,0 -1.5573,-0.144 -2.24,-0.432 z"
     fill="#acacac"
     id="path1" />
  <path
     d="M 34.125,22.625 V 21.25 c 0,-1.2814 0,-1.922 0.2093,-2.4274 0.2791,-0.6738 0.8145,-1.2092 1.4883,-1.48833 C 36.328,17.125 36.9686,17.125 38.25,17.125 h 0.6875 c 1.9312,0 2.8967,0 3.5903,0.46351 0.3003,0.20062 0.5581,0.45839 0.7587,0.75869 0.4635,0.6936 0.4635,1.6591 0.4635,3.5903 v 1.1593 c 0,1.124 0,1.6861 -0.2093,2.1914 -0.2094,0.5055 -0.6068,0.9029 -1.4017,1.6978 l -0.8096,0.8096 C 40.7005,28.4245 39.625,27.979 39.625,27.0895 v -0.5063 c 0,-0.6673 -0.5409,-1.2082 -1.2082,-1.2082 H 36.875 c -1.5188,0 -2.75,-1.2312 -2.75,-2.75 z"
     stroke="#acacac"
     stroke-width="1.056"
     stroke-linejoin="round"
     id="path2" />
  <path
     d="M 19,14.375 V 13 c 0,-1.28133 0,-1.922 0.2093,-2.42738 C 19.4884,9.8988 20.0238,9.36344 20.6976,9.08433 21.203,8.875 21.8437,8.875 23.125,8.875 h 0.6875 c 1.9311,0 2.8967,0 3.5903,0.46346 0.3003,0.20064 0.5581,0.45845 0.7587,0.75872 0.4635,0.69362 0.4635,1.65919 0.4635,3.59032 v 1.15933 c 0,1.124 0,1.6861 -0.2093,2.19141 -0.2094,0.50545 -0.6068,0.90282 -1.4016,1.69776 l -0.8096,0.8095 C 25.5755,20.1745 24.5,19.729 24.5,18.8395 v -0.5063 c 0,-0.66727 -0.5409,-1.2082 -1.2082,-1.2082 H 21.75 c -1.5188,0 -2.75,-1.23118 -2.75,-2.75 z"
     stroke="#acacac"
     stroke-width="1.056"
     stroke-linejoin="round"
     id="path3" />
</svg>
